<?xml version="1.0" encoding="utf-8"?>
<!-- Generator: Adobe Illustrator 22.1.0, SVG Export Plug-In . SVG Version: 6.00 Build 0)  -->
<svg version="1.1" id="Layer_1" xmlns="http://www.w3.org/2000/svg" xmlns:xlink="http://www.w3.org/1999/xlink" x="0px" y="0px"
	 viewBox="0 0 80 80" enable-background="new 0 0 80 80" xml:space="preserve">
<g>
	<rect x="4.5" y="5" fill="#FFFFFF" width="71.5" height="71.5"/>
	<g>
		<g>
			<g>
				<g>
					<path fill="#4D2020" d="M74.7,76.5c0.2,0.2,0.6,0.1,0.5-0.3l-0.7-0.3L74.7,76.5z"/>
					<path fill="#4D2020" d="M75.9,73.7c-0.3-0.5-0.9-1.1-1.5-0.7c0.6,0.5,0.4,0.6,1.1,1.1c0.1,0.4-0.2,0.7-0.5,0.7
						c0.2,0.1-0.1,0.6,0.3,0.9c0.5-0.5,0.5-1.2,0.1-1.9C75.6,73.5,75.8,73.7,75.9,73.7z"/>
					<path fill="#4D2020" d="M76.9,33.2l-0.1,0.3C76.9,33.3,76.9,33.3,76.9,33.2z"/>
					<path fill="#4D2020" d="M77.3,7.9c0,0.3,0.1,0.4,0.1,0.4C77.4,8.1,77.3,7.9,77.3,7.9z"/>
					<path fill="#4D2020" d="M76,3c0.1,0,0.3,0,0.4,0C76.2,3,76.1,2.9,76,3z"/>
					<path fill="#4D2020" d="M76.9,33.2l0.2-0.7C76.9,32.4,77,32.8,76.9,33.2z"/>
					<path fill="#4D2020" d="M74.3,68.1c0,0.1,0.1,0.3,0.2,0.4c0-0.1-0.1-0.2-0.1-0.3C74.4,68.1,74.3,68.1,74.3,68.1z"/>
					<path fill="#4D2020" d="M77.5,44.2l0,0.2c0.1,0.1,0.2,0.1,0.3,0.2L77.5,44.2z"/>
					<path fill="#4D2020" d="M77.6,52.7c0-0.2-0.5-0.3-0.8-0.3c0.2,0.1,0.3,0.3,0.4,0.4C77.3,52.8,77.4,52.8,77.6,52.7z"/>
					<path fill="#4D2020" d="M76.6,66.2l0.1,0.2C76.6,66.4,76.6,66.3,76.6,66.2z"/>
					<path fill="#4D2020" d="M77.6,38.1c0.1,0,0.2,0,0.2-0.1C77.7,38.1,77.6,38.1,77.6,38.1z"/>
					<path fill="#4D2020" d="M66.1,73.9C66.1,73.9,66.1,73.9,66.1,73.9C66.2,73.9,66.2,73.9,66.1,73.9z"/>
					<path fill="#4D2020" d="M76,76.6l-0.1,0c0,0.1,0,0.2,0,0.3L76,76.6z"/>
					<path fill="#4D2020" d="M66.9,2.3C66.9,2.3,66.9,2.3,66.9,2.3C67.1,2.2,67,2.2,66.9,2.3z"/>
					<path fill="#4D2020" d="M2.2,14.7c0.5-0.8,0.6,1.3,1.2,0.1C3.2,14.9,2.5,13.7,2.2,14.7z"/>
					<path fill="#4D2020" d="M74.4,67.9c0-0.1,0-0.2,0-0.3C74.3,67.7,74.3,67.8,74.4,67.9z"/>
					<path fill="#4D2020" d="M3.4,14.8L3.4,14.8l0.1-0.1C3.4,14.7,3.4,14.8,3.4,14.8z"/>
					<path fill="#4D2020" d="M48.8,2.6c0,0.1,0.1,0.2,0.2,0.2C49,2.8,48.9,2.7,48.8,2.6z"/>
					<path fill="#4D2020" d="M62.3,3.4l-0.3-0.1C62.1,3.4,62.2,3.4,62.3,3.4z"/>
					<path fill="#4D2020" d="M41.8,3.4c-0.2,0-0.2-0.1-0.5,0c0,0,0,0,0.1,0.1C41.5,3.3,41.6,3.3,41.8,3.4z"/>
					<path fill="#4D2020" d="M34.5,3.4c0,0,0.1,0.1,0.1,0.1c0.1,0,0.2,0,0.2,0L34.5,3.4z"/>
					<path fill="#4D2020" d="M44,74.1c0.2,0.2,0.3,0.3,0.3,0.5C44.2,74.2,45.3,74.1,44,74.1z"/>
					<path fill="#4D2020" d="M74.6,68.1c-0.1,0-0.2-0.1-0.2-0.2c0,0.1,0,0.2,0,0.2C74.5,68.2,74.6,68.2,74.6,68.1z"/>
					<path fill="#4D2020" d="M41.5,7.8l-1.2-0.1C40.7,7.8,41.1,7.8,41.5,7.8z"/>
					<path fill="#4D2020" d="M6.8,63.8L6.9,64C6.9,63.9,6.9,63.8,6.8,63.8z"/>
					<path fill="#4D2020" d="M36.9,7.8c-0.2-0.2-0.4-0.3-0.7-0.4c0,0-0.1,0.1-0.1,0.1L36.9,7.8z"/>
					<path fill="#4D2020" d="M44.3,74.6L44.3,74.6L44.3,74.6z"/>
					<path fill="#4D2020" d="M52,73.3c-1.1,0-0.5,0.7-0.8,1.1c-1.3,0.2-0.6-0.5-1.1-0.9c-0.8,0.2-1.5,0.9-2.1,0.8
						c0-0.1-0.2-0.2,0-0.3c-0.9,0.6-2.6,0-3.6,0.8c-0.1-0.1-0.1-0.1-0.1-0.2c0.2,0.4,0.2,0.7,0.2,1c-0.5,0-0.9,0.5-1.1,0
						c0.3,0,0.3-0.2,0.5-0.3l-0.5,0.2c-0.5-0.7,0.7-0.2,0.7-0.8c-1,0.2-2.2,0.8-3,0.6c-0.2-0.7,1.8-0.2,0.8-0.8l1.2,0.3
						c-0.9-1.1,0.7,0.1-0.1-1.1c-1.6-0.2-1.8,0.3-3.3,0.1c-0.4,0.4,0.1,0.6-0.2,0.9c-2.2,0.7-1.8-1.7-3.4-0.8
						c-0.4,0.5-0.6,1.3-1.8,0.9l0.4-0.8c-1.5-0.1-0.9,1.1-2.5,0.6c0.3-0.3,1.2-0.3,1-0.3c-1-0.6-0.7,0.4-1.5,0.4l-0.2-0.7
						c-1.6,0.1-3.4,0.6-5.2,0.7c0.1-0.2,0.4-0.4,0-0.6c-2.3,0.3-4.8-0.1-7-0.5l-0.8,0.6c-0.2,0-0.4-0.3-0.2-0.4
						c-0.9-0.2,0,0.4-0.5,0.6c-0.5,0-0.6-0.3-0.3-0.5c-1.5,0.5-4.3,1.1-5.9,0.4l0.3-0.2c-1.2-0.2-1.4,1.2-2.5,0.7l0.2-0.1
						c-0.4,0-0.8-0.1-1.3-0.1l-0.9,0c-0.4,0-0.8,0-1.1,0c0-0.5,0.2-1,0.5-1.3c-0.2,0-0.3-0.1-0.3-0.2c0-0.3,0-0.6,0-0.9
						C6.6,71.7,6.6,71.1,6,71c0.6-1.5,0.8-1.1,1.2-3.2c0.1-0.6-0.7-0.9-0.9-1.6l0.6,0l-0.6-1L7,64.7L6.9,64c0,0.3-0.3,0.6-0.5,0.5
						c-0.3-1,0.4-2.5,0.7-2.6l-0.5-2.5C6.9,59.6,7,60,7.1,60.3c-0.6-1.3,0.6-0.2,0.1-1.4C7,59,6.8,58.8,6.7,58.7
						c0.4-0.6,0.4-2,0.2-3L7.3,56c0.1-1.8-0.2-3.9-0.2-5.9c-0.2,0.7-0.9,0.6-1,0l0.7-0.2c-0.4-0.4-0.2,0.6-0.7-0.2
						c0.1-0.8,0.7-0.5,1-0.1l-0.2-0.9c0.2-0.1,0.3,0.2,0.5,0.2c-0.4-0.4,0.7-1.6,0-2.2l0.2-0.1c0-2.1-0.2-3-0.3-4.7
						c-0.6,0-0.4-0.7-0.9-1.2c0.2-1.2,0.6-2.6,0.6-4.1c-0.3-1-0.5-0.3-0.8-0.8c0.5-0.1,0.5-1.6,0.8-0.8c-0.1-1.8-0.1-2.3-0.5-4.5
						c-0.2,0.2-0.3,0.5-0.5,0.4c-0.1-0.4,0.2-0.9,0.5-0.9l0.1,0.1c-0.8-2.5,1.5-5.8,0.4-7.8l0.1,0.1l-0.6-2.1c0.1-1,0.4,0.6,0.7-0.1
						c-0.9-2.2,0.1-3.6-0.4-5.4c0.8-0.7,0.7-2,0.6-3.3c0-0.7-0.1-1.3-0.1-2c0-0.3,0-0.6,0.1-0.9c0-0.1,0.1-0.3,0.1-0.4
						c0,0,0.1,0,0.2,0c-0.1,0-0.2,0-0.4,0C6.8,8,7.3,8.1,7.4,8.1C7.1,8,7.1,8.1,6.9,8C6.8,7.8,6.8,7.5,6.8,7.3c0.3,0,0.6,0,0.8,0.1
						l0.1,0c0,0,0,0,0.2,0l0.7,0.1l1.4,0.1c1.8,0.2,3.6,0.4,5.4,0.6c1.6,0.1,0.9-1.8,2.9-1l-0.6,0.7c3.2-0.8,6.6,0,9.7-0.6
						c-0.2,0.2-0.2,0.4-0.5,0.3c0.7,0.5,2.4,0,2.5-0.4c0.5,0,0.1,0.4,0.4,0.6c0.7,0.3,1.7-0.6,2-0.1c0.1,0.1-0.2,0.2-0.3,0.2
						c0.4-0.2,2,0.1,1.6-0.5c1.2,0.3,2.3-0.2,3.2,0.1c0.6-0.6,2,0.3,2.2-0.6c-0.1,0.9,2.1,0.7,2.8,0.3c-0.2,0.3,0.6,0.3,0.4,0.7
						c0.8,0,1.6-0.2,1.5-0.6c1.6,1.1,3.1-0.9,4,0.5c2.5-0.5,4.9-0.8,7.1-1c-0.1,0.9-2.5,0.1-2.4,1c2.2-0.4,3.4-1.1,5.5-0.9
						c0.6,0.1-0.3,0.4-0.5,0.5C59,7,61,7.4,62.9,6.9c0,0.1-0.2,0.2-0.4,0.2c0.4,0,0.9,0.1,0.8-0.3L63,7c-0.6-0.6,1.5-1.2,1.6-1.6
						c-0.6,1.2,1.9,0.3,0.9,1.8c0.2-0.1,0.6-0.3,0.5-0.5c0.4,0.1,0.5,0.2,0.1,0.6c1.4-0.2,0.9-0.7,2.1-0.7c0,0.2-0.3,0.3-0.4,0.5
						c0.6-0.4,1.2-0.8,2.3-0.6c-0.1,0.1,0.1,0.3-0.3,0.3c0.9,0,1.6-0.3,2.4-0.5c0.2,0,0.4-0.1,0.6-0.1c0.1,0,0.3-0.1,0.4-0.1
						c0.3,0,0.6,0,0.9,0.1c-0.9,0.9,0.2,0.3-0.4,1L74,7c0,0,0.1,0.1,0.1,0.1c0.1-0.2,0.2-0.3,0.4-0.5c0,0.2,0.1,0.4,0.2,0.6
						c0.1,0.2,0.2,0.4,0.1,0.7c-0.1-0.1-0.2-0.2-0.3-0.3L74.5,8c0,0.1,0,0.1,0,0.3l0,0.4l0.1-0.5l0.1-0.3c0.2,0.3,0.4,0.3,0.6,0.3
						c0.2,0,0.3,0.1,0.1,0.7c-0.1-0.2,0,0.9-0.4,1.4l0,0c0.2,0.5,0.5,0.9,0.3,1.6c-0.2,0.2-0.8-0.1-1,0c0.6,0.4,0.2,2.1,0.8,2.7
						c-0.2-0.2-0.5-0.2-0.6-0.1l0.5,0.4c-0.2,0.4-0.2,0.5-0.6,0.4c-0.1,1.3,0.9-0.4,0.5,1.1c0-0.1-0.1-0.1-0.2-0.3
						c-0.2,1.5,0.3,2.9,0.1,4.3c-0.8,0.4-0.2-1.2-0.8-0.8c0.1,2,0.9,4.2,0.7,6.1l0.1-0.4c1.1,0.3-0.5,1.5,0,2.4
						c-0.1-0.2-0.6-0.3-0.5-0.3c-0.2,1.3,0.3,2.7,0.6,4.8l-0.3-0.3c-0.2,0.8-0.1,2.1-0.3,2.9c0.3,0.3,0.2,0.7,0.6,0.4
						c-1.6,2.6,0.8,5-0.5,7.3c0-0.3-0.2-0.7-0.2-0.4l0.3,2c0.5-0.2,0.3-0.3,0.6-0.7c0.3,0.3,0.5,0.8,0.5,1.3c-0.3-0.9-0.7,0-1,0.4
						c0.1-0.1,0.3,0.1,0.4,0c-0.8,1,0.9,0.2,0.4,1.6l-0.2-0.1c0.1,0.5,0.4,1,0.4,1.6c-0.5,0.2-0.2-0.6-0.7-0.6c0,0.8,1,1.6,0.5,2.3
						c-0.1-0.3-0.2-0.8-0.3-1.2c-0.6,0.8-0.5,0.9-0.6,1.5l0-0.1l-0.3,1.4l0.2-0.3c1.4,1,0.3,2,1.2,3.4c-0.9-1.3-0.5-0.2-1.1-0.3
						c-0.2,0.3-0.4,0.9-0.5,0.7c0.5,0.6-0.4,1.1,0.3,2c-0.2,0,0,0.7-0.5,0.5c0.2,0.8,0.3-0.2,0.6-0.1c0.7,1.3-0.8,3,0.1,4.9
						c0.4,1.6,1,1.9,1.4,3.4c-0.3,0.5-0.7-0.4-0.7-0.4c-0.3,0.8-0.2,1.4,0,2.2c-0.2-0.2-0.3,0-0.5,0.2c0.1,0.6,0.7,0.4,0.4,1.2
						c-0.2-0.1-0.6-0.3-0.8-0.6c0.2,0.7,0.5,1.4,0.7,2.2c-0.3,0.2-0.5-0.4-0.7-0.7c0.2,0.8,0.3,2.2,0.8,2.4l0.2-0.5
						c0,0.3-0.5,0.2-0.6-0.1c-0.4-0.7,0.2-1,0.4-1.1l0.1,0.5c1.1-0.5-0.2-2.1-0.1-3.2l0.8,0.4l-0.7-1.1c0.2-0.2,0.7-0.4,0.8,0.1
						c0.4-0.8-0.3-0.7,0.2-1.3c0.1-0.1,0.1,0,0.1,0l-0.2-0.7c0.2,0.1,0.6-0.1,0.5,0.3c0.5-1.3-0.6-2.2,0-2.7l0.1,0.1
						c-0.3-1.9-0.6-0.2-1.3-1.6l1.5-0.9l-0.6-0.2c0-0.2,0.1-0.6,0.3-0.5c-0.4-0.7-0.3,0.1-0.7-0.3c0.6-0.9-0.3-2.5,0.7-2.7
						c-0.5-0.3-0.4,0.9-0.7-0.1c1-0.3-0.2-1.1,0.3-2c0.5,0.3,0.3,1.1,0.7,0.2c-0.9-0.5,0.2-1.6,0-2.3c-0.7,0-0.3-1.5-0.5-2.7
						c0.2,0.1,0.4-2.2,0.7-3.3l0.1,0c-0.7-0.2-0.6-1.4-0.7-2.2c0.4,0,0.6,0.2,0.8,0.6l0-0.8c-0.2-0.2-0.4-0.4-0.4-0.9l0.5,0.2
						c0-1-0.6-2.1-0.3-3.4c-0.5-0.1-1.4,1.1-1.8-0.4c0.3-0.1,0.8-0.1,0.9,0.3c0-0.1-0.2-0.4-0.1-0.7l0.5,0.6
						c0.2-0.6-0.4-0.3-0.3-0.8c0.4,0,0.3-0.4,0.6-0.3c0,0.1-0.2,0.4,0,0.6c0.1-0.5,0.3-1.2,0.6-1.4c-0.2,0-0.5,0-0.6-0.4
						c0-1,0.5-0.4,0.7-1c-0.3-0.3,0-0.9-0.6-0.9c0-0.3,0.3-0.4,0.4-0.5c-0.3-0.5-0.1-2.5-0.7-1.9l0,0.1c0,0,0-0.1,0-0.1v0v0
						c-0.6-1.8,0.3-3.7,0.1-5.4l0.2,0c-0.2-1-0.1-2.3-0.6-3.1c0-0.3,0.4-0.7,0.6-0.6c-0.1-0.8-0.4-0.9,0-2c0.3,0.8,0.3-0.3,0.3,0.8
						c0.2-1,0.5-1.3-0.1-2.4c0.5,0.4,0.6-0.8,0.5-1.3l-0.4,0.7c-0.1-0.6,0-1,0-1.5L78,19c0.8-2.1-1.4-3.8,0-5.4
						c-0.5-0.6-0.3,1.2-0.9,0.7c0.1-1,1-2,1-2.3c0.4-1.3-1-1.2-0.7-2.7c-0.2,0.2-0.9,0.3-1.1-0.7c0.1-0.9,1-1.6,1.2-0.7
						c0,0.2,0,0.3,0,0.4c0,0.1-0.1,0.1-0.1,0.1c0.1,0.3,0.2,0.7,0.4,0.3l-0.2-0.1c0.1-0.1,0.2-0.9,0.2-1.5c0.1-0.6,0.2-1,0.4-0.9
						C78,5,77.9,5.8,77.7,6.7c0.2-1.5,0.1-2.4,0.2-3.6c-0.5,0-1,0-1.5-0.1c0.2,0.1,0.3,0.4,0,0.4c-2.7-0.3-1.5,0.5-3.2,0.6
						c-0.5-0.2-0.4-0.4-0.4-0.5c0-0.1-0.1-0.2-0.7,0c-0.8-0.2-0.2-0.6,0.1-0.8C71,3.1,70,2.3,69.3,2.2L69.9,2
						c-0.4,0.1-0.7,0.1-1,0.1l0.4,0.5c-0.4-0.1-0.7-0.1-0.7-0.3c-0.4,0.3,0.3,0.8-0.5,1.2c-0.5-0.2-1.5,0.3-1.6-0.4
						c1.5,0.2-0.2-0.6,1.1-0.7c-0.2,0.1-0.6,0.1-0.9,0c-0.1-0.1,0.1-0.1,0.2-0.2C65.4,1.7,66.2,3,64.7,3c0.2-0.4-0.4-0.7-0.6-0.6
						c0.6,0,0.3,0.6-0.3,0.9c-1-0.3-1.1,0.2-1.6,0.2l0.6,0.1c-0.2,0.4-0.7,0.3-1.4,0.4c-0.1-0.3,0.6-0.2,0.4-0.3
						c-0.8,0.6-1.7-0.6-2.7-0.2c-0.5-0.2,0-0.7-0.5-0.8c-1.2,0.5-1.3-0.5-2.5-0.1c0.4,0.5,0.4,0.4-0.5,0.8l2-0.3l-1.3,0.7
						c0.6,0,1.3-0.3,1.7-0.2c-0.6,0.4-0.6,0.3-0.3,0.7C57,3.4,56.1,4.5,55.2,4l0-1.2c-1.5-0.5-2.6,0.6-4.5,0.3l0.6,0.2
						c-0.3,0.5-1.2,0.1-1.8,0.3c0.1-0.4-0.3-0.5-0.6-0.8c0,0.3-1.4,0-1.6,0.8l-0.8-0.5c-1.5-0.2-1.7,1.1-3.2,1
						c0.4-0.4-0.2-0.7,0.8-1c-0.5,0-0.9-0.1-0.9,0.2c-0.3-0.2-1.4,0.5-1.8,0.2C41.2,3.6,41.1,4,40.5,4c-0.1-0.1,0-0.2,0-0.2
						c0,0.2-0.9,0.3-0.4,0.7c-1.5-1.2-4.2,0.1-5.5-1c-1.1,0.1-2.4,0.3-3.3,0.3c0.1-0.1,0-0.2,0.2-0.2c-1.3-0.4-0.8,1.1-2.3,0.7
						C28.4,3.7,30,4,29.5,3.8c-0.2-1.3-1.8,0.2-2.9-0.6l0.2-0.1c-0.8-0.4-1.9,0.5-3.2,0.4c0,0,0.1-0.1,0-0.2
						c-0.9,0.7-2.5,0.9-3.8,1.1c0.4-0.5,0.6-0.3,0.3-0.8c-0.6,0.1,0.2,0.8-0.9,1c-0.4-0.3-1.2-0.5-1.3-1.1l1,0
						c-0.5-0.7-1.3,0-1.9-0.1l0.1-0.3c-1.6,0.1-1.6,0.9-3.3,0.8l0.2,0.2c-0.9,0.8-0.8-0.4-1.7,0.1l-0.3-0.8
						c-0.6,0.2-2.2,0.8-3.3,0.9c0.6-0.6,1.9-0.9,2.7-1.2c-0.6,0-2.1,0.1-2.4,0.4C9.4,3.5,9.7,3.3,10,3.5C9.6,3.8,9.1,4,8.7,4.2
						C8.4,4.2,8.1,4.3,7.9,4.3c-0.3,0-0.7,0.1-1,0c0-1-2-0.9-4-1c-0.1,0.9-0.2,1.7-0.6,2c0.1,1,0.2,1.8,0.2,2.7c0,0.6,0,1.1-0.1,1.7
						c-0.1,1.1-0.3,2.3-0.3,3.5c1.2-0.9,0,0.7,1.3,0.6c0.1,0.6,0.1,0.8,0,0.9l-0.7,1.8C2.3,17,2.4,16,2.1,16.1
						c-0.1,1.3-0.5,0.5-0.8,1.4c0.4-0.2,0.6,0.4,0.5,1.2l0.6-1c0.7,1.8-1,1.5-0.4,3.4l-0.4-0.6c0.2,0.9,0,3.4,1,4.3
						c-0.1,0.2-0.5,0.4-0.6,0c-0.1,2.2,1,4.9,0.4,6.7l-0.3-0.2c0.1,0.4,0.6,0.7,0.3,1.2c-0.1,0-0.3-0.2-0.3,0
						c0.1,0.2,0.5,1.1,0.3,1.6L2,33.6c-0.4,2.2,0.8,3.3,1,5.1c-0.9,0-1.2,1.7-1.3,2.5l-0.1,0c-0.1,2.5,0.7,4.3,1.1,6.6
						c-1,1.4-0.4,4.9-0.9,7.2c0.2-0.4,0.7,0.1,0.8,0.5c-0.2,0.5,0.6,1.5-0.2,1.4l0-0.2c-0.8,0.4-0.6,1.5-0.6,2.4l1.1,0.1
						c-1.5,2.3,0.6,6-0.8,7.2c0.3,0.6,0.3,1.2,0.5,1.8l-0.6,0c-0.1,1.5-0.2,2.3-0.1,4.2l-0.4-0.4c0,0.6,0.4,0.8,0.8,1.2
						c0.4,0.6,0.8,0.9,0.9,1.6c-0.3,0.2-0.6,0.5-0.8,0.8c0,1-0.1,2-0.1,3.1c1,0.1,2.1,0.2,3.3,0.2c1.1,0,2.5-0.1,2.9-0.3
						c0,0.1-0.1,0.4-0.4,0.4c0.9,0,3.4,0.6,3.1-0.6c0,0.8,1.9,0.1,2.9-0.3l-0.2,0.6c0.8-0.7,0.9-0.9,2.1-1.1
						c0.3,0.1,0.2,0.4-0.1,0.3c0.9,0.3,0.7-0.5,1.9-0.2l-0.4,0.4c1,0,0.9-0.1,1.4-0.6c0.6-0.2,1.8,0.1,2,0.6
						c0.1-0.3,0.7-0.7,1.2-0.6c0.1,0.2-0.1,0.3-0.2,0.4c1.6,0.4,2.4-0.6,3.5-0.1c0,0.2,0.1,0.3,0.2,0.3c-1.3,0-2.3,0-2.2-0.1
						c0,0.5,1,0.6,0.2,1.3c0.8-0.4,2.2-1.2,3.3-1c0,0,0.1,0.1,0.1,0.2l-0.1,0.1c0.2,0.1,0.4,0,0.6-0.1c0.3,0.1,0.5,0.1,0.8,0.2
						c0.1,0.4,1.2,0.2,1.7,0.2c0-0.6,0.6-0.5,0-0.9c0.1,0-0.1,0.1-0.4,0.1c-0.1,0-0.2,0-0.2,0.1c0,0,0,0,0,0c-0.3,0-0.8,0-1.3,0
						c0.4-0.3,0.8-0.5,1.4-0.2c0.3-0.4,0.6-0.7,0.7-0.9c0.7,0.8,2.1,1.2,2.3,1.7c1.6-0.3,3.7-0.2,4.7-1.3c0.4-0.1,0.5,0.3,0.7,0.5
						c-0.3,0.1-0.6,0.1-0.7,0.2c0.9-0.3,2.6-0.1,2.9-0.8c1.1,0.3-0.6,0.7,0.9,0.6l-0.2,0.2c3,1.2,5-1.9,8.3-0.4
						c-0.2-0.1-0.4-0.1-0.4-0.3c3.9,0.7,7.9-0.6,11.7,0.4c1.1,0.2,1.2-0.3,1.9-0.6l0.2,0.6l1.1-0.7c1.6-0.5,2.8,1.5,4.8,0.5
						l-0.3-0.4c0.7,0.1,2.3-0.2,2.2,0.2c0.1-0.1,0.2-0.4,0.5-0.2l0,0.3l1.8-0.5c1.4,0.2-0.2,1.3,1.8,1.3c0.8-0.1,2.1-0.9,1.9-1.1
						c-0.3,0-0.8-0.2-0.8-0.5l0.7-0.2c0.1-0.9,0.7-1.9-1-2.5l-1.2,0.6l-0.4-0.5l1,0c-0.6-0.4-0.9,0-1.3,0.2
						c-0.1-0.2-0.3-0.4-0.5-0.5l-1.2,0.9c-0.1-0.4,0.5-0.7-0.3-0.9c-0.5,0.4,0.5,0.8-0.4,1.1c-0.6-0.4-0.4-0.8-1.1-0.4
						c-0.1-0.2,0-0.4,0.3-0.5c-0.6,0.3-1.6,0.1-1.9,0.6c-0.6-0.5-2,0.1-1.9-0.7c-0.2,0.2-1,0.7-1.6,0.7c1-1.1-2-0.1-1.8-1.2
						c-0.7,0.9-2.6,0.4-3.9,0.9c0.1-0.1,0.2-0.2,0.3-0.2c-0.7-0.1-0.9-0.4-1.4-0.5c-0.1,0.8-1.2,1-1.8,1.4c-0.9-0.8,0.5-0.9,0.3-1.6
						c0,0.6-1.5,0.6-1.2,1.2c-0.7-0.5-0.6-0.2-0.9-0.9c-0.1,1-0.6,0.2-1.2,0.8c-1-0.5-0.3-0.9-1.3-0.6C51,73.7,52,73.3,52,73.3z
						 M26.2,75C26.2,75,26.2,75,26.2,75c0.2,0,0.4,0,0.5,0C26.6,75,26.5,75,26.2,75z M24.1,75c0.3,0,0.6,0,0.9,0
						c0.1,0.2,0,0.4-0.2,0.4C24.9,75.3,24.4,75.2,24.1,75z M28.6,78.9c-0.3,0.1-0.5,0-0.5-0.1c0.2,0,0.4,0,0.6-0.1c0,0,0,0,0-0.1
						C28.7,78.7,28.7,78.8,28.6,78.9z"/>
					<path fill="#4D2020" d="M29.2,78.2c0,0,0.1,0,0.1,0c-0.1,0-0.1-0.1-0.2-0.1c0,0.1-0.1,0.1-0.1,0.2
						C29.1,78.2,29.2,78.2,29.2,78.2z"/>
					<path fill="#4D2020" d="M76.8,33.5L76.8,33.5C76.8,33.4,76.8,33.5,76.8,33.5C76.8,33.5,76.8,33.5,76.8,33.5z"/>
					<polygon fill="#4D2020" points="7.1,66.2 6.9,66.2 7,66.4 					"/>
					<path fill="#4D2020" d="M74.9,45.4c0,0-0.1,0.1-0.1,0.2C74.8,45.5,74.9,45.5,74.9,45.4z"/>
					<path fill="#4D2020" d="M74.8,50.5l-0.2,0.7C74.7,50.9,74.7,50.7,74.8,50.5z"/>
					<path fill="#4D2020" d="M74.5,54.5c0.1,0.1,0.2,0.1,0.2,0.1l0,0L74.5,54.5z"/>
					<path fill="#4D2020" d="M62.5,7.2c-0.1,0-0.1,0-0.2,0C62,7.3,62.3,7.3,62.5,7.2z"/>
					<path fill="#4D2020" d="M75.2,10.3c-0.1-0.2-0.2-0.4-0.3-0.6C74.8,10,74.8,10.3,75.2,10.3z"/>
					<path fill="#4D2020" d="M41.6,7.8C41.6,7.8,41.6,7.8,41.6,7.8c0,0-0.1,0-0.1,0L41.6,7.8z"/>
					<path fill="#4D2020" d="M74.9,8.8c-0.1,0.3-0.1,0.6,0,0.9C74.9,9.4,75,9.1,74.9,8.8z"/>
					<path fill="#4D2020" d="M74.2,71.6l0,0.2c0,0,0.1,0,0.1,0L74.2,71.6z"/>
					<path fill="#4D2020" d="M74.3,71.9l0.1,0.2C74.4,72,74.4,71.9,74.3,71.9z"/>
					<path fill="#4D2020" d="M74.5,72.5l-0.1-0.4C74.4,72.2,74.4,72.4,74.5,72.5z"/>
					<path fill="#4D2020" d="M74.5,66.4l-0.2-0.1C74.3,66.4,74.4,66.4,74.5,66.4z"/>
					<path fill="#4D2020" d="M74.4,64.8c0,0.4-0.4,1-0.3,1.5l0.2,0C74,66.1,74.8,65.2,74.4,64.8z"/>
					<path fill="#4D2020" d="M77,58.2l-0.2,1.3c0.2-0.2,0.5-0.5,0.6,0.1C78,57.9,76.9,59.9,77,58.2z"/>
					<path fill="#4D2020" d="M77.3,54c0.1,0.7,0.3,0,0.4,0C77.5,53.6,77.5,53.5,77.3,54z"/>
					<path fill="#4D2020" d="M77.3,24.1l0.5,0.1C77.7,23.6,77.6,24.2,77.3,24.1z"/>
					<polygon fill="#4D2020" points="74.6,18.4 74.3,18.9 74.8,19.2 					"/>
					<polygon fill="#4D2020" points="78.3,15 78.4,15.3 78.2,14.3 					"/>
					<path fill="#4D2020" d="M35.8,2.9L36,3.5C36.3,3.4,36.4,2.7,35.8,2.9z"/>
					<path fill="#4D2020" d="M14.1,3.5c-0.2-0.3-0.8-0.5-1.2-0.2C13.4,3.4,13.9,3.6,14.1,3.5z"/>
					<polygon fill="#4D2020" points="2,60.4 1.8,60 2,60.8 					"/>
				</g>
			</g>
		</g>
	</g>
</g>
<rect x="12" y="31" fill="none" width="59" height="24"/>
<text transform="matrix(1 0 0 1 12 47.0195)" fill="#333300" font-family="'CooperBlack'" font-size="24px">ABC</text>
<text transform="matrix(1 0 0 1 300 -51)" font-family="'CooperBlack'" font-size="12px">Lorem ipsum</text>
<path fill="#CCCCCC" stroke="#000000" stroke-width="4" stroke-miterlimit="10" d="M36,37"/>
</svg>
