<?xml version="1.0" encoding="utf-8"?>
<!-- Generator: Adobe Illustrator 22.1.0, SVG Export Plug-In . SVG Version: 6.00 Build 0)  -->
<svg version="1.1" id="Layer_1" xmlns="http://www.w3.org/2000/svg" xmlns:xlink="http://www.w3.org/1999/xlink" x="0px" y="0px"
	 viewBox="0 0 80 80" style="enable-background:new 0 0 80 80;" xml:space="preserve">
<style type="text/css">
	.st0{fill:#FFFFFF;}
	.st1{fill:#231F20;}
	.st2{fill:#A09573;}
	.st3{fill:#83774E;}
	.st4{fill:#6E6232;}
	.st5{fill:none;}
	.st6{fill:#663333;stroke:#000000;stroke-width:2;stroke-miterlimit:10;}
	.st7{font-family:'MyriadPro-Regular';}
	.st8{font-size:21px;}
</style>
<g>
	<rect x="7.5" y="7.5" class="st0" width="66" height="66"/>
	<g>
		<g>
			<g>
				<rect x="12.9" y="53.2" class="st1" width="0.3" height="12.7"/>
				<rect x="10.9" y="53.2" class="st2" width="2" height="12.7"/>
				<rect x="10.4" y="53.2" class="st1" width="0.5" height="12.7"/>
				<rect x="7" y="53.2" class="st3" width="3.4" height="12.7"/>
				<rect x="6.5" y="53.2" class="st1" width="0.6" height="12.7"/>
				<rect x="0.4" y="53.2" class="st4" width="6.1" height="12.7"/>
			</g>
			<g>
				<rect x="12.9" y="40.5" class="st1" width="0.3" height="12.7"/>
				<rect x="10.9" y="40.5" class="st2" width="2" height="12.7"/>
				<rect x="10.4" y="40.5" class="st1" width="0.5" height="12.7"/>
				<rect x="7" y="40.5" class="st3" width="3.4" height="12.7"/>
				<rect x="6.5" y="40.5" class="st1" width="0.6" height="12.7"/>
				<rect x="0.4" y="40.5" class="st4" width="6.1" height="12.7"/>
			</g>
			<g>
				<rect x="12.9" y="27.8" class="st1" width="0.3" height="12.7"/>
				<rect x="10.9" y="27.8" class="st2" width="2" height="12.7"/>
				<rect x="10.4" y="27.8" class="st1" width="0.5" height="12.7"/>
				<rect x="7" y="27.8" class="st3" width="3.4" height="12.7"/>
				<rect x="6.5" y="27.8" class="st1" width="0.6" height="12.7"/>
				<rect x="0.4" y="27.8" class="st4" width="6.1" height="12.7"/>
			</g>
			<g>
				<rect x="12.9" y="15.2" class="st1" width="0.3" height="12.7"/>
				<rect x="10.9" y="15.2" class="st2" width="2" height="12.7"/>
				<rect x="10.4" y="15.2" class="st1" width="0.5" height="12.7"/>
				<rect x="7" y="15.2" class="st3" width="3.4" height="12.7"/>
				<rect x="6.5" y="15.2" class="st1" width="0.6" height="12.7"/>
				<rect x="0.4" y="15.2" class="st4" width="6.1" height="12.7"/>
			</g>
			<g>
				<rect x="15.2" y="12.9" class="st1" width="12.7" height="0.3"/>
				<rect x="15.2" y="10.9" class="st2" width="12.7" height="2"/>
				<rect x="15.2" y="10.4" class="st1" width="12.7" height="0.5"/>
				<rect x="15.2" y="7" class="st3" width="12.7" height="3.4"/>
				<rect x="15.2" y="6.5" class="st1" width="12.7" height="0.6"/>
				<rect x="15.2" y="0.4" class="st4" width="12.7" height="6.1"/>
			</g>
			<g>
				<rect x="27.8" y="12.9" class="st1" width="12.7" height="0.3"/>
				<rect x="27.8" y="10.9" class="st2" width="12.7" height="2"/>
				<rect x="27.8" y="10.4" class="st1" width="12.7" height="0.5"/>
				<rect x="27.8" y="7" class="st3" width="12.7" height="3.4"/>
				<rect x="27.8" y="6.5" class="st1" width="12.7" height="0.6"/>
				<rect x="27.8" y="0.4" class="st4" width="12.7" height="6.1"/>
			</g>
			<g>
				<rect x="40.5" y="12.9" class="st1" width="12.7" height="0.3"/>
				<rect x="40.5" y="10.9" class="st2" width="12.7" height="2"/>
				<rect x="40.5" y="10.4" class="st1" width="12.7" height="0.5"/>
				<rect x="40.5" y="7" class="st3" width="12.7" height="3.4"/>
				<rect x="40.5" y="6.5" class="st1" width="12.7" height="0.6"/>
				<rect x="40.5" y="0.4" class="st4" width="12.7" height="6.1"/>
			</g>
			<g>
				<rect x="53.2" y="12.9" class="st1" width="12.7" height="0.3"/>
				<rect x="53.2" y="10.9" class="st2" width="12.7" height="2"/>
				<rect x="53.2" y="10.4" class="st1" width="12.7" height="0.5"/>
				<rect x="53.2" y="7" class="st3" width="12.7" height="3.4"/>
				<rect x="53.2" y="6.5" class="st1" width="12.7" height="0.6"/>
				<rect x="53.2" y="0.4" class="st4" width="12.7" height="6.1"/>
			</g>
			<g>
				<rect x="67.8" y="15.2" class="st1" width="0.3" height="12.7"/>
				<rect x="68.1" y="15.2" class="st2" width="2" height="12.7"/>
				<rect x="70.1" y="15.2" class="st1" width="0.5" height="12.7"/>
				<rect x="70.6" y="15.2" class="st3" width="3.4" height="12.7"/>
				<rect x="73.9" y="15.2" class="st1" width="0.6" height="12.7"/>
				<rect x="74.5" y="15.2" class="st4" width="6.1" height="12.7"/>
			</g>
			<g>
				<rect x="67.8" y="27.8" class="st1" width="0.3" height="12.7"/>
				<rect x="68.1" y="27.8" class="st2" width="2" height="12.7"/>
				<rect x="70.1" y="27.8" class="st1" width="0.5" height="12.7"/>
				<rect x="70.6" y="27.8" class="st3" width="3.4" height="12.7"/>
				<rect x="73.9" y="27.8" class="st1" width="0.6" height="12.7"/>
				<rect x="74.5" y="27.8" class="st4" width="6.1" height="12.7"/>
			</g>
			<g>
				<rect x="67.8" y="40.5" class="st1" width="0.3" height="12.7"/>
				<rect x="68.1" y="40.5" class="st2" width="2" height="12.7"/>
				<rect x="70.1" y="40.5" class="st1" width="0.5" height="12.7"/>
				<rect x="70.6" y="40.5" class="st3" width="3.4" height="12.7"/>
				<rect x="73.9" y="40.5" class="st1" width="0.6" height="12.7"/>
				<rect x="74.5" y="40.5" class="st4" width="6.1" height="12.7"/>
			</g>
			<g>
				<rect x="67.8" y="53.2" class="st1" width="0.3" height="12.7"/>
				<rect x="68.1" y="53.2" class="st2" width="2" height="12.7"/>
				<rect x="70.1" y="53.2" class="st1" width="0.5" height="12.7"/>
				<rect x="70.6" y="53.2" class="st3" width="3.4" height="12.7"/>
				<rect x="73.9" y="53.2" class="st1" width="0.6" height="12.7"/>
				<rect x="74.5" y="53.2" class="st4" width="6.1" height="12.7"/>
			</g>
			<g>
				<rect x="53.2" y="67.8" class="st1" width="12.7" height="0.3"/>
				<rect x="53.2" y="68.1" class="st2" width="12.7" height="2"/>
				<rect x="53.2" y="70.1" class="st1" width="12.7" height="0.5"/>
				<rect x="53.2" y="70.6" class="st3" width="12.7" height="3.4"/>
				<rect x="53.2" y="73.9" class="st1" width="12.7" height="0.6"/>
				<rect x="53.2" y="74.5" class="st4" width="12.7" height="6.1"/>
			</g>
			<g>
				<rect x="40.5" y="67.8" class="st1" width="12.7" height="0.3"/>
				<rect x="40.5" y="68.1" class="st2" width="12.7" height="2"/>
				<rect x="40.5" y="70.1" class="st1" width="12.7" height="0.5"/>
				<rect x="40.5" y="70.6" class="st3" width="12.7" height="3.4"/>
				<rect x="40.5" y="73.9" class="st1" width="12.7" height="0.6"/>
				<rect x="40.5" y="74.5" class="st4" width="12.7" height="6.1"/>
			</g>
			<g>
				<rect x="27.8" y="67.8" class="st1" width="12.7" height="0.3"/>
				<rect x="27.8" y="68.1" class="st2" width="12.7" height="2"/>
				<rect x="27.8" y="70.1" class="st1" width="12.7" height="0.5"/>
				<rect x="27.8" y="70.6" class="st3" width="12.7" height="3.4"/>
				<rect x="27.8" y="73.9" class="st1" width="12.7" height="0.6"/>
				<rect x="27.8" y="74.5" class="st4" width="12.7" height="6.1"/>
			</g>
			<g>
				<rect x="15.2" y="67.8" class="st1" width="12.7" height="0.3"/>
				<rect x="15.2" y="68.1" class="st2" width="12.7" height="2"/>
				<rect x="15.2" y="70.1" class="st1" width="12.7" height="0.5"/>
				<rect x="15.2" y="70.6" class="st3" width="12.7" height="3.4"/>
				<rect x="15.2" y="73.9" class="st1" width="12.7" height="0.6"/>
				<rect x="15.2" y="74.5" class="st4" width="12.7" height="6.1"/>
			</g>
			<g>
				<g>
					<polygon class="st1" points="15.2,12.9 12.9,12.9 12.9,15.2 13.2,15.2 13.2,13.2 15.2,13.2 					"/>
					<polygon class="st2" points="15.2,10.9 10.9,10.9 10.9,15.2 12.9,15.2 12.9,12.9 15.2,12.9 					"/>
					<polygon class="st1" points="15.2,10.4 10.4,10.4 10.4,15.2 10.9,15.2 10.9,10.9 15.2,10.9 					"/>
					<polygon class="st3" points="15.2,7 7,7 7,15.2 10.4,15.2 10.4,10.4 15.2,10.4 					"/>
					<polygon class="st1" points="15.2,6.5 6.5,6.5 6.5,15.2 7,15.2 7,7 15.2,7 					"/>
					<polygon class="st4" points="15.2,0.4 0.4,0.4 0.4,15.2 6.5,15.2 6.5,6.5 15.2,6.5 					"/>
					<polygon class="st3" points="7,7.2 6.5,6.5 7,7.1 					"/>
					<polygon class="st3" points="10.9,11.1 10.4,10.4 10.9,10.9 					"/>
					<polygon class="st3" points="13.2,13.4 12.9,12.9 13.2,13.2 					"/>
				</g>
			</g>
			<g>
				<g>
					<polygon class="st1" points="68.1,15.2 68.1,12.9 65.8,12.9 65.8,13.2 67.8,13.2 67.8,15.2 					"/>
					<polygon class="st2" points="70.1,15.2 70.1,10.9 65.8,10.9 65.8,12.9 68.1,12.9 68.1,15.2 					"/>
					<polygon class="st1" points="70.6,15.2 70.6,10.4 65.8,10.4 65.8,10.9 70.1,10.9 70.1,15.2 					"/>
					<polygon class="st3" points="74,15.2 74,7 65.8,7 65.8,10.4 70.6,10.4 70.6,15.2 					"/>
					<polygon class="st1" points="74.5,15.2 74.5,6.5 65.8,6.5 65.8,7 74,7 74,15.2 					"/>
					<polygon class="st4" points="80.6,15.2 80.6,0.4 65.8,0.4 65.8,6.5 74.5,6.5 74.5,15.2 					"/>
					<polygon class="st3" points="73.8,7 74.5,6.5 73.9,7 					"/>
					<polygon class="st3" points="69.9,10.9 70.6,10.4 70.1,10.9 					"/>
					<polygon class="st3" points="67.6,13.2 68.1,12.9 67.8,13.2 					"/>
				</g>
			</g>
			<g>
				<g>
					<polygon class="st1" points="65.8,68.1 68.1,68.1 68.1,65.8 67.8,65.8 67.8,67.8 65.8,67.8 					"/>
					<polygon class="st2" points="65.8,70.1 70.1,70.1 70.1,65.8 68.1,65.8 68.1,68.1 65.8,68.1 					"/>
					<polygon class="st1" points="65.8,70.6 70.6,70.6 70.6,65.8 70.1,65.8 70.1,70.1 65.8,70.1 					"/>
					<polygon class="st3" points="65.8,74 74,74 74,65.8 70.6,65.8 70.6,70.6 65.8,70.6 					"/>
					<polygon class="st1" points="65.8,74.5 74.5,74.5 74.5,65.8 74,65.8 74,74 65.8,74 					"/>
					<polygon class="st4" points="65.8,80.6 80.6,80.6 80.6,65.8 74.5,65.8 74.5,74.5 65.8,74.5 					"/>
					<polygon class="st3" points="74,73.8 74.5,74.5 74,73.9 					"/>
					<polygon class="st3" points="70.1,69.9 70.6,70.6 70.1,70.1 					"/>
					<polygon class="st3" points="67.8,67.6 68.1,68.1 67.8,67.8 					"/>
				</g>
			</g>
			<g>
				<g>
					<polygon class="st1" points="12.9,65.8 12.9,68.1 15.2,68.1 15.2,67.8 13.2,67.8 13.2,65.8 					"/>
					<polygon class="st2" points="10.9,65.8 10.9,70.1 15.2,70.1 15.2,68.1 12.9,68.1 12.9,65.8 					"/>
					<polygon class="st1" points="10.4,65.8 10.4,70.6 15.2,70.6 15.2,70.1 10.9,70.1 10.9,65.8 					"/>
					<polygon class="st3" points="7,65.8 7,74 15.2,74 15.2,70.6 10.4,70.6 10.4,65.8 					"/>
					<polygon class="st1" points="6.5,65.8 6.5,74.5 15.2,74.5 15.2,74 7,74 7,65.8 					"/>
					<polygon class="st4" points="0.4,65.8 0.4,80.6 15.2,80.6 15.2,74.5 6.5,74.5 6.5,65.8 					"/>
					<polygon class="st3" points="7.2,74 6.5,74.5 7.1,74 					"/>
					<polygon class="st3" points="11.1,70.1 10.4,70.6 10.9,70.1 					"/>
					<polygon class="st3" points="13.4,67.8 12.9,68.1 13.2,67.8 					"/>
				</g>
			</g>
		</g>
	</g>
</g>
<rect x="16" y="30" class="st5" width="54" height="18"/>
<text transform="matrix(0.9694 -0.2455 0.2455 0.9694 20.1823 46.2264)"><tspan x="0" y="0" class="st6 st7 st8">A</tspan><tspan x="12.8" y="0.4" class="st6 st7 st8" rotate="27">B</tspan><tspan x="30" y="7.4" class="st6 st7 st8" rotate="2.1">C</tspan></text>
</svg>
