<?xml version="1.0" encoding="utf-8"?>
<!-- Generator: Adobe Illustrator 22.1.0, SVG Export Plug-In . SVG Version: 6.00 Build 0)  -->
<svg version="1.1" id="Layer_1" xmlns="http://www.w3.org/2000/svg" xmlns:xlink="http://www.w3.org/1999/xlink" x="0px" y="0px"
	 viewBox="0 0 80 80" enable-background="new 0 0 80 80" xml:space="preserve">
<g>
	<circle fill="#FFFFFF" cx="39.5" cy="40.5" r="38"/>
	<g>
		<g>
			<path opacity="0.1091" fill="#003300" d="M68.6,50c0,5.2-1.5,10-4.7,14.4c-7.7,10-19.3,13.4-34.9,10.1c0.8,0.2,1.6,0.5,2.4,0.7
				c-2.1-0.7-4.2-1.4-6.2-2.1c0.8,0.3,1.5,0.6,2.3,1c-2-1-3.9-1.9-5.9-2.9c0.7,0.4,1.4,0.8,2.2,1.2c-1.8-1.2-3.6-2.3-5.4-3.5
				c0.7,0.5,1.3,1,2,1.5c7.5-21.9,15.1-43.7,22.6-65.6c-1.1-0.1-2.3-0.1-3.4-0.2c2.5,0.2,5,0.5,7.5,0.7c-1.1-0.2-2.2-0.4-3.4-0.6
				c2.5,0.5,5,1,7.4,1.5c-1.1-0.3-2.2-0.6-3.3-0.9c2.4,0.8,4.8,1.6,7.2,2.4c-1-0.4-2.1-0.8-3.1-1.2c2.3,1,4.5,2.1,6.8,3.1
				c-1-0.5-2-1-3-1.6c2.1,1.3,4.2,2.6,6.3,3.8c-0.9-0.6-1.8-1.2-2.7-1.9c5.1,13.6,10.2,27.2,15.4,40.8c-0.1,0.4-0.4,1.2,0.3,1.2
				c0.5-0.1,0.9-2.6,0.9-3c1.2-6.2,1.2-12.4-0.5-18.5c-1.3-4.6-3.6-9-6.6-12.8c-3.6-4.5-8.2-8.2-13.5-10.5c-10.9-4.8-23.6-4-33.8,2
				C13.9,13.5,7.8,20.7,5.3,29c-2.4,7.9-2.4,16.4,0.5,24.1c3.2,8.7,9.7,16.2,18.1,20.3c8.6,4.1,18.3,4.6,27.4,1.5
				c5.1-1.7,9.9-5.1,13.4-9.2c1.8-2.1,3.1-4.2,4.3-6.7c1.9-3.9,2.5-7.7,2.8-11.9c0.1-0.8-1.2,0.5-1.1,0.5C70.1,48,68.7,49.2,68.6,50
				z"/>
			<path opacity="0.1091" fill="#003300" d="M67.6,53.9C66.6,75,49.9,80.7,17.4,71.2c-1-0.9-2-1.8-3-2.7c-6.9-6.9-10.6-17.4-10.1-27
				c0-2,0.3-4,0.7-6c0.9-5.4,3.8-9.8,8.6-13.2c2.3-5.3,5.9-8.9,10.9-11C45.7,1.5,62.2,15.7,74,53.9c-0.1,0.3-0.6,1.9-0.3,2.2
				c0.4,0.3,0.6-0.3,0.7-0.6c1.1-4.1,2-8.1,1.9-12.4c-0.1-2.9-0.4-5.9-1.2-8.7c-1.8-6.8-5.5-13.1-10.6-17.9
				c-15.1-14.2-40.1-12-53.1,4c-7,8.6-9.3,20.2-7,31C6.9,63.4,16,73.8,27.5,77.7c8.7,3,18.6,2.6,26.7-1.8c2.8-1.5,5.3-3.3,7.4-5.5
				c2-2.1,3.5-4.2,5-6.7c2.2-3.9,2.6-7.7,2.9-12c0.1-0.7-0.9,0.3-0.9,0.3C68.3,52.5,67.6,53.2,67.6,53.9z"/>
			<path opacity="0.1091" fill="#003300" d="M69.9,47.4c0,2.8-0.5,5.5-1.4,8.2c0-0.1,0.1-0.2,0.1-0.4c-0.6,1.3-1.1,2.7-1.7,4
				c0.1-0.1,0.1-0.2,0.2-0.4c-1.7,2.8-3.4,5.4-5.7,7.7c-0.9,0.9-1.8,1.8-2.9,2.5c-10.4,8.3-23.5,8.5-39.3,0.4
				c0.9,0.6,1.8,1.3,2.7,1.9c-2-1.5-3.9-2.9-5.9-4.4c0.8,0.7,1.7,1.5,2.5,2.2c-1.8-1.7-3.6-3.3-5.4-5c0.8,0.8,1.5,1.7,2.3,2.5
				c-1.6-1.9-3.2-3.7-4.8-5.6c0.7,0.9,1.4,1.8,2,2.8c-1.4-2-2.8-4-4.2-6c0.6,1,1.2,2,1.7,2.9c-1.2-2.2-2.4-4.3-3.5-6.5
				c0.5,1,0.9,2.1,1.4,3.1c-0.9-2.3-1.9-4.5-2.8-6.8c0.4,1.1,0.7,2.2,1.1,3.3c-0.7-2.4-1.4-4.8-2.1-7.2c0.2,1.1,0.5,2.3,0.7,3.4
				c-0.4-2.4-0.9-4.9-1.3-7.3c0.1,1.1,0.3,2.3,0.4,3.4c-0.2-2.5-0.3-5-0.5-7.5c0,1.2,0,2.3,0,3.5c0.1-2.5,0.2-5,0.3-7.5
				c-0.3,2.2-0.6,4.5-0.8,6.7c0.5-3.6,1.1-7.3,1.6-10.9c-0.5,2.2-1,4.4-1.5,6.6C4.1,34,5,30.8,5.8,27.6c-1,2.8-2.1,5.6-3.1,8.4
				c1.6-4.1,3.2-8.1,4.7-12.2c-1.3,2.7-2.7,5.3-4,8c2-3.8,4-7.6,6-11.5c-1.6,2.5-3.2,5-4.8,7.4c2.4-3.6,4.8-7.1,7.2-10.7
				c-1.9,2.3-3.7,4.6-5.6,6.9c2.7-3.3,5.5-6.5,8.2-9.8c-2.1,2.1-4.1,4.1-6.2,6.2c3.1-2.9,6.1-5.8,9.2-8.8c-2.3,1.8-4.6,3.7-6.8,5.5
				c3.3-2.6,6.7-5.1,10-7.7c-2.4,1.6-4.9,3.1-7.3,4.7c3.6-2.2,7.2-4.4,10.7-6.5c-2.6,1.3-5.2,2.6-7.7,3.8c3.8-1.8,7.5-3.6,11.3-5.3
				c-2.7,1-5.3,2-8,2.9c3.9-1.4,7.8-2.7,11.8-4.1c-2.7,0.7-5.5,1.4-8.2,2.1c4-0.9,8.1-1.8,12.1-2.8c-2.8,0.4-5.5,0.8-8.3,1.1
				C30.9,5,35.1,4.5,39.2,4c-2.8,0.1-5.6,0.1-8.4,0.2c4.1,0,8.3,0,12.4-0.1c-2.7-0.2-5.5-0.5-8.2-0.7c4.1,0.4,8.2,0.9,12.3,1.3
				c-2.7-0.5-5.4-1.1-8-1.6c4,0.9,8,1.8,12,2.7c-2.6-0.8-5.1-1.7-7.7-2.5c3.8,1.3,7.6,2.7,11.5,4c-2.4-1.1-4.9-2.2-7.3-3.3
				c3.6,1.8,7.2,3.5,10.8,5.3C56.3,8,54,6.6,51.8,5.3c3.3,2.1,6.7,4.3,10,6.4c-2.1-1.6-4.2-3.2-6.3-4.9c3.1,2.5,6.1,5,9.2,7.5
				c-1.9-1.8-3.7-3.7-5.6-5.5c2.7,2.8,5.5,5.6,8.2,8.4c-1.6-2-3.3-4.1-4.9-6.1c4.3,9.6,8.7,19.3,13,28.9c0-1,0-2-0.1-3
				c-0.1,2.3-0.1,4.7-0.2,7c0.1-1,0.2-2,0.3-2.9c-0.3,2.4-0.7,4.7-1,7.1c0,0.4,0.1,0.5,0.3,0.1c0.4-0.9,0.7-1.8,1-2.8
				c0.5-1.8,1.1-3.6,1.6-5.5c0.3-0.9,0.5-1.9,0.6-2.9c-0.5-3.7-1.2-7.2-2.6-10.7c-1.1-2.7-2.4-5.2-4-7.6C67.8,13.6,63,9.2,57.4,6.3
				c-11.7-6.1-26.3-5.7-37.7,1C8.6,13.9,1.4,26.1,0.9,39C0.5,50.6,5.5,62.5,14.4,69.9c10.9,9,25.8,11.7,39,6.6
				c5.9-2.3,11.2-6,15.4-10.9c1.8-2.2,3.5-4.6,4.8-7.1c1.3-2.4,2.4-5.1,3.4-7.7c1.4-3.9,2-8.1,2.4-12.2c-0.5,0.1-0.9,0.3-1.2,0.7
				c-1.3,1.1-2.6,2.2-3.8,3.4c-1.3,1.1-2.5,2.3-3.7,3.5C70.3,46.6,70,46.9,69.9,47.4z"/>
			<path opacity="0.1091" fill="#003300" d="M68.6,49.6c-0.1,1.4-0.2,2.8-0.4,4.2c0-0.1,0.1-0.2,0.1-0.3c-0.5,2.6-1.3,5.1-2.5,7.5
				c-3,5.6-7.5,9.9-13.5,12.8c0.8-0.4,1.6-0.8,2.4-1.1c-5.5,1.3-11.1,2.7-16.6,4c2.2,0,4.4,0.1,6.6,0.1c-3.5-0.1-7.1-0.3-10.6-0.4
				c2.2,0.3,4.3,0.5,6.5,0.8c-3.5-0.5-7-1-10.5-1.5c2.1,0.5,4.2,1,6.3,1.5c-3.4-0.9-6.8-1.8-10.2-2.7c2,0.7,4,1.4,6,2.1
				c-3.2-1.3-6.5-2.5-9.7-3.8c1.9,0.9,3.8,1.8,5.7,2.8c-3-1.6-6.1-3.2-9.1-4.8c1.7,1.1,3.5,2.2,5.2,3.3c-2.8-1.9-5.6-3.8-8.4-5.7
				c1.6,1.3,3.2,2.6,4.8,3.9c-2.5-2.2-5.1-4.4-7.6-6.6c1.4,1.4,2.8,2.9,4.3,4.3c-2.3-2.4-4.5-4.9-6.8-7.3c1.2,1.6,2.5,3.2,3.7,4.7
				c-2-2.7-3.9-5.3-5.9-8c1,1.7,2.1,3.4,3.1,5.1c-1.6-2.8-3.3-5.7-4.9-8.5c0.8,1.8,1.7,3.6,2.5,5.4c-1.3-3-2.6-6-3.9-9
				C5.8,54.1,6.4,56,7,57.8c-1-3.1-1.9-6.2-2.9-9.4c0.4,1.9,0.8,3.8,1.2,5.7c-0.6-3.2-1.2-6.4-1.8-9.6c0.2,1.9,0.4,3.8,0.6,5.7
				c23.3-0.1,46.5-0.2,69.8-0.3c0,0.2-0.3,0.9,0,1.2c0.2,0.2,0.9-1.7,0.9-1.8c0.5-1.5,1-2.9,1.4-4.4c0.3-1.1,1-2.6,0.9-3.7
				c-0.3-5.8-1.1-11.2-3.6-16.6c-2.4-5-5.8-9.4-10-12.9C54.6,4.4,42.7,1.5,31.5,3.9c-9.5,2-18,7.8-23.4,15.9
				c-6.4,9.6-8,21.8-4.4,32.7C8.2,66,20.2,76,34.2,77.9c11.3,1.5,22.9-2.3,30.9-10.3c3.9-3.9,6.8-8.7,8.8-13.8
				c1.5-4,2.2-8.1,2.7-12.4c-0.4,0.1-0.8,0.3-1.1,0.6c-1.1,1-2.2,2.1-3.2,3.2c-1.1,1.1-2.1,2.2-3.1,3.3
				C68.9,48.8,68.6,49.2,68.6,49.6z"/>
			<path opacity="0.1091" fill="#003300" d="M67.9,49.7c-0.1,1.4-0.2,2.7-0.2,4.1c-0.5,3.2-1.6,6.1-3.4,8.6c-0.6,1.1-1.4,2.1-2.3,3
				c-15.5,18.1-33.5,4.5-54.2-41c-0.4,0.9-0.8,1.8-1.2,2.7c1-2.1,2.1-4.2,3.1-6.3c-0.5,0.8-1,1.7-1.4,2.5
				c14.3-6,28.6-11.9,42.9-17.9c-0.8-0.2-1.6-0.4-2.4-0.6c8.5,15.3,17,30.6,25.5,45.8c-0.3,1.4,0.4,1.6,0.7,0.2
				c1.4-5.3,2.2-10.5,1.4-16c-0.7-5.4-2.6-10.7-5.6-15.2C65.5,11.3,56.8,5.4,47,3.7C34.3,1.5,21,6,12.5,15.8
				C6.6,22.5,3.8,31,3.6,39.8C3.5,50.2,8.5,60.3,16.1,67.1c7.1,6.4,17,9.5,26.5,8.6c5.1-0.5,10.1-2.1,14.4-4.8
				c4.4-2.7,8-6.6,10.4-11.2c1.9-3.8,2.3-7.2,2.5-11.4C69.9,47.6,67.9,49.1,67.9,49.7z"/>
			<path opacity="0.1091" fill="#003300" d="M69.6,46.8c-0.1,1.4-0.3,2.8-0.4,4.2c-0.8,2.4-1.6,4.8-2.4,7.3
				c-1.5,2.9-3.5,5.4-5.8,7.6c-1.9,1.8-3.9,3.3-6.1,4.5c-14.8,8.3-33.7,5.7-46.8-14c0.5,0.9,1.1,1.9,1.6,2.8
				c-1.1-2.1-2.2-4.3-3.3-6.4c0.4,1,0.9,2,1.3,3c-0.9-2.2-1.8-4.5-2.6-6.7c0.3,1,0.7,2.1,1,3.1c-0.7-6-1.4-12-2.2-18
				c-0.4,2.8-0.7,5.5-1.1,8.3c0.6-4.1,1.2-8.3,1.8-12.4C4,33,3.3,35.7,2.7,38.4c1-4,2.1-8.1,3.1-12.1c-0.9,2.6-1.8,5.2-2.7,7.8
				c1.4-3.8,2.9-7.7,4.3-11.5C6.3,25,5.2,27.5,4,30c1.8-3.6,3.7-7.2,5.5-10.9C7.7,22,6,24.9,4.2,27.8c2.6-4,5.1-7.9,7.7-11.9
				c-2,2.7-4.1,5.4-6.1,8c2.9-3.6,5.8-7.2,8.8-10.9c-2.2,2.4-4.5,4.8-6.7,7.2c3.2-3.2,6.5-6.5,9.7-9.7c-2.5,2.1-4.9,4.3-7.4,6.4
				c3.5-2.9,7.1-5.7,10.6-8.6c-2.6,1.8-5.2,3.6-7.8,5.5c3.8-2.4,7.5-4.9,11.3-7.3c-2.8,1.5-5.5,3-8.3,4.6c4-2,7.9-4,11.9-6
				c-2.8,1.2-5.7,2.4-8.5,3.6c4.1-1.5,8.2-3.1,12.3-4.6c-2.9,0.9-5.8,1.7-8.7,2.6c4.2-1.1,8.4-2.2,12.6-3.2
				c-2.9,0.5-5.8,1.1-8.7,1.6c4.2-0.6,8.5-1.2,12.7-1.8c-2.9,0.2-5.8,0.4-8.7,0.6c4.3-0.1,8.5-0.3,12.8-0.4
				c-2.8-0.1-5.7-0.2-8.5-0.4c4.2,0.3,8.4,0.7,12.6,1c-2.8-0.4-5.5-0.9-8.3-1.3c4.1,0.8,8.2,1.6,12.3,2.5c-2.6-0.7-5.3-1.5-7.9-2.2
				c3.9,1.3,7.8,2.5,11.6,3.8c-2.5-1-5-2.1-7.5-3.1c3.6,1.7,7.3,3.4,10.9,5.1c-2.3-1.3-4.6-2.6-6.9-3.9c3.4,2.1,6.7,4.2,10.1,6.3
				c-1.7-1.2-3.4-2.5-5-3.7c2.6,2.1,5.3,4.2,7.9,6.3c-1.5-1.4-3-2.8-4.4-4.2c2.3,2.4,4.7,4.8,7,7.1c-1.3-1.6-2.6-3.1-3.9-4.7
				c2,2.6,4.1,5.2,6.1,7.9c-1.1-1.7-2.1-3.4-3.2-5c7.7,10.6,10.3,21.5,7.8,32.8c0,0.4,0.1,0.4,0.3,0.1c0.4-0.7,0.7-1.4,0.9-2.1
				c0.5-1.4,1-2.8,1.4-4.2c0.3-0.7,0.5-1.5,0.6-2.3c-0.5-5.8-1.6-11.4-4.3-16.6c-2.6-4.9-6.3-9.3-10.7-12.7
				C57,5.8,50.6,3.5,43.8,2.5c-0.3,0-0.5-0.1-0.8-0.1c-7.2,1.7-14.5,3.4-21.7,5.1c-0.9,0.4-1.7,1-2.5,1.5c-2.3,1.5-4.9,3.1-6.9,5
				C7.9,18,5,23.3,3.3,28.5c-2.1,6.3-2.4,13-1.1,19.5c2.2,11.2,9.5,20.7,19.6,26c10.2,5.4,22.6,5.7,33.1,0.9
				c6.4-2.9,11.7-7.5,15.6-13.3c1.5-2.3,2.7-4.8,3.8-7.3c2-4.5,2.9-9.2,3.3-14.1c-0.4,0-0.7,0.2-1,0.5c-1.1,0.8-2.2,1.7-3.3,2.6
				c-1.1,0.9-2.1,1.8-3.2,2.7C69.9,46.1,69.6,46.5,69.6,46.8z"/>
			<path opacity="0.1091" fill="#003300" d="M68.8,51.1c-0.1,1.4-0.2,2.8-0.4,4.2c0-0.1,0-0.2,0.1-0.4c-0.3,2-0.9,3.9-1.8,5.7
				c-1.6,4.1-4.2,7.6-7.9,10.5c0.7-0.6,1.4-1.2,2.1-1.8c-2.6,1.7-5.2,3.5-7.7,5.2c2-1,4.1-2.1,6.1-3.1c-3.2,1.5-6.4,3-9.6,4.5
				c2.1-0.8,4.1-1.6,6.2-2.4c-3.3,1.2-6.6,2.3-9.9,3.5c2.1-0.6,4.2-1.2,6.3-1.8c-3.3,0.8-6.7,1.6-10,2.4c2.6-0.4,5.2-0.9,7.8-1.3
				c-3.9,0.5-7.8,1-11.7,1.5c2.6-0.2,5.1-0.3,7.7-0.5c-3.9,0.1-7.8,0.1-11.7,0.2c2.5,0.1,5,0.2,7.5,0.3c-3.8-0.4-7.7-0.7-11.5-1.1
				c2.4,0.4,4.8,0.8,7.2,1.1c-3.7-0.8-7.4-1.6-11.1-2.4c2.3,0.6,4.5,1.3,6.8,1.9c-3.5-1.2-7-2.4-10.5-3.5c2.1,0.9,4.2,1.7,6.4,2.6
				c-3.3-1.5-6.5-3.1-9.8-4.6c1.9,1.1,3.9,2.2,5.8,3.2c-3-1.9-6-3.8-9-5.7c1.8,1.3,3.5,2.6,5.3,3.9c-2.7-2.2-5.4-4.4-8.1-6.6
				c1.2,1.1,2.5,2.3,3.7,3.4c-2.1-2.1-4.2-4.3-6.2-6.4c1.1,1.3,2.1,2.5,3.2,3.8c-1.8-2.3-3.6-4.7-5.4-7c0.9,1.4,1.8,2.7,2.6,4.1
				c-1.5-2.5-3-5-4.5-7.6C7.6,58.5,8.3,60,9,61.4c-1.2-2.7-2.4-5.3-3.5-8c0.5,1.5,1,3,1.5,4.5C1.9,44.4,2.8,32.5,9.6,22.2
				c12.2-18,32.7-17,61.3,2.7c-0.5-0.8-0.9-1.7-1.4-2.5c1.8,8.3,3.6,16.6,5.4,24.8c0.4-2.5,0.7-5,1.1-7.4c-0.6,3.9-1.2,7.7-1.9,11.6
				c0,0.3-0.3,1.1,0,1.3c0.2,0.2,0.8-2,0.9-2.1c0.5-1.6,0.9-3.3,1.3-5c0.3-1.3,0.9-2.9,0.9-4.2c-0.3-5.9-1.1-11.3-3.6-16.6
				c-2.4-5-5.8-9.4-10.1-12.9C54.7,4.7,42.8,1.9,31.7,4.3c-9.4,2-17.8,7.7-23.2,15.6c-3.1,4.6-5.2,9.9-6.1,15.3
				c-0.7,4.4-0.4,8.6,0.2,12.9C3.5,53.5,6.1,59,9.4,63.3c7.4,9.8,16.7,14.9,32.3,14.9c2.3,0,4.7-0.5,7-1c6.1-1.2,12-4.8,16.4-9.2
				C69,64.2,72,59.4,74,54.2c1.6-4.1,2.2-8.2,2.7-12.5c-0.4,0.1-0.8,0.4-1,0.8c-1.1,1.2-2.1,2.4-3.1,3.6c-1,1.2-2,2.5-3,3.8
				C69.1,50.2,68.9,50.6,68.8,51.1z"/>
			<path opacity="0.1091" fill="#003300" d="M67,47.8c0.1,2.7-0.3,5.2-1.1,7.8c-0.5,1.2-1,2.4-1.6,3.5C60.8,66.5,53.3,71,45.7,72.8
				c-3.8,0.9-7.6,1.1-11.5,0.6C19,71.7,8,61.2,3.8,43.6c0.2,1.5,0.5,3,0.7,4.5c-0.4-2.8-0.7-5.6-1.1-8.4c0.1,1.5,0.2,3,0.3,4.5
				c-0.1-2.8-0.2-5.7-0.3-8.5c0,1.5-0.1,3-0.1,4.5c0.2-2.8,0.4-5.7,0.6-8.5c-0.2,1.5-0.4,2.9-0.5,4.4c0.5-2.8,1-5.6,1.5-8.5
				c-0.3,1.4-0.6,2.8-0.9,4.2c0.7-2.4,1.4-4.7,2.1-7.1c-0.5,1.3-0.9,2.6-1.4,4c1.1-2.6,2.1-5.1,3.2-7.7C7.2,22,6.6,23.2,6,24.5
				c1.3-2.4,2.6-4.7,4-7.1c-0.7,1.1-1.4,2.2-2,3.4c1.5-2.2,3.1-4.3,4.6-6.5c-0.8,1-1.5,2-2.3,3c21,10.7,41.9,21.4,62.9,32.1
				c-0.1,0.3-0.2,0.8,0.3,0.8c0.4-0.1,0.7-1.3,0.8-1.6c0.9-3.9,1.5-7.6,1.4-11.6c-0.1-3.8-0.9-7.7-2.2-11.3
				c-2.6-7.2-7.3-13.2-13.4-17.6C47.7-0.6,31.2,0,18.8,7.9C8.8,14.2,3.5,25.1,2.7,36.7C2,46.4,5.4,56.1,11.9,63.4
				c5.3,6,12.4,9.8,20.2,11.3c7.6,1.4,15.8,0.1,22.5-3.6c3.3-1.8,6.2-4.2,8.7-7c1.4-1.6,2.4-3.2,3.4-5c1-1.7,1.8-3.5,2.3-5.4
				c0.6-2.4,0.9-4.9,0.8-7.4C69.8,45.5,67.1,47.2,67,47.8z"/>
			<path opacity="0.1091" fill="#003300" d="M69.8,48.9c0,2.8-0.5,5.5-1.4,8.2c0-0.1,0.1-0.3,0.1-0.4c-0.8,2.5-2,4.8-3.5,6.9
				c-3.6,5.2-8.5,8.9-14.8,11.1c1-0.4,2-0.7,3.1-1.1c-2.2,0.7-4.5,1.4-6.7,2.2c1-0.3,2.1-0.5,3.1-0.8c-2.3,0.5-4.6,0.9-6.9,1.4
				c1.1-0.1,2.1-0.3,3.2-0.4C33,69.3,20.1,62.7,7.1,56c0.5,0.9,0.9,1.8,1.4,2.7c-0.9-2.1-1.9-4.3-2.8-6.4c0.3,1,0.7,1.9,1,2.9
				C6,53,5.3,50.7,4.6,48.5c0.2,1,0.5,2,0.7,3c-0.4-2.3-0.9-4.6-1.3-6.9c0.1,1,0.2,2,0.4,3c-0.2-2.4-0.4-4.7-0.5-7.1
				c0,1,0,2.1,0,3.1c0.1-2.4,0.2-4.8,0.3-7.2c-0.1,1-0.2,2-0.4,3.1c0.4-2.4,0.7-4.8,1.1-7.2c-0.2,1-0.5,2-0.7,3
				c0.6-2.3,1.3-4.7,1.9-7c-0.4,1-0.7,1.9-1.1,2.9c0.9-2.2,1.8-4.5,2.7-6.7c-0.5,0.9-0.9,1.9-1.4,2.8c1.2-2.1,2.3-4.2,3.5-6.3
				c-0.6,0.9-1.1,1.7-1.7,2.6c1.4-1.9,2.8-3.9,4.2-5.8c-0.7,0.8-1.4,1.6-2,2.4c1.6-1.8,3.2-3.5,4.8-5.3c-0.8,0.7-1.5,1.4-2.3,2.2
				c10.6-3.9,21.2-7.8,31.9-11.7c-1.1-0.1-2.2-0.3-3.3-0.4c2.5,0.4,5,0.8,7.4,1.2c-1.1-0.3-2.2-0.5-3.2-0.8c2.4,0.7,4.8,1.4,7.2,2
				c-1-0.4-2.1-0.8-3.1-1.1c2.3,1,4.6,1.9,6.9,2.9c-1-0.5-2-1-3-1.5c2.1,1.2,4.3,2.4,6.4,3.6C59,10.5,58,9.9,57.1,9.3
				c2,1.4,4,2.9,6,4.3c-0.9-0.7-1.7-1.4-2.6-2.1c1.8,1.6,3.6,3.2,5.4,4.9c-1.5-1.6-3-3.2-4.5-4.8c2.3,2.6,4.7,5.2,7,7.9
				c-0.7-0.9-1.4-1.8-2.1-2.6c1.4,2,2.8,3.9,4.2,5.9c-1.1-1.9-2.3-3.8-3.4-5.6c1.7,3.1,3.5,6.1,5.2,9.2c-0.9-2-1.9-4-2.8-6
				c1.4,3.2,2.8,6.4,4.2,9.7c-0.7-2.1-1.4-4.2-2.1-6.2c1,8.4,2,16.8,2.9,25.2c0,0.3-0.3,1.2-0.1,1.5c0.1,0.1,0.9-2.3,0.9-2.4
				c0.5-1.9,1-3.8,1.5-5.7c0.3-1.3,1.2-3.5,1-4.8c-0.8-5.9-2.2-11.4-5.3-16.6c-2.9-4.9-6.9-9.1-11.6-12.3
				c-8.5-5.7-19.2-7.8-29.2-5.8c-11.2,2.2-21.5,9.7-26.6,20c-4.7,9.3-5.7,20-2.5,30c3.1,9.5,10,17.6,18.9,22.2
				c10.4,5.4,23,5.8,33.7,1c7.7-3.5,14.1-9.5,18.2-16.9c1.2-2.2,2.6-5.3,3.4-7.7c1.5-4.2,2.1-8.3,2.6-12.7c-0.5,0.2-0.9,0.4-1.2,0.9
				c-1.3,1.3-2.6,2.7-3.9,4c-1.3,1.4-2.5,2.7-3.7,4.2C70.1,48,69.9,48.4,69.8,48.9z"/>
			<path opacity="0.1091" fill="#003300" d="M68.1,48.2c0,4-0.9,7.8-2.8,11.3c-0.9,1.7-1.9,3.3-3.2,4.7C56.5,71.6,48.2,75.1,37.2,75
				C23,74.6,12.1,66.2,4.7,49.7c0.5,1.8,1.1,3.6,1.6,5.4C5.5,52,4.6,49,3.8,45.9c0.4,1.8,0.7,3.7,1.1,5.5c-0.5-3.2-1-6.3-1.6-9.5
				c0.2,1.8,0.3,3.7,0.5,5.5c-0.2-3.2-0.4-6.4-0.6-9.6c0,1.8-0.1,3.7-0.1,5.5c0.2-3.2,0.3-6.4,0.5-9.6c-0.2,1.8-0.4,3.6-0.6,5.4
				c0.5-3.2,1-6.3,1.5-9.5C4,31.5,3.6,33.2,3.2,35c0.8-3.1,1.7-6.1,2.5-9.2c-0.6,1.7-1.1,3.3-1.7,5c1.2-2.9,2.3-5.8,3.5-8.7
				c-0.7,1.6-1.5,3.2-2.2,4.7c1.5-2.7,2.9-5.4,4.4-8.1c-1.1,1.8-2.3,3.6-3.4,5.5c2-2.9,3.9-5.7,5.9-8.6c-1.3,1.7-2.6,3.3-3.9,5
				c2.2-2.6,4.5-5.2,6.7-7.7c-1.4,1.5-2.9,2.9-4.3,4.4c2.5-2.3,4.9-4.6,7.4-6.9c-1.6,1.3-3.1,2.6-4.7,3.8c2.7-2,5.4-3.9,8-5.9
				c-1.3,0.9-2.6,1.7-3.9,2.6c2.5-1.4,5-2.9,7.5-4.3c-1.4,0.7-2.7,1.4-4.1,2.1c2.6-1.1,5.2-2.3,7.8-3.4c-1.4,0.5-2.8,1.1-4.2,1.6
				c2.7-0.8,5.4-1.7,8.1-2.5c-1.4,0.4-2.9,0.7-4.3,1.1c2.7-0.5,5.5-1.1,8.2-1.6c-1.4,0.2-2.8,0.4-4.3,0.6c2.8-0.2,5.5-0.4,8.3-0.7
				c-1.4,0-2.8,0.1-4.2,0.1C39,3.8,41.8,3.9,44.6,4c-1.4-0.1-2.7-0.3-4.1-0.4c2.7,0.4,5.5,0.8,8.2,1.2c-1.3-0.3-2.6-0.6-4-0.9
				c2.6,0.7,5.3,1.5,7.9,2.2c-1.3-0.4-2.5-0.9-3.8-1.3c2.5,1,5,2,7.5,3.1c-1.2-0.6-2.3-1.1-3.5-1.7c2.3,1.3,4.6,2.6,6.9,3.9
				c-1.1-0.7-2.2-1.4-3.2-2.1c2.1,1.5,4.2,3.1,6.4,4.6C62,11.8,61,11,60,10.2c1.9,1.8,3.8,3.5,5.7,5.3c-0.9-0.9-1.7-1.9-2.6-2.8
				c1.7,2,3.3,3.9,5,5.9c-0.7-1-1.5-2-2.2-3.1c2.5,11.2,5.1,22.4,7.6,33.6c-0.3,1.3,0.5,0.3,0.8-0.3c0.7-1.4,1.5-3.2,1.6-4.7
				c0.2-3.5,0.2-6.8-0.3-10.2c-0.4-2.7-1.2-5.3-2.2-7.8C69.6,16.5,61.8,8.9,52.3,5.2C49.1,4,45.6,3.3,42.2,3.1c-1-0.1-2-0.2-3-0.1
				c-0.5,0-33.7,22-33.8,22.4C2.7,30.8,1.8,37,2.3,43c1.1,14,10.4,26.5,23.5,31.5c10.9,4.2,23.7,2.9,33.4-3.9
				c4.4-3.1,7.8-7.1,10.4-11.8c2.8-4.9,3.8-10.1,4.3-15.6c-0.3-0.1-0.6,0-0.8,0.3c-0.8,0.6-1.6,1.2-2.3,1.9
				C70.2,46,68.2,47.2,68.1,48.2z"/>
			<path opacity="0.1091" fill="#003300" d="M67.2,47.9c0.2,5.2-1.4,10-4.7,14.4c-1.5,1.9-3.2,3.6-5.2,5.1
				c-3.5,2.6-7.4,4.3-11.6,5.2c-4.4,0.9-8.9,1-13.4,0.2C15.5,69.5,4.2,54.9,4,34.9c-0.1,1.4-0.2,2.8-0.3,4.2
				c0.3-2.7,0.5-5.5,0.8-8.2c-0.2,1.4-0.4,2.7-0.6,4.1c0.5-2.7,1.1-5.4,1.6-8.2c-0.3,1.3-0.7,2.7-1,4c1.3-3.5,2.7-7.1,4-10.6
				c-0.6,1.2-1.2,2.3-1.8,3.5c1.3-2.3,2.7-4.6,4-6.9C10,17.8,9.4,18.9,8.7,20c1.5-2.1,3.1-4.2,4.6-6.4c-0.8,1-1.5,1.9-2.3,2.9
				C25.1,12.7,39.1,8.9,53.2,5c6.2,2.1,10.8,6.2,13.6,12.2c3.4,2.7,5.6,6,6.7,9.9c2.5,7.2,2.5,14.7-0.1,22.5c-0.1,0.3,0,0.6,0.4,0.6
				c0.4,0,0.5-0.9,0.6-1.2c1-3.8,1.7-7.6,1.7-11.5c0-4-0.8-8.1-2.1-11.9c-1.3-3.7-3.2-7.1-5.6-10.3C64.2,9.6,58.1,5.6,51.5,3.2
				c-6.6-2.4-14.1-2.3-20.8-0.7c-6.4,1.5-12.8,5.1-17.3,10c-3.9,4.1-6.9,9-8.5,14.4c-2.7,8.8-2.4,18.3,1.6,26.8
				c3,6.5,7.9,12.3,14.1,15.9c9.5,5.5,21.3,6.6,31.5,2.1c5.7-2.5,10.4-6.4,13.7-11.7c1-1.6,1.9-3.3,2.5-5.1c0.9-2.6,0.8-5.4,0.9-8.1
				C69.1,46.1,67.3,47.4,67.2,47.9z"/>
			<path opacity="0.1091" fill="#003300" d="M68.8,50c0,2.8-0.5,5.5-1.4,8.2c0-0.1,0.1-0.3,0.1-0.4c-4.1,9.6-8.3,14.2-21.1,18.4
				c2.6-0.6,5.1-1.2,7.7-1.8c-3.8,0.8-7.6,1.6-11.4,2.5c2.5-0.3,5.1-0.7,7.6-1c-3.9,0.4-7.7,0.8-11.6,1.3c2.5-0.1,5.1-0.2,7.6-0.2
				c-3.9,0-7.7,0-11.6,0c2.5,0.2,4.9,0.4,7.4,0.6c-3.8-0.4-7.6-0.8-11.5-1.2c2.4,0.4,4.8,0.9,7.2,1.3c-3.7-0.8-7.4-1.6-11.1-2.5
				c2.3,0.7,4.6,1.4,6.9,2.1c-3.5-1.2-7.1-2.4-10.6-3.7c2.7,1.2,5.5,2.4,8.2,3.6c-3.9-1.9-7.7-3.7-11.6-5.6c2,1.2,4,2.3,6,3.5
				c-3.1-1.9-6.1-3.9-9.2-5.8c1.8,1.4,3.7,2.7,5.5,4.1c-2.8-2.2-5.6-4.5-8.4-6.7c1.6,1.5,3.3,3.1,4.9,4.6c-2.5-2.5-5-5-7.5-7.6
				c1.4,1.7,2.9,3.4,4.3,5.1c-2.2-2.8-4.4-5.5-6.5-8.3c1.2,1.8,2.4,3.7,3.6,5.5c-1.8-3-3.7-6-5.5-8.9c1,2,2,3.9,2.9,5.9
				c-1.5-3.2-3-6.3-4.4-9.5c0.7,2,1.5,4.1,2.2,6.1c22.2-8.2,44.5-16.5,66.7-24.7c-0.2-1-0.4-2.1-0.6-3.1c0.4,2.4,0.8,4.7,1.1,7.1
				c-0.1-1-0.2-2.1-0.3-3.1c0.1,2.4,0.2,4.8,0.4,7.2c0-1.1,0-2.1,0-3.2c-0.4,3.5-0.7,6.9-1.1,10.4c0,0.3-0.3,1.1-0.1,1.4
				c0.1,0.2,1-2.2,1-2.3c0.6-1.8,1.1-3.6,1.6-5.4c0.4-1.3,1.2-3.2,1.1-4.6c-0.6-5.9-1.6-11.4-4.5-16.6c-2-3.7-4.6-7-7.6-9.9
				c-7.3-7-17.4-10.4-27.4-10.2C28,2.7,18.5,7.5,11.6,14.6c-7.5,7.8-11,18.9-10,29.5c1,10.1,5.7,19.2,13.5,25.7
				c7.7,6.5,17.7,9.6,27.8,8.7c10-0.9,19-5.6,25.5-13.3c3.1-3.7,5.5-8,7.2-12.6c1.5-4.1,2.2-8.3,2.6-12.6c-0.5,0.1-0.9,0.4-1.2,0.9
				c-1.3,1.3-2.5,2.6-3.7,3.9c-1.2,1.3-2.4,2.7-3.6,4.1C69.2,49.1,68.9,49.5,68.8,50z"/>
		</g>
	</g>
</g>
<rect x="10" y="31" fill="none" width="63" height="24"/>
<text transform="matrix(0.9819 -0.1894 0.1894 0.9819 13.5411 47.9832)"><tspan x="0" y="0" fill="#333300" stroke="#8CC63F" stroke-width="0.75" stroke-miterlimit="10" font-family="'CooperBlack'" font-size="23px">A</tspan><tspan x="18.9" y="0.4" fill="#333300" stroke="#8CC63F" stroke-width="0.75" stroke-miterlimit="10" font-family="'CooperBlack'" font-size="23px" rotate="20.9">B</tspan><tspan x="38.1" y="4.2" fill="#333300" stroke="#8CC63F" stroke-width="0.75" stroke-miterlimit="10" font-family="'CooperBlack'" font-size="23px" rotate="20.2">C</tspan></text>
<text transform="matrix(1 0 0 1 300 -51)" font-family="'CooperBlack'" font-size="12px">Lorem ipsum</text>
<path fill="#CCCCCC" stroke="#000000" stroke-width="4" stroke-miterlimit="10" d="M36,37"/>
</svg>
