<?xml version="1.0" encoding="utf-8"?>
<!-- Generator: Adobe Illustrator 22.1.0, SVG Export Plug-In . SVG Version: 6.00 Build 0)  -->
<svg version="1.1" id="Layer_1" xmlns="http://www.w3.org/2000/svg" xmlns:xlink="http://www.w3.org/1999/xlink" x="0px" y="0px"
	 viewBox="0 0 80 80" style="enable-background:new 0 0 80 80;" xml:space="preserve">
<style type="text/css">
	.st0{fill:#FFFFFF;}
	.st1{fill:#BAA9A9;}
	.st2{fill:none;}
	.st3{stroke:#000000;stroke-width:2;stroke-miterlimit:10;}
	.st4{font-family:'MyriadPro-Regular';}
	.st5{font-size:21px;}
</style>
<g>
	<rect x="8.5" y="9.5" class="st0" width="66" height="61"/>
	<g>
		<g>
			<g>
				<g>
					<path class="st1" d="M42.7,75.2c-3.5,0.5-7.6,1.8-12.1,1.7c-3.8,0-7.5,0-11.2,0.1c-5.8,0-11.6,0-17.3,0c0-4.7,0-9.5,0.1-14.2
						c0-2.6,0.1-5.2,0.1-7.7c0.1-5.1,0.2-10.2,0.3-15.3c0.1-5.1,0.3-10.1,0.4-15.1L3.2,17c0.1-4.2,0.2-8.4,0.3-12.6
						C7.3,4.5,11.1,4.6,15,4.7c2.2,0.1,4.3,0.2,6.5,0.3c4.3,0.2,8.7,0.4,13,0.6C43.2,6,52.1,6.4,61.2,6.9C63.5,6.9,65.8,7,68,7.1
						c3,0.1,5.9,0.2,8.6,0.2c-0.3,11.2-0.6,21.9-0.9,32.6c-0.2,10-0.4,20.1-0.5,30.5c0-7.1,0.5-14.2,0-21.2
						c-0.5-6.8-1-13.3-1.4-19.9c-0.2-3.3-0.5-6.5-0.7-9.8c-0.1-0.8-0.1-1.7-0.2-2.5l-0.1-1.2l-0.1-0.9c-0.1-1.2-0.3-2.3-0.4-3.3
						c-0.4,0-0.7,0.1-1.1,0.1c-0.5,0.1-1.1,0.1-1.6,0.2c-0.5,0.1-1.1,0.1-1.6,0.2c-1.7,0.1-3.4,0.3-5.2,0.4
						c-3.5,0.3-7.2,0.6-10.8,0.8c-7.4,0.5-15,0.8-22.3,0.5c-4-0.1-7.8-0.3-11.3-0.4c-1.7,0-3.9-0.1-4.1-0.1c-0.7,0-1.3-0.1-1.9-0.1
						c0,0.5,0,1-0.1,1.5c0,0.3,0,0.5,0,0.7c0,0.5,0,0.9,0,1.3c0,2.3,0,4.3,0,6.2c0,3.7,0.1,6.5,0.2,8.5c0.1,3.9,0.3,4.3,0.3,0.8
						c0,5.9,1.6,10.2,2.1,16.1c0.2,3.9,0.1,7.6,0,11.2c0,0.9-0.1,1.8-0.1,2.7l-0.1,1.3l0,0.2c0,0.1,0,0.1,0,0.1l0,0l0,0
						c-0.1,0.1-0.3,0.4-0.4,0.8c0.1,0.1,0.3,0.3,0.7,0.4l0.1,0.1c0,0,0.2,0,0.3,0l0.3,0l1.4,0.1l2.8,0.2c1.5-0.2,6-0.5,7.5-0.3
						c13.7,1.4,26,3.5,42.7,3.9c-1.5,0.3-3,0.5-3,0.5c3.1,0.4,4.6,0.6,7.7,1C65.4,72.6,53.3,73.8,42.7,75.2z"/>
				</g>
			</g>
		</g>
	</g>
</g>
<rect x="17.7" y="26" class="st2" width="55.3" height="26.7"/>
<text transform="matrix(1 0 0 1 17.6665 40.9097)" class="st3 st4 st5">ABC</text>
</svg>
