<?xml version="1.0" encoding="utf-8"?>
<!-- Generator: Adobe Illustrator 22.1.0, SVG Export Plug-In . SVG Version: 6.00 Build 0)  -->
<svg version="1.1" id="Layer_1" xmlns="http://www.w3.org/2000/svg" xmlns:xlink="http://www.w3.org/1999/xlink" x="0px" y="0px"
	 viewBox="0 0 80 80" enable-background="new 0 0 80 80" xml:space="preserve">
<g>
	<path fill="#FFFFFF" d="M46.9,72.3L15.4,60.7C9.2,58.4,6,51.5,8.3,45.3L19.8,14C22,7.8,29,4.6,35.2,6.9l31.5,11.6
		c6.2,2.3,9.4,9.2,7.1,15.4L62.3,65.1C60.1,71.3,53.1,74.5,46.9,72.3z"/>
	<g>
		<g>
			<path opacity="0.1091" fill="#000033" d="M42.2,60c-5.6-2-11.3-4-16.9-6.1c-3.4-1.3-6.9-2.6-10.4-3.8c-3.3-1.2-5.7-1.8-7.4-5.7
				c0.3,1.2,0.7,2.5,1,3.7c-1.2-7.9,2.1-8.6,6.6-11.8c3-2.1,5.5-4.3,7.4-7.5c2.5-4.2,4.6-8.5,6.5-13c1.4-3.2,2.5-7.3,5.5-9.6
				c-1.2,0.5-2.3,1.1-3.5,1.6C33,7,34.8,6.3,36.6,5.5c-1.5,0.5-3,0.9-4.5,1.4c1.9-0.4,3.7-0.7,5.6-1.1c-1.2,0.2-2.4,0.4-3.6,0.6
				c2.7,0.9,5.5,1.8,8.2,2.7C42.1,9,42,8.8,41.9,8.6c0.2,1.5,1.2,2.6,2.2,3.8c1,1.2,1.9,2.4,3,3.6c2.7,3.1,5.8,4.9,9.4,6.8
				c3.7,2,7.7,3.7,11.6,5.4c2.8,1.2,5.4,2.1,7.4,4.6c-0.6-1-1.2-2.1-1.8-3.1c0.8,1.7,1.6,3.4,2.4,5.1c-0.5-1.4-1-2.7-1.6-4.1
				c1.9,9.1-3.4,10-8,13.7c-1.1,0.9-2.1,1.8-3.1,2.8c-1.7,1.7-2.9,3.9-4,6c-2.1,3.8-3.9,7.7-5.6,11.6c-1.3,3.1-2.3,6.3-5.1,8.5
				c0.8-0.5,1.7-0.9,2.5-1.4c-1.5,0.7-3,1.4-4.4,2c1.1-0.4,2.2-0.8,3.3-1.2c-4.3,0.6-6.8-0.4-10-3.1c-0.7-0.6-1.5-1.2-2.3-1.5
				c-0.1,0-1.1-0.4-0.8,0.1c0.9,1.6,2,2.9,3.4,4c1.3,1,2.7,1.7,4.2,2c1.2,0.1,3.2-0.2,4.1-0.4c2.1-0.6,4-1.8,5.3-3.5
				c1.9-2.5,3-6,4.1-8.8c2.6-6.3,5.4-13.2,10.6-17.8c-0.7,0.5-1.4,1-2.1,1.6c1.4-0.3,2.8-0.5,4.2-0.6c1.5-0.9,2.9-2,4-3.4
				c1-1.3,1.8-3,2-4.7c0.3-3.1-1.4-7-3.7-9c-2.4-2.2-5.7-3.3-8.7-4.5c-7-2.8-14.2-5.8-19.6-11.2c0.9,1.1,1.7,2.2,2.6,3.2
				c-0.2-1.4-0.3-2.7-0.6-4.1c-0.9-1.5-2-2.9-3.4-4c-1.7-1.3-4-2.3-6.2-2.1c-2.4,0.2-5,1.2-6.9,2.7c-2.4,2-3.7,5.6-4.9,8.4
				c-2.8,7.1-5.7,14.9-11.3,20.3c1.1-0.8,2.2-1.5,3.3-2.3c-1,0.6-3.1,0.2-4.1,0.6c-1.8,0.7-3.6,2.7-4.6,4.3
				c-0.8,1.3-1.4,2.7-1.4,4.3c-0.1,3,1,5.8,3.4,7.8c1.4,1.2,3.1,1.8,4.7,2.6c3.4,1.5,7.1,2.6,10.6,3.9c5.9,2.3,11.9,4.4,17.8,6.6
				c0.7,0.3,0.1-1.2,0.1-1.2C43.4,62.5,42.9,60.3,42.2,60z"/>
			<path opacity="0.1091" fill="#000033" d="M41,60.9c-2.2-0.5-4.4-0.8-6.6-1.3c-2.4-0.7-4.8-1.9-7.1-2.8c-2.4-0.9-4.8-1.8-7.3-2.7
				c-3.2-1.2-6.5-2.1-9.6-3.5c-2.7-1.2-3.7-4.8-2.6-7.3c0.7-1.6,2-3.8,3.6-4.6c1.5-0.8,3.3-0.8,4.8-1.2c0.7-0.2,1.4-0.6,2-1
				c1.3-0.7,2.8-1.7,3.7-2.8c0.9-1,1.5-2.6,2.2-3.7c2.3-4.3,4.3-8.7,6.3-13.1c0.7-1.5,1.3-3,2-4.5c1.1-2.5,2.1-3.5,5.1-4.2
				c-0.4,0-0.8,0-1.2,0.1c3,0.4,5.6,1.6,7.5,3.9c1.3,1.6,0.9,2.6,1.5,4.2c0.4,1.1,1.1,2.1,1.7,3.1c0.7,1,2.4,3.2,3.3,3.9
				c2.3,1.8,5.2,3.1,7.8,4.4c2.6,1.3,5.3,2.5,7.9,3.7c3.3,1.5,7.5,2.5,9.6,5.7c-0.4-0.8-0.7-1.6-1.1-2.4c0.4,1.2,0.9,2.5,1.3,3.7
				c-0.2-0.8-0.5-1.7-0.7-2.5c0.3,4.8-1.2,7.9-4.7,9.4c-0.9,0.6-2,1.1-3.1,1.3c-1.3,0.6-2.4,1.4-3.5,2.2c-2.2,1.7-3,2.8-4.4,5.3
				c-2.4,4.3-4.5,8.7-6.4,13.1c-1.3,3-2.4,6-4.3,8.7c0.4-0.4,0.9-0.7,1.3-1.1c-4.4-1.6-8.9-3.2-13.3-4.7c-0.3-0.4-1.3-0.2-1,0.4
				c2.1,3.5,5.1,7.2,9.6,7.4c2,0.1,4.2-1.4,5.4-2.8c2.1-2.3,3.1-5.9,4.3-8.7c2.3-5.4,4.8-10.7,7.5-15.8c-0.4,0.5-0.8,1-1.2,1.6
				c1.9-2.8,4.5-3.9,7.9-3.3c1-0.1,1.9-0.6,2.7-1.5c2.2-1.6,3.8-3.7,4.5-6.3c0.6-2.4-0.1-4.5-1.1-6.6c-1.3-2.8-3.8-3.7-6.5-4.8
				c-6.6-2.7-13.2-5.5-19.6-8.8c0.2,0.2,0.4,0.3,0.6,0.5c-5.8-6.9-2.2-2.7-2.5-6.5c-0.5-0.9-1-1.7-1.5-2.5c-1-1.4-2.3-2.6-3.8-3.5
				c-2.4-1.4-5.1-1.8-7.6-0.6c-1.5,0.7-2.4,1.8-3.1,3.3c-1.1,2.1-1.9,4.4-2.8,6.6c-1.5,3.5-3.1,7-4.8,10.5c-1.5,3.1-4.8,9.3-9.3,8.1
				c-1.9-0.5-4.1,1.8-5.2,3c-1.4,1.6-2.9,4.1-2.9,6.4c0.1,2.4,1.8,4.5,3.8,5.5c1.5,0.7,3.2,1.2,4.7,1.7c3.6,1.3,7.2,2.6,10.8,4
				c3.5,1.3,7,3.1,10.7,3.8c1.4,0.2,2.9,0.5,4.3,0.7C41.1,61.7,41.5,61,41,60.9z"/>
			<path opacity="0.1091" fill="#000033" d="M42.2,60.9c-5.7-2.1-11.3-4.2-17-6.3c-3.4-1.3-6.9-2.6-10.3-3.8
				c-2.1-0.8-3.9-1.4-5.8-2.5c0.1,0.1,0.2,0.2,0.3,0.3C9,48,8.5,47.5,8.1,46.9c1,2.1,2,4.3,3.1,6.4c-1.1-2.4-2.2-4.9-3.2-7.3
				c1.3,3.7,2.6,7.5,3.9,11.2c-1.3-5.4-2.6-10.8-3.9-16.1c0.4,4.2,0.9,8.4,1.3,12.6C9.1,49.2,9.1,44.8,9,40.3
				C8.8,44.2,8.7,48,8.5,51.9c0.6-4.4,1.2-8.8,1.8-13.2c-0.9,4-1.7,8.1-2.6,12.1c2.8-5.1,5.6-10.3,8.4-15.4
				c-0.6,0.9-1.3,1.8-1.9,2.7c2.2-2.8,4.2-5.6,6-8.7c1.5-2.8,2.9-5.7,4.3-8.5c2.2-4.7,3.9-9.6,6.6-14.1c-0.1,0.1-0.2,0.2-0.2,0.4
				c0.5-0.4,1.1-0.9,1.6-1.3c-3,1.7-5.9,3.4-8.9,5c3.3-1.7,6.5-3.4,9.8-5.1c-3.4,1.5-6.9,3.1-10.3,4.6c4-1.6,8.1-3.1,12.1-4.7
				c-3.5,1.1-7,2.1-10.4,3.2c4.1-0.9,8.2-1.9,12.4-2.8c-3.9,0.6-7.7,1.2-11.6,1.8C30.6,7.8,35.7,7.9,40.7,8
				C37,7.5,33.3,6.9,29.6,6.4c4.8,2.4,9.6,4.9,14.5,7.3c-0.8-0.5-1.6-1.1-2.4-1.6c2.8,2,5.5,4,8.5,5.6c2.8,1.5,5.7,2.9,8.6,4.3
				c4,1.9,8.3,3.3,12.2,5.4c-0.1-0.1-0.2-0.1-0.3-0.2c0.8,0.4,1.5,0.9,2.3,1.3c-0.1-0.1-0.2-0.1-0.3-0.2c0.4,0.5,0.9,1.1,1.3,1.6
				c-1.8-3.3-3.5-6.6-5.3-9.8c2,4.5,4.1,9.1,6.1,13.6c-1-3.5-2-6.9-2.9-10.4c0.8,3.8,1.5,7.6,2.3,11.4c-0.4-3.2-0.8-6.4-1.2-9.6
				c0.1,3.9,0.3,7.7,0.4,11.6c0.1-3.6,0.3-7.2,0.4-10.8c-1.2,5-2.3,10-3.5,15c1.4-3.6,2.9-7.2,4.3-10.7c-4.9,7-9.9,13.3-13.7,20.8
				c-1.4,2.7-2.7,5.4-4,8.2c-1.7,3.8-3.2,7.8-5.3,11.4c0.1-0.1,0.2-0.2,0.2-0.3c-0.5,0.4-1.1,0.9-1.6,1.3c1-0.5,1.9-0.9,2.9-1.4
				c-1.3,0.6-2.6,1.1-3.9,1.7c3.4-1.1,6.7-2.2,10.1-3.3c-5,1.1-10,2.2-15,3.4c3.8-0.2,7.6-0.5,11.4-0.7c-4.1-0.1-8.3-0.2-12.4-0.3
				c3.5,0.3,7.1,0.7,10.6,1c-4.1-0.7-8.2-1.5-12.3-2.2c3.4,0.9,6.8,1.8,10.1,2.7c-4-1.7-8.1-3.3-12.3-4.6c-0.3-0.2-0.6-0.2-0.9-0.2
				c-0.1,0.2,1.1,0.8,1.2,0.9c3.9,2.4,8.2,2,12.8-1.3c5.1,1.4,8.8,0.5,11-2.6c0.5-1,0.8-2.1,1.3-3.1c1.6-3.3,2.6-6.8,4.1-10.1
				c2.5-5.7,4.4-11.5,6.2-17.4c0.1-0.4,0.1-0.9-0.1-1.3c-0.4-1.6-0.8-3.2-1.2-4.8c-0.4-1.6-0.9-3.2-1.4-4.7
				c-0.1-0.5-0.3-0.9-0.6-1.2c-1.7-1.8-3.4-3.4-5.6-4.5c-0.9-0.4-1.8-0.7-2.7-1.1c-1.1-0.5-2.1-1-3.2-1.4c-3.4-1.3-6.9-2.6-10.2-4.1
				c-2-0.9-4-1.5-6-2.2c-1-0.3-2-0.7-2.9-1c-1.3-0.6-2.6-0.8-4-0.8c0.4,0.2,0.8,0.4,1.1,0.6c-1.2-0.9-2.3-1.8-3.5-2.6
				c-0.5-0.1-1,0.1-1.5,0.3c-1.2,0.5-2.5,1-3.7,1.6c-1.5,0.7-3,1.3-4.6,2c-1.1,0.4-2.1,1-3.1,1.6c-0.7,0.6-1.3,1.3-1.8,2.1
				c-1,1.4-1.7,2.9-2.2,4.5c-0.7,1.5-1.4,2.9-1.9,4.5c-1.3,3.6-2.9,7-4.3,10.5c-0.7,2-1.4,4-2.2,6c-0.8,1.7-1.3,3.5-1.3,5.4
				c2.7-3,5.4-6.1,8.2-9.1c-3.1,2.9-6.2,5.7-9.3,8.6c-0.2,0.5-0.1,1,0,1.6c0.4,1.9,0.8,3.8,1.2,5.7c0.4,1.9,0.9,3.8,1.3,5.6
				c0.1,0.6,0.3,1,0.6,1.4c1.5,1.5,2.8,2.9,4.6,3.9c1.2,0.7,2.5,1.1,3.8,1.7c3,1.4,6.1,2.4,9.3,3.6c6.7,2.7,13.4,5.5,20.1,8.4
				c0.1-0.5-0.1-1.1-0.3-1.6c-0.7-1.8-1.5-3.7-2.2-5.5c-0.8-1.8-1.6-3.6-2.4-5.4C42.9,61.7,42.6,61.3,42.2,60.9z"/>
			<path opacity="0.1091" fill="#000033" d="M41.6,62.1c-5.2-1.9-10.3-3.9-15.5-5.8c-3.6-1.3-7.2-2.7-10.8-4c-3-1.1-5.6-1.8-7.8-4.3
				c1.2,2.1,2.4,4.1,3.5,6.2c-1.3-2.5-2.6-4.9-3.8-7.4c1,2.4,2,4.8,3,7.3c-1-3-2.1-6.1-3.1-9.1c0.6,2.4,1.3,4.9,1.9,7.3
				c-0.5-3.1-1-6.2-1.6-9.3c0.3,2.5,0.5,4.9,0.8,7.4c0-3.1,0-6.2,0.1-9.3c-0.1,2.5-0.2,4.9-0.4,7.4c0.6-3,1.1-6.1,1.7-9.1
				c-0.5,2.3-1.1,4.6-1.6,6.9c1.1-2.8,2.3-5.7,3.4-8.5c-1.1,2.4-2.2,4.7-3.3,7.1c3.1-3.1,5.9-6.5,8.6-9.9c2.8-3.4,4.8-7.4,6.7-11.3
				c1.5-3,2.8-6.1,4.1-9.1c0.6-1.3,1.1-2.7,1.7-4c0.2-0.4,0.5-0.9,0.7-1.3c0.4-1,1.2-1.8,2.2-2.3c-1.4,0.7-2.8,1.4-4.1,2.1
				c1.8-0.8,3.6-1.6,5.4-2.5c-2.4,0.8-4.9,1.7-7.3,2.5c3.1-0.9,6.1-1.8,9.2-2.6c-2.7,0.5-5.4,1-8.1,1.5c4-0.1,8.1-0.1,12.1-0.2
				c-2.8-0.4-5.5-0.7-8.3-1.1C35.1,8.2,39,9.6,42.9,11c-2.4-1.3-4.9-2.6-7.3-4c2.7,2.7,5.5,5.3,8.4,7.7c1.3,1.3,2.7,2.4,4.2,3.5
				c2.5,1.7,5.2,3.1,7.9,4.5c4.8,2.4,9.8,4.4,14.7,6.7c-0.1-0.1-0.2-0.1-0.3-0.2c0.9,0.5,1.7,1,2.5,1.5c-0.1-0.1-0.2-0.1-0.3-0.2
				c0.4,0.5,0.9,1.1,1.3,1.6c-0.8-1.6-1.5-3.1-2.3-4.7c0.9,2,1.7,3.9,2.6,5.9c-0.9-2.8-1.8-5.5-2.7-8.3c1,3.4,1.9,6.8,2.9,10.2
				c-0.6-3.1-1.1-6.2-1.7-9.2c0.1,4.4,0.2,8.8,0.3,13.2c0.3-3.1,0.7-6.2,1-9.3c-1.4,4.2-2.8,8.4-4.2,12.6c1.3-2.8,2.7-5.5,4-8.3
				c-3.4,3.6-6.6,7.5-9.7,11.4c-2.4,2.9-4.2,6.3-5.9,9.7c-2.5,4.8-4.5,9.9-6.7,14.8c0.1-0.1,0.1-0.2,0.2-0.3
				c-0.7,1.3-1.7,2.5-2.9,3.5c2.3-1.3,4.7-2.6,7-3.8c-2.7,1.3-5.4,2.7-8.2,4c2.7-1.1,5.5-2.2,8.2-3.3c-3.4,1.1-6.7,2.3-10.1,3.4
				c3-0.8,6.1-1.5,9.1-2.3c-4.3,0.3-8.7,0.6-13,0.9c2.8,0.1,5.5,0.2,8.3,0.2c-3.3-0.5-6.7-1.1-10-1.6c-0.2,0-1.4-0.2-0.9,0.3
				c2.5,1,4.9,2,7.4,3.1c0.4,0.1,0.8,0.1,1.2-0.2c1-0.3,2-0.7,2.9-1.1c1.2-0.5,2.4-1,3.6-1.5c0.9-0.3,1.7-0.7,2.4-1.2
				c2-2,3.1-3.7,4.1-6.3c-0.1,0.1-0.1,0.2-0.2,0.3c1.9-3.9,3.2-8,5.1-12c1.3-2.7,2.5-5.5,3.8-8.2c1.3-2.8,2.4-5.6,3.6-8.5
				c-2.1,2.6-4.3,5.2-6.4,7.8c0.9-0.4,1.9-0.4,2.7,0.2c0.4-0.2,0.6-0.5,0.7-0.9c1.5-2.8,3.1-5.6,4.6-8.4c0.1-0.4,0.1-0.8-0.1-1.2
				c-0.3-1-0.6-2-0.9-2.9c-0.4-1.2-0.8-2.4-1.2-3.7c-0.2-0.9-0.6-1.7-1-2.5c-1.5-1.5-1.4-1.5-2.8-2.4c-1.1-0.8-2.3-1.2-3.5-1.7
				c-2.2-1-4.4-2-6.7-2.8c-4.1-1.6-8-3.5-12-5.3c-3.2-1.5-6.5-2.7-9.7-4.2c2.2,2,4.5,4,6.7,6.1c-0.4-0.8-0.3-1.6,0.2-2.4
				c0.2-0.8-5.8-3.4-6.1-3.6c-1.1-0.5-2.2-1.1-3.3-1.6c-1-0.5-2.7,0.6-3.7,0.9c-1.1,0.4-2.1,0.7-3.2,1.1c-0.8,0.2-1.5,0.5-2.2,0.9
				c-1.2,1-2.2,2.2-3,3.6c-0.4,0.9-0.8,1.7-1.1,2.6c-0.7,1.5-1.3,2.8-1.9,4.3c-1.7,4.3-3.6,8.6-5.6,12.7c-1.8,3.7-3.4,7.4-5.1,11.1
				c1.9-2.1,3.7-4.3,5.6-6.4c-0.7,0.2-1.3,0.2-1.8,0.7c-0.3,0.3-0.5,0.5-0.7,0.8c-1.8,2.5-3.5,5-5.2,7.5c-0.1,0.4-0.1,0.7,0.1,1.1
				c0.3,0.9,0.6,1.7,1,2.6c0.4,1.1,0.9,2.1,1.3,3.2c0.3,0.8,0.6,1.5,1.1,2.1c1.2,1.2,2.3,2.2,3.8,3c1,0.6,2.2,0.9,3.3,1.4
				c2.8,1.4,5.8,2.2,8.7,3.3c6.8,2.6,13.5,5.4,20.2,8.3c0.1-0.4,0-0.7-0.2-1.1c-0.6-1.2-1.1-2.4-1.8-3.6
				C43.8,65.5,42.7,62.5,41.6,62.1z"/>
			<path opacity="0.1091" fill="#000033" d="M42.1,58.6c-5.6-2-11.3-4-16.9-6.1c-3.4-1.3-6.9-2.6-10.4-3.8C11.6,47.5,9.2,47,7.6,43
				c0.3,1.2,0.6,2.5,1,3.7c1-3.3,2.1-6.5,3.1-9.8c-0.2,0.1-0.3,0.2-0.5,0.3c2.3-0.1,4.4-2.1,6.2-3.4c1.5-1.1,3-2.4,4.1-3.8
				c1.1-1.5,2.2-3.3,3.1-4.9c2.1-3.7,3.9-7.7,5.6-11.6c1.3-3.1,2.3-6.3,5.1-8.4c-1,0.5-1.9,1.1-2.9,1.6c1.6-0.8,3.2-1.5,4.9-2.3
				c-1.3,0.5-2.5,1-3.8,1.4c3.9-1,7.5,0.2,10.8,3.7C44.1,9.3,44,9.1,43.9,9c0.1,2.5,2.1,4.9,3.7,6.7c1.7,2,2.9,3.2,5.2,4.5
				c3.5,2,7.1,3.8,10.8,5.5c2.2,1,4.5,2,6.7,3c2.3,1,3.7,1.6,5.5,4c-0.5-0.8-0.9-1.6-1.4-2.4c0.9,7.2-0.8,11.3-5.1,12.2
				c-0.4,0.1-0.9,0.2-1.3,0.4c-1.3,0.5-3,1.7-4.1,2.5c-0.7,0.5-1.5,1.1-2.1,1.8c-1.1,1.1-1.8,2.7-2.5,4.1c-2.1,3.9-4,7.9-5.8,12
				c-1.5,3.4-2.4,7.3-5.7,9.5c0.6-0.3,1.2-0.5,1.8-0.8c-1.1,0.4-2.1,0.7-3.2,1.1c0.6-0.2,1.2-0.3,1.9-0.5c-4.1,0-6.2-1-9.4-4.7
				c-0.3-0.3-1.5-1.3-2-1.3c-0.4,0-0.6,0.1-0.3,0.5c1.8,3,4,5.5,7.5,6.4c2.2,0.6,4.4,0,6.3-1.2c2.8-1.7,3.7-5,4.9-7.9
				c1.4-3.4,2.9-6.7,4.4-10.1c1.6-3.6,3.5-9.3,8.1-10c3-0.5,1,1.5,4.6-1.2c2.2-1.6,3.7-3.8,4.4-6.4c0.5-2.3,0-4.2-1.3-6.2
				c-1.8-2.6-4-3.6-6.7-4.7C62,22.9,55.5,20,49.3,16.6c0.5,0.5,1,0.9,1.4,1.4c-2.1-2.3-3.3-4.9-3.5-7.8c-0.9-1.6-2.1-3.1-3.5-4.3
				c-1.3-1-3-1.9-4.6-2.1c-3.1-0.4-6.7,1.3-8.8,3.5c-2.2,2.3-3.3,5.6-4.4,8.5c-2.8,6.8-5.7,14.1-11.3,19c1-0.7,2-1.5,3-2.2
				c-1.1,0.6-3.1,0-4.2,0.5c-1.5,0.6-3.1,2.1-4.1,3.3c-1.4,1.8-2.3,4.1-2.2,6.4c0.1,2.9,1.6,6,4.1,7.5c1.4,0.8,3,1.5,4.5,2.1
				c3.3,1.3,6.7,2.4,9.9,3.6c5.9,2.3,11.8,4.4,17.7,6.6c0.7,0.2,0.2-1.1,0.1-1.2C43.2,61,42.7,58.8,42.1,58.6z"/>
			<path opacity="0.1091" fill="#000033" d="M41.7,59.6c-5.7-2.1-11.4-4.2-17-6.4c-3.4-1.3-6.9-2.5-10.4-3.8
				c-2.1-0.8-3.9-1.4-5.8-2.5c0.1,0.1,0.2,0.2,0.3,0.3c-0.4-0.5-0.9-1.1-1.3-1.6c1.7,3.8,3.4,7.6,5.1,11.4
				C10.8,51.9,8.9,46.8,7,41.7c0.9,3.9,1.8,7.9,2.7,11.8c-0.6-4.2-1.3-8.5-1.9-12.7c0.3,4,0.6,7.9,1,11.9c0.5-5.2,0.9-10.3,1.4-15.5
				C9.4,41,8.6,44.8,7.8,48.5c1.8-4.1,3.6-8.2,5.4-12.3c-1.5,3-3,6-4.5,9c1.6-2.5,3.1-5,4.7-7.5c-1.4,2.2-2.8,4.4-4.2,6.6
				c3.7-5.3,7.9-10.4,11.2-16c1.8-3,3.3-6.2,4.8-9.4c1.7-3.6,3.1-7.2,4.8-10.8c-0.1,0.1-0.1,0.2-0.2,0.3c0.7-1.3,1.7-2.5,2.9-3.5
				c-3.1,2-6.2,3.9-9.3,5.9c3.5-2,6.9-4,10.4-5.9c-2.9,1.5-5.8,2.9-8.8,4.4c3.5-1.5,7.1-3,10.6-4.5c-3.2,1.1-6.5,2.2-9.7,3.3
				c4.5-0.7,9-1.4,13.5-2.1c-3.2,0.2-6.5,0.3-9.7,0.5c4.3,0.8,8.6,1.7,12.9,2.5c-2.9-0.9-5.7-1.8-8.6-2.7c6.4,4,12.2,8.7,18.9,12.1
				c2.7,1.4,5.4,2.7,8.2,4c2.3,1,4.6,1.9,6.9,2.9c2.4,1,4.1,1.8,5.9,3.9c-1.2-2-2.3-4.1-3.5-6.1c1.3,2.5,2.5,4.9,3.8,7.4
				c-1-2.4-2-4.8-3-7.2c1.1,3,2.1,6.1,3.2,9.1c-0.6-2.4-1.2-4.9-1.9-7.3c0.5,3.1,1,6.2,1.6,9.3c-0.2-2.5-0.5-5-0.7-7.5
				c0,3.1-0.1,6.3-0.1,9.4c0.2-2.8,0.5-5.5,0.7-8.3c-1.2,3.9-2.4,7.8-3.7,11.7c1.3-2.5,2.5-5,3.8-7.4c-4.2,5.1-8.8,9.5-12.1,15.2
				c-1.8,3.2-3.4,6.4-5,9.7c-2,4.2-3.6,8.7-6,12.7c0.1-0.1,0.1-0.2,0.2-0.3c-1.2,0.7-2.4,1.4-3.6,2c3.2-0.9,6.5-1.7,9.7-2.6
				c-4.6,0.7-9.1,1.4-13.7,2.2c3.3,0,6.7,0.1,10,0.1c-3.7-0.4-7.5-0.7-11.2-1.1c3.1,0.5,6.2,1.1,9.3,1.6c-3.7-1-7.4-1.9-11.1-2.9
				c3,1,5.9,2.1,8.9,3.1c-3.7-2-7.5-3.8-11.4-5.3c-0.1,0-0.2,0-0.4,0c-0.2,0.4,2.4,1.7,2.7,1.9c-1.5-0.8,14.9,2.9,19.7-1.2
				c1.4-1.2,1.8-3.5,2.6-5.1c2-4.1,3.4-8.5,5.3-12.7c1.3-2.8,2.4-5.7,3.5-8.5c1-2.3,1.4-4.9,2.3-7.3c-2,2.3-4,4.6-6,6.8
				c0.8-0.4,1.5-0.4,2.3,0.1c0.4,0.1,1.6-2.5,1.5-2.1c0.9-1.8,1.9-3.6,2.6-5.4c0.2-0.6,0.4-1.2,0.6-1.8c0.4-1-0.7-2.7-1.1-3.6
				c-0.4-1.1-0.9-2.1-1.3-3.2c-0.3-0.8-0.6-1.5-1.1-2.1c-1.1-1.1-2.2-2.2-3.6-3c-0.7-0.4-1.6-0.6-2.3-1c-1.3-0.6-2.5-1.2-3.8-1.7
				c-3.3-1.3-6.6-2.6-9.9-4.1c-1.9-0.9-3.9-1.7-5.8-2.5c-0.9-0.4-1.9-0.8-2.8-1.2c-2.4-1.1-5-1.9-7.6-2.5c2.7,1.7,5.3,3.3,8,5
				c-1-4.6-1.7-2.5-8.7-7.7c-0.5-0.1-0.9,0-1.3,0.3c-1.1,0.5-2.1,1-3.1,1.5C29,6.4,27.7,7,26.4,7.7c-0.9,0.4-1.8,0.9-2.6,1.5
				c-2,2.1-3,3.8-4.1,6.4c0.1-0.1,0.1-0.2,0.2-0.3c-1.5,3.2-2.8,6.5-4,9.9c0.1-0.1,0.1-0.2,0.2-0.3c-1.2,2.8-2.5,5.5-3.6,8.3
				c-1.2,2.8-2.3,5.4-3,8.3c2.4-2.8,4.8-5.6,7.1-8.3c-3.2,2.8-6.5,5.6-9.7,8.4c-0.2,0.5-0.2,1,0,1.5c0.3,1.8,0.7,3.6,1.1,5.4
				c0.4,1.8,0.8,3.6,1.3,5.4c0.1,0.5,0.3,1,0.6,1.4c1.9,2.3,3.7,4,6.5,5.2c0.8,0.3,1.5,0.6,2.3,1c1.9,0.9,3.8,1.5,5.7,2.2
				c7.7,2.8,15.3,6,22.9,9.3c0.1-0.5,0-1-0.3-1.5c-0.7-1.8-1.4-3.5-2.1-5.2c-0.7-1.7-1.5-3.5-2.2-5.2C42.4,60.3,42.1,59.9,41.7,59.6
				z"/>
			<path opacity="0.1091" fill="#000033" d="M42,63.4c-5.5-2-11-4.1-16.6-6.2c-3.4-1.3-6.9-2.6-10.3-3.8c-2.8-1-4.9-1.7-7.1-4.1
				c1,1.7,2,3.3,3,5c-1.1-2.1-2.3-4.2-3.4-6.3c0.8,2,1.6,3.9,2.5,5.9c-0.9-2.6-1.7-5.2-2.6-7.8c0.5,2,1,4,1.5,6
				c-0.4-2.6-0.8-5.3-1.2-7.9c0.2,2,0.3,4,0.5,6c0.1-2.7,0.2-5.3,0.4-8c-0.2,2-0.4,4-0.6,6c0.6-2.6,1.3-5.2,1.9-7.8
				c-0.6,1.9-1.2,3.8-1.7,5.7c1.2-2.4,2.4-4.8,3.5-7.3c-1.1,1.9-2.2,3.9-3.3,5.8c3.7-3.1,7.7-6.8,10.5-10.9c1.7-2.4,3.1-5.2,4.4-7.8
				c1.7-3.3,3.2-6.7,4.7-10.2c1.3-3.1,2.4-6.5,5.9-8c-2,0.5-3.9,1-5.9,1.5c2.6-0.5,5.2-1.1,7.8-1.6c-2.5,0.3-5,0.5-7.6,0.8
				c3.2-0.1,6.4-0.2,9.6-0.4c-2.6-0.1-5.1-0.3-7.7-0.4C33.5,8.1,36.8,8.6,40,9c-2.9-0.6-5.7-1.3-8.6-1.9c4,1.7,8,3.5,12,5.2
				c-2.6-1.6-5.2-3.2-7.8-4.9c5,4.8,9.4,10.3,15.4,13.9c3.1,1.9,6.4,3.5,9.7,5.1c4.3,2,8.7,3.6,12.8,6.1c-0.1-0.1-0.2-0.1-0.3-0.2
				c0.4,0.5,0.8,1.1,1.3,1.6c-1.5-3.4-3-6.8-4.5-10.1c1.7,4.7,3.4,9.4,5.1,14c-0.8-3.5-1.5-7-2.3-10.6c0.5,3.9,1,7.7,1.5,11.6
				c-0.2-3.5-0.4-7.1-0.7-10.6c-0.6,4.8-1.2,9.5-1.7,14.3c0.8-3.3,1.6-6.7,2.3-10c-1.8,3.7-3.6,7.4-5.5,11.1
				c1.4-2.6,2.9-5.3,4.3-7.9C68.6,42,63.5,47.2,59.9,54c-1.4,2.7-2.8,5.4-4,8.1c-1,2.2-1.9,4.5-2.9,6.8c-0.8,1.9-1.6,3.8-3.3,5.2
				c2.5-1.6,5.1-3.2,7.6-4.8c-3.1,1.8-6.3,3.6-9.4,5.5c2.9-1.4,5.7-2.8,8.6-4.2c-4.1,1.3-8.3,2.5-12.4,3.8c2.6-0.5,5.2-1.1,7.8-1.6
				c-2.7,0.2-5.4,0.4-8.1,0.6c2.3-0.1,4.6-0.1,6.9-0.2c-2.9-0.3-5.8-0.6-8.6-0.9c2.1,0.3,4.2,0.6,6.4,1c-2.7-0.8-5.3-1.7-8-2.5
				c0.3,0.1-2.9-1-2.2-0.2c0.4,0.7,0.9,1.4,1.6,1.9c3,0.9,6.1,1.8,9.2,2.5c0.4,0,0.8-0.1,1.2-0.4c0.9-0.5,1.8-1.1,2.7-1.6
				c1.1-0.7,2.2-1.4,3.3-2.1c0.8-0.5,1.5-1,2.2-1.6c2.4-3.5,3.9-7.5,5.4-11.4c0,0.1-0.1,0.2-0.1,0.3c1.2-3.2,2.7-6.3,4.2-9.4
				c0.7-1.4,1.3-2.7,2-4.1c1.4-3.2,3.3-6,5.8-8.5c0.1-0.5,0.1-0.9-0.1-1.4c-0.3-1.1-0.7-2.3-1-3.4c-0.4-1.4-0.9-2.8-1.4-4.2
				c-0.3-1-0.7-1.9-1.1-2.9c-0.6-0.6-1.2-1.3-1.9-1.9c-1.5-1.2-2.9-1.6-4.5-2.4c-2.2-1-4.3-1.9-6.6-2.8c-3.7-1.4-7.2-3.1-10.7-4.7
				c-2.1-1-4.2-2-6.4-2.8C40,9.3,38.6,8.6,37.1,8c2.4,2.5,4.9,5,7.3,7.5c-0.5-1-0.4-1.9,0.1-2.8c-0.4-0.9-1-1.7-1.8-2.4
				c-0.7-0.4-1.4-0.8-2.2-1.1c-1.1-0.5-2.2-0.9-3.3-1.3c-0.9-0.4-2.8-1.5-3.8-1.1c-4.8,2.1-8.6,2.1-10.8,6.4c-1,2.1-2,4.4-2.9,6.6
				c-1.5,3.9-3.1,7.7-4.9,11.4c-1.9,4-3.7,8.1-5.8,12.1c1.7-1.7,3.5-3.4,5.2-5.2c-0.8,0-1.6,0-2.4,0c-0.9-0.2-3.4,5.4-3.6,5.9
				c-0.4,1.1-0.8,2.3-1.3,3.4c-0.3,0.9,0.5,2.2,0.9,3c0.5,1.3,1,3.3,2,4.3c1.4,1.5,2.8,2.7,4.8,3.5c0.6,0.3,1.2,0.5,1.9,0.8
				c3.3,1.5,6.8,2.5,10.2,3.9c6.3,2.5,12.6,5,18.9,7.6c0.3,0.1,0.2,0.1,0.3-0.2c0.2-0.7-0.9-2-1.2-2.6c-0.5-1-1.1-2.1-1.7-3.1
				C42.8,64.1,42.5,63.5,42,63.4z"/>
			<path opacity="0.1091" fill="#000033" d="M41,57.7c-5.2-2-10.4-3.9-15.6-5.8c-3.6-1.3-7.2-2.7-10.8-4c-3-1.1-5.6-1.7-7.7-4.4
				c0.8,1.7,1.6,3.5,2.5,5.2c-0.9-2.2-1.8-4.4-2.7-6.5c0.6,2,1.3,4,1.9,6.1c-0.5-2.3-1-4.5-1.5-6.8c0.3,1.6,0.6,3.2,0.9,4.8
				c0.1-1.8,0.2-3.6,0.3-5.4c-0.1,0.6-0.2,1.2-0.3,1.8c0.8-1.6,1.5-3.2,2.3-4.8c-0.2,0.2-0.4,0.3-0.6,0.5c0.9-0.2,1.6-0.7,2.3-1.3
				c2.1-1.6,4.1-3.8,5.9-5.8c2.8-3,4.9-6.5,6.7-10.1c2.8-5.5,4.6-11.4,7.9-16.6c-0.7,0.6-1.4,1.3-2.1,1.9c1.2-0.9,2.3-1.9,3.5-2.8
				c-1.3,0.9-2.5,1.7-3.8,2.6c1.7-0.9,3.3-1.8,5-2.7c-1.2,0.5-2.3,1.1-3.5,1.6C42.8,2.8,41.7,7.2,44.8,12c0.6,1,1.3,1.9,2.1,2.8
				c0.6,0.8,1.3,1.6,2,2.3c0.8,0.7,1.9,1.2,2.8,1.8c5,2.9,10.3,5.2,15.6,7.5c1.3,0.6,2.6,1.1,3.9,1.7c4,1.8,3.5,5.5,2.1,8.4
				c-0.9,1.9-2.2,3.2-4.1,4c-0.7,0.3-1.6,0.5-2.3,0.9c-2.7,1.4-5.2,3-6.8,5.6c-2.8,4.4-5.1,9.2-7.2,14.1c-1.5,3.5-2.6,7.4-5.8,9.9
				c0.3-0.2,0.7-0.3,1-0.5c-0.9,0.3-1.7,0.6-2.6,0.9c1-0.2,1.9-0.3,2.9-0.5c-1.3,0.1-2.7,0.2-4,0.3c1,0,2,0,3,0
				c-1.7-0.2-3.3-0.4-5-0.6c1,0.2,2.1,0.3,3.1,0.5c-2-1.1-4.1-2.3-6.1-3.4c-0.7-0.6-2-1.8-2.9-2.1c-0.1,0-1-0.4-0.6,0.1
				c2,3,4.7,6.1,8.5,6.2c3.2,0.1,6.5-0.7,8.4-3.5c0.6-0.9,1.1-2.1,1.5-3.1c1.2-2.6,2.1-5.4,3.3-8c2.4-5.6,4.8-12.1,10.2-15.4
				c-0.6,0.3-1.1,0.5-1.7,0.8c3.9-0.7,1.5,1.4,5-1.2c1.4-1.1,2.4-2.2,3.3-3.8c1.3-2.5,1.6-5,0.2-7.5c-1.2-2.2-3-3.5-5.3-4.5
				c-7.1-3-14.2-6.1-21-9.7c0.4,0.3,0.8,0.7,1.1,1c-2.3-2.4-3.5-5.1-3.7-8.1c-1-1.6-2.2-3-3.6-4.2c-1.6-1.2-4.4-2.4-6.5-2.2
				c-2.2,0.2-4.6,1.9-6.2,3.3c-2.6,2.2-3.8,5.6-5.1,8.6c-2.9,7.1-5.9,14.7-11.2,20.3c1-1,2.1-1.9,3.1-2.9c-0.9,0.5-1.7,1.1-2.8,1.1
				c-0.5-0.6-1-0.8-1.5-0.5c-0.5,0.2-0.9,0.4-1.2,0.8c-2.6,1.8-4.6,4.4-4.9,7.6c-0.2,2.2,0.7,4.4,1.5,6.5c0.9,2.5,2.6,4.3,5.1,5.5
				c1.2,0.6,2.4,1.2,3.6,1.7c3.3,1.4,6.7,2.4,10.1,3.7c3.7,1.5,7.5,2.8,11.2,4.3c2.3,0.9,4.5,2,6.7,3c0.1-0.3,0.1-0.6-0.1-0.9
				c-0.4-1-0.7-2-1.2-3C42.6,60.6,42,58.1,41,57.7z"/>
			<path opacity="0.1091" fill="#000033" d="M42.6,62.8c-5.6-2.1-11.3-4.3-16.9-6.4c-3.4-1.3-6.9-2.6-10.3-3.8
				c-2-0.7-3.9-1.5-5.8-2.5c0.1,0.1,0.2,0.1,0.3,0.2c-0.4-0.5-0.9-1.1-1.3-1.6c1,1.9,1.9,3.7,2.9,5.6c-1-2.2-2.1-4.4-3.1-6.6
				c1.2,3.3,2.4,6.5,3.7,9.8c-1.3-4.9-2.5-9.7-3.8-14.6c0.4,3.7,0.8,7.4,1.2,11.1c0-4-0.1-8-0.1-12c-0.2,3.7-0.5,7.5-0.7,11.2
				c1.3-5.2,2.6-10.3,3.9-15.5c-1.6,3.7-3.1,7.5-4.7,11.2c4.3-6,9.1-12,12.7-18.6c1.7-3.1,3.3-6.3,4.8-9.5c2-4.3,3.6-8.7,6-12.8
				c-0.1,0.1-0.2,0.2-0.2,0.3c0.5-0.4,1.1-0.9,1.6-1.3c-2,1-4,1.9-6,2.9c2.3-1,4.6-2.1,6.9-3.1c-3.5,1.2-7,2.4-10.5,3.6
				C28.1,9.3,33.2,8,38.3,6.8c-3.9,0.3-7.9,0.7-11.8,1c4.3,0,8.5,0,12.8,0c-4-0.3-8-0.6-12-0.9c5.4,1.4,10.9,2.8,16.3,4.2
				c-4-1.7-8-3.3-12-5c7.3,5.1,14.1,10.6,22,14.6c2.7,1.4,5.5,2.8,8.3,4c3.9,1.8,7.8,3.2,11.5,5.4c-0.1-0.1-0.2-0.2-0.3-0.2
				c0.4,0.5,0.9,1.1,1.3,1.6c-1.9-3.8-3.8-7.6-5.7-11.4c2.1,5.1,4.2,10.1,6.3,15.2c-1.1-4.3-2.2-8.7-3.3-13c0.6,5.7,1.2,11.3,1.8,17
				c0.1-4.4,0.1-8.9,0.2-13.3c-1.2,5.5-2.4,11-3.6,16.5c1.5-4.1,2.9-8.1,4.4-12.2c-4.6,7-9.7,14.1-13.6,21.6
				c-1.2,2.4-2.4,4.8-3.5,7.2c-2,4.3-3.5,8.7-5.9,12.7c0.1-0.1,0.1-0.2,0.2-0.3c-0.5,0.4-1.1,0.9-1.6,1.3c3.5-1.9,7.1-3.8,10.6-5.7
				c-4.8,2.2-9.6,4.3-14.4,6.5c4-1.2,8.1-2.3,12.1-3.5c-5.4,0.7-10.7,1.4-16.1,2c3.8,0,7.6-0.1,11.4-0.1c-4.2-0.6-8.4-1.1-12.6-1.2
				c-0.3-0.1-0.6,0-0.9,0.1c-0.1,0.5,4.1,1,3.3,0.9c5.5-1,11.1-2,16.6-3c0.6-0.6,1.2-1.2,1.7-1.9c1.3-1.7,1.5-2.9,2.4-4.8
				c1.4-3.1,2.5-6.3,3.8-9.4c1.2-2.9,2.4-5.6,3.5-8.5c0.4-1,0.7-2,1.1-3c0.8-1.7,1.3-3.5,1.3-5.4c-2.6,2.9-5.2,5.8-7.8,8.7
				c3.1-2.9,6.1-5.8,9.2-8.7c0.1-0.5,0.1-1-0.1-1.5c-0.4-1.8-0.8-3.6-1.3-5.5c-0.5-1.8-0.9-3.6-1.5-5.4c-0.1-0.5-0.3-1-0.7-1.4
				c-1.4-1.5-2.8-2.9-4.6-3.9c-1.2-0.7-2.4-1.1-3.6-1.6c-0.8-0.4-1.5-0.8-2.3-1.1c-3.2-1.4-6.6-2.4-9.8-3.8
				c-4.8-2.1-9.8-3.8-14.8-5.3c-0.5-0.2-1-0.2-1.5,0c-1.8,0.3-3.6,0.7-5.3,1c-1.8,0.4-3.5,0.8-5.3,1.2c-0.5,0-1,0.2-1.3,0.6
				c-1.1,1.1-2.3,2.2-3.3,3.5c-1.2,1.5-1.6,3.2-2.3,4.9c-1.4,3-2.5,6.1-3.7,9.2c-1.1,2.9-2.4,5.6-3.4,8.5c-1.2,3.3-3.3,8-3,11.5
				c0.4,3.5,2.2,7,3.5,10.2c0.3,0.8,0.6,1.5,1.2,2.2c0.8,1,2.9,2.3,3.9,2.8c2.6,1.2,5.4,2.3,8.1,3.3c8.1,2.9,16.1,6.3,24,9.8
				c0.1-0.5,0-0.9-0.3-1.4c-0.7-1.6-1.4-3.2-2.1-4.8c-0.7-1.6-1.5-3.1-2.3-4.7C43.2,63.4,43,63,42.6,62.8z"/>
			<path opacity="0.1091" fill="#000033" d="M41.1,59.6c-5.2-1.9-10.3-3.8-15.5-5.7c-3.6-1.3-7.2-2.7-10.8-4
				c-2.9-1.1-5.6-1.7-7.7-4.4c1.1,2.1,2.1,4.1,3.2,6.2c-1.2-2.5-2.3-4.9-3.5-7.4c0.9,2.4,1.8,4.8,2.7,7.2c-0.9-3.1-1.8-6.1-2.7-9.2
				c0.6,2.4,1.1,4.8,1.7,7.2c-0.3-2.6-0.7-5.2-1-7.7c0.2,1.9,0.3,3.8,0.5,5.7C8,45,8.1,42.5,8.3,39.9c-0.1,1.9-0.3,3.8-0.4,5.7
				c0.4-1.8,0.8-3.7,1.2-5.5C8.7,41.4,8.3,42.7,8,44c0.8-1.9,1.7-3.8,2.5-5.7c-0.7,1.2-1.3,2.5-2,3.7c0.8-0.3,1.5-0.9,2-1.7
				c3.2-3.1,6.1-6.4,8.7-9.9c2.2-3.2,4-6.7,5.7-10.2c1.5-3.1,2.8-6.3,4.2-9.4c0.9-2.1,1.6-3.8,3.5-5.4C31,6.3,29.6,7.2,28.2,8
				c2.1-1.1,4.1-2.2,6.2-3.3c-1.9,0.9-3.8,1.7-5.6,2.6c2.1-0.7,4.3-1.4,6.4-2.1c-1.5,0.4-3,0.9-4.5,1.3C33.8,6.9,36.9,7.5,40,8
				c-0.4-0.3-0.9-0.5-1.3-0.8c0.2,0.4,0.3,0.6,0.5,0.9c1.6,2.2,3.8,4.1,5.7,6c3.2,3.2,7,5.5,11,7.5c3.3,1.7,6.8,3.2,10.2,4.7
				c3,1.3,5.6,2.2,7.8,4.8c-0.7-1.4-1.5-2.7-2.2-4.1c0.9,1.9,1.7,3.7,2.6,5.6c-0.6-1.6-1.1-3.2-1.7-4.9c0.6,2.3,1.1,4.5,1.7,6.8
				c-0.3-1.6-0.6-3.3-0.9-4.9c0.1,2,0.2,3.9,0.3,5.9c0-1.3,0-2.6,0-3.9c-0.3,2-0.6,3.9-0.8,5.9c0.2-1.3,0.5-2.6,0.7-3.9
				c-0.7,1.9-1.3,3.8-2,5.7c0.5-1.2,1-2.4,1.4-3.7c-1.1,1.8-2.1,3.5-3.2,5.3c0.9-1.3,1.7-2.5,2.6-3.8c-0.7,0.2-1.1,0.7-1.7,1.1
				c-2,1.7-4.2,3.3-6.1,5.2c-2.8,2.7-4.6,5.8-6.4,9.2c-2,3.7-3.7,7.6-5.4,11.5c-0.6,1.4-1.2,2.9-1.9,4.2c-0.2,0.4-0.5,0.9-0.7,1.3
				c-0.4,1-1.2,1.8-2.2,2.3c1.2-0.5,2.4-1.1,3.6-1.6c-1.6,0.7-3.3,1.3-4.9,2c2.1-0.6,4.2-1.1,6.3-1.7c-2.8,0.6-5.5,1.2-8.3,1.7
				c2.1-0.3,4.3-0.5,6.4-0.8c-2.8,0.1-5.6,0.2-8.5,0.3c2.2,0,4.3,0.1,6.5,0.1c-2.4-0.3-4.8-0.7-7.1-1c1.7,0.3,3.5,0.7,5.2,1
				c-2.3-0.7-4.7-1.5-7-2.2c1.6,0.6,3.3,1.2,4.9,1.8c-2.2-1.2-4.3-2.4-6.5-3.6c0.5,0.3-2.7-1.5-2-0.6c0.9,1.5,2,2.7,3.4,3.7
				c0.6,0.6,3.3,0.8,3.9,0.9c1.1,0.2,2.9,0.9,4,0.5c2-0.7,3.9-1.4,5.9-2.2c1.7-0.7,2.1-0.9,3.2-2.8c0.8-1.3,1.6-3.2,2.2-4.7
				c1.8-4,3.1-8.1,5-12c2.1-4.2,4.2-8.5,7.2-12.1c-1.5,1.2-3,2.5-4.4,3.7c0.9,0.2,1.9,0.3,2.8,0c1.5-0.9,2.7-2,3.7-3.4
				c1.2-1.9,2.1-4.5,1.6-6.7c-0.6-3-1.9-5.9-4.3-7.8c-2.7-2.1-6.7-3.4-9.8-4.6C53.6,17,46.6,13.4,40.4,8.5c1.3,1.2,2.5,2.4,3.8,3.6
				c0.4-1,0.4-1.9,0.1-2.8c-0.9-1.4-2.1-2.6-3.4-3.6c-0.2,0-0.4-0.1-0.5-0.1c-2.9-1.5-5.6-1.7-8.2-0.7c-1.5,0.6-3,1.7-4.4,2.5
				c-1.7,1.1-2.7,2.4-3.6,4.2c-1.6,3.4-2.9,7-4.4,10.4c-2.5,5.7-5.5,11.3-8.8,16.5c1.6-1.6,3.1-3.2,4.7-4.9
				c-1.1,1.2-2.2,1.5-3.3,0.9c-0.3-0.3-0.6-0.4-0.9-0.1c-0.6,0.5-1.2,0.9-1.8,1.4c-2.2,1.8-3.4,4.3-3.5,7.7c-0.4,1,0.6,2.7,0.9,3.6
				c0.4,1.1,0.8,2.1,1.2,3.2c0.2,0.8,0.6,1.5,1,2.1c1.2,1.3,2.2,2.2,3.6,3.1c1,0.6,2.2,0.9,3.3,1.5c2.8,1.4,5.8,2.2,8.7,3.3
				c6.8,2.6,13.6,5.3,20.3,8.2c0.1-0.4,0.1-0.7-0.2-1.1c-0.5-1.2-1-2.4-1.6-3.6c-0.5-1.2-1.1-2.3-1.7-3.5
				C41.6,60,41.4,59.7,41.1,59.6z"/>
			<path opacity="0.1091" fill="#000033" d="M41.5,57c-5.7-2-11.3-4.1-16.9-6.2c-3.4-1.3-6.9-2.6-10.4-3.8c-2.7-1-4.8-1.6-6.7-4.1
				c0.5,1.1,1,2.1,1.5,3.2c-0.6-1.5-1.2-3-1.8-4.6c0.5,1.9,1,3.7,1.5,5.6c-0.4-2.1-0.8-4.3-1.2-6.4c0.2,1.5,0.4,3,0.6,4.4
				c0.2-1.8,0.3-3.5,0.5-5.3c-0.1,0.5-0.3,1.1-0.4,1.6c0.8-1.6,1.6-3.1,2.4-4.7c-0.2,0.2-0.4,0.3-0.6,0.5c2.7-0.5,4.9-3.3,6.9-5.1
				c1.3-1.2,2.6-2.4,3.7-3.8c1.5-2,2.8-4.3,4-6.5c3.2-5.8,5.1-12.3,8.7-17.9c-0.7,0.7-1.4,1.3-2.1,2c1.2-0.9,2.3-1.9,3.5-2.8
				c-1.3,0.9-2.5,1.7-3.8,2.6c1.7-0.9,3.3-1.8,5-2.7c-1.2,0.5-2.3,1.1-3.5,1.6c5.1-0.9,9.2,0.5,12.2,4c-0.1-0.1-0.1-0.2-0.2-0.4
				c0.1,2.4,1.6,4.5,3,6.3c1.8,2.5,2.5,2.9,5.2,4.4c4.3,2.3,8.8,4.5,13.2,6.4c3.4,1.5,7.3,2.4,9.5,5.8c-0.2-0.4-0.4-0.8-0.7-1.2
				c1.6,4.8-1.2,9.6-5.9,11.2c-0.6,0.2-1.2,0.3-1.8,0.5c-2.1,0.8-4.6,2.4-6.1,4.1c-0.4,0.5-2.6,4.5-2.9,5c-1.4,2.6-2.7,5.3-3.9,8
				c-1,2.2-2,4.4-2.9,6.6c-1.2,2.8-1.7,4.7-5.6,5.8c0.9-0.1,1.8-0.3,2.7-0.4c-1.3,0.1-2.7,0.1-4,0.2c0.8,0,1.5,0,2.3,0
				c-2.5-1.3-5-2.7-7.5-4c-0.4-0.4-1.8-1.9-2.5-1.9c-0.4,0-0.5,0-0.2,0.5c1.8,2.8,4.3,5.8,7.9,6.1c2.7,0.2,5.4-0.2,7.3-2.3
				c0.8-0.9,1.3-2,1.8-3.2c0.8-1.9,1.5-3.7,2.3-5.6c1.5-3.5,3-7,4.7-10.5c1.3-3.9,4.2-6.3,8.7-7.3c0.1,0.1,0.2,0.1,0.3,0
				c3-1.8,5.8-3.8,6.8-7.4c0.6-2,0.4-3.8-0.7-5.6c-0.9-1.4-1.6-2.4-3.1-3.2c-0.9-0.5-1.9-0.8-2.8-1.2c-6.8-2.9-13.6-6-20.3-9.3
				c0.4,0.3,0.9,0.7,1.3,1c-2.1-2.6-3.3-5.4-3.7-8.4c-1-1.7-2.2-3.2-3.6-4.5c-1.6-1.2-4.5-2.5-6.5-2.3c-2.3,0.2-4.6,1.9-6.2,3.3
				c-2.5,2.2-3.8,5.6-5.1,8.6c-2.9,7-5.9,14.6-11.4,20c0.9-0.8,1.8-1.7,2.7-2.5c-0.4,0.2-0.8,0.4-1.2,0.7c-0.9-0.1-1.8-0.2-2.7-0.4
				c-0.7,0.1-1.9,1.2-2.4,1.6c-2.4,2-3.9,4.8-3.9,7.9c0,1.7,0.7,3.5,1.2,5c0.8,2.5,2.6,4.2,5,5.3c1.2,0.5,2.3,1.2,3.5,1.7
				c3.7,1.6,7.6,2.7,11.3,4.2c5.5,2.2,11,4.2,16.4,6.4c0.2,0.1-0.9-3.6-0.9-3.5C42.8,59.6,42.3,57.3,41.5,57z"/>
			<path opacity="0.1091" fill="#000033" d="M42,63.3c-10.3-3.9-20.7-7.7-31.1-11.6c0.1,0,0.2,0.1,0.3,0.1C10.1,50.9,9,50,7.9,49.1
				c1.3,2.2,2.6,4.5,3.9,6.7C10.4,53.3,9,50.6,7.6,48c1.1,2.6,2.3,5.3,3.4,7.9c-1.2-3.2-2.4-6.5-3.6-9.7C8.2,49.1,9,52,9.8,55
				C9.4,50.8,9,46.5,8.6,42.3c-0.1,3-0.3,6-0.4,9c1.1-4.1,2.2-8.2,3.3-12.3c-1.2,2.7-2.4,5.4-3.6,8c3.9-5.3,8.5-10.1,11.7-15.8
				c1.8-3.2,3.4-6.5,4.9-9.7c2-4.2,3.6-8.7,5.9-12.7c-0.1,0.1-0.1,0.2-0.2,0.3c0.5-0.4,1.1-0.9,1.6-1.3c-0.8,0.4-1.6,0.8-2.5,1.2
				c1.2-0.5,2.4-1,3.6-1.5c-2.3,0.7-4.5,1.4-6.8,2.1C29.2,8.7,32.1,8,35,7.2c-2.9,0.5-5.8,0.9-8.7,1.4c3.6-0.4,7.2-0.7,10.7-1.1
				c-3,0-5.9,0.1-8.9,0.1c3.6,0.2,7.3,0.5,10.9,0.7c-3.3-0.5-6.6-1-9.9-1.5c4.7,2.5,9.4,5,14.1,7.5c-2.1-1.8-4.3-3.5-6.4-5.3
				c4.4,3.9,8.4,8,13.5,10.9c2.8,1.6,5.6,3.1,8.5,4.4c4.7,2.3,9.7,4,14.2,6.7c-0.1-0.1-0.2-0.2-0.3-0.2c0.4,0.5,0.9,1.1,1.3,1.6
				c-0.9-2-1.8-3.9-2.7-5.9c1,2.3,1.9,4.6,2.9,6.9c-1.2-3.8-2.3-7.5-3.5-11.3c0.8,6.1,1.6,12.2,2.3,18.2c0.3-4.2,0.6-8.4,0.9-12.6
				c-1.4,4.9-2.7,9.9-4.1,14.8c1.5-3.5,2.9-6.9,4.4-10.4C70.1,38.5,65,44,61.3,50.4c-1.3,2.3-2.5,4.7-3.7,7.1
				c-2.1,4.3-3.9,8.8-5.9,13.2c0.1-0.1,0.1-0.2,0.2-0.3c-0.5,0.9-1,1.7-1.5,2.6c0.3-0.3,0.7-0.7,1-1c-0.8,0.6-1.6,1.3-2.4,1.9
				c2.7-1.6,5.4-3.1,8.1-4.7c-3,1.6-6.1,3.2-9.1,4.8c3.1-1.4,6.3-2.8,9.4-4.3c-3.8,1.4-7.5,2.9-11.3,4.3c3.5-1.1,7-2.1,10.4-3.2
				c-4.8,0.6-9.5,1.2-14.3,1.9c3.5-0.1,7-0.1,10.5-0.2c-4.6-0.9-9.1-1.9-13.7-2.8c-0.3-0.1-1.5-0.4-1,0.2c7.3-0.6,14.7-1.2,22-1.8
				c0.1-0.1,0.1-0.2,0.2-0.3c0.9-1.1,1.3-2,1.8-3.2c0.8-1.9,1.7-3.7,2.4-5.7c1.3-3.5,2.8-7,4.3-10.4c1.5-3.6,3.2-7.1,4-11
				c0,0.1-0.1,0.2-0.1,0.4c0.7-1,1.4-1.9,2.1-2.9c0.1-0.5,0.1-1-0.2-1.5c-0.5-1.7-1-3.4-1.6-5.1c-0.5-1.7-1.1-3.4-1.7-5.1
				c-0.1-0.5-0.3-0.9-0.7-1.3c-0.6-0.5-1.1-1.1-1.7-1.6c-1.4-1-2.9-1.5-4.5-2.2c-1.9-0.8-3.7-1.7-5.7-2.4c-3.6-1.4-7.1-3-10.7-4.4
				c-1.9-0.8-3.8-1.5-5.7-2.3c-1.9-0.8-4-1.1-6-1.6c0.1,0,0.2,0.1,0.3,0.1c-0.6-0.2-1.1-0.4-1.7-0.5c2.8,2.5,5.7,5.1,8.5,7.6
				c-0.5-0.9-0.5-1.8,0-2.7c0.2-0.7-4.9-3-5-3c-1.4-0.7-2.7-1.4-4.1-2.1c-0.4-0.3-0.8-0.4-1.2-0.3c-3.3,1.4-6.5,2.8-9.7,4.3
				c-0.6,0.2-1.1,0.5-1.6,0.8c-0.6,0.5-1.1,1.7-1.5,2.3c-0.4,0.7-1,2.5-1.5,3.5c-0.7,1.5-1.3,3-1.8,4.5c-1.7,4.6-3.8,9-5.6,13.6
				c-0.5,1.4-1.3,2.7-1.7,4.1c-0.8,2.8-1,5-2.8,7.6c-0.1,0.4,0,0.8,0.2,1.2c0.4,0.9,0.7,1.9,1.1,2.8c0.5,1.2,1,2.3,1.5,3.5
				c0.3,0.8,0.7,1.6,1.2,2.3c2.1,2,3.8,2.9,6.4,4c-0.1,0-0.2-0.1-0.3-0.1c5,2.4,10.3,4,15.4,6.1c5,2,9.9,4,14.8,6.1
				c0.1-0.4,0-0.8-0.3-1.2c-0.6-1.3-1.3-2.6-2-3.8c-0.7-1.3-1.4-2.5-2.1-3.8C42.6,63.8,42.4,63.5,42,63.3z"/>
		</g>
	</g>
</g>
<rect x="10" y="31" fill="none" width="63" height="24"/>
<text transform="matrix(0.9819 -0.1894 0.1894 0.9819 13.5411 47.9832)"><tspan x="0" y="0" fill="#4D4D4D" stroke="#009245" stroke-width="0.75" stroke-miterlimit="10" font-family="'CooperBlack'" font-size="23px">A</tspan><tspan x="18.9" y="0.4" fill="#4D4D4D" stroke="#009245" stroke-width="0.75" stroke-miterlimit="10" font-family="'CooperBlack'" font-size="23px" rotate="20.9">B</tspan><tspan x="38.1" y="4.2" fill="#4D4D4D" stroke="#009245" stroke-width="0.75" stroke-miterlimit="10" font-family="'CooperBlack'" font-size="23px" rotate="20.2">C</tspan></text>
<text transform="matrix(1 0 0 1 300 -51)" font-family="'CooperBlack'" font-size="12px">Lorem ipsum</text>
<path fill="#CCCCCC" stroke="#000000" stroke-width="4" stroke-miterlimit="10" d="M36,37"/>
</svg>
