<?xml version="1.0" encoding="utf-8"?>
<!-- Generator: Adobe Illustrator 22.1.0, SVG Export Plug-In . SVG Version: 6.00 Build 0)  -->
<svg version="1.1" id="Layer_1" xmlns="http://www.w3.org/2000/svg" xmlns:xlink="http://www.w3.org/1999/xlink" x="0px" y="0px"
	 viewBox="0 0 80 80" enable-background="new 0 0 80 80" xml:space="preserve">
<g>
	<path fill="#FFFFFF" d="M63.5,74.5h-47c-6.6,0-12-5.4-12-12v-45c0-6.6,5.4-12,12-12h47c6.6,0,12,5.4,12,12v45
		C75.5,69.1,70.1,74.5,63.5,74.5z"/>
	<g>
		<g>
			<g>
				<g>
					<path fill="#20204D" d="M63.5,72.5c-0.1,0.3,0,0.8,0.3,0.7c0.1-0.3,0.1-0.7,0.2-1L63.5,72.5z"/>
					<path fill="#20204D" d="M66,74.1c0.3-0.6,0.5-1.5,0-2.3c-0.1,1-0.3,0.7-0.5,1.8c-0.3,0.2-0.7-0.2-0.6-0.6
						c-0.1,0.3-0.5-0.1-0.7,0.5c0.5,0.8,1.2,0.7,1.6-0.1C66,73.6,66,73.9,66,74.1z"/>
					<path fill="#20204D" d="M76.9,42l-0.1,0.2C76.8,42.2,76.9,42.1,76.9,42z"/>
					<path fill="#20204D" d="M77.4,19.2c0,0.2,0.1,0.2,0.2,0.3C77.6,19.3,77.5,19.2,77.4,19.2z"/>
					<path fill="#20204D" d="M78.3,14.8c0,0.1,0,0.2,0,0.3C78.3,15,78.4,14.9,78.3,14.8z"/>
					<path fill="#20204D" d="M76.9,42l0.3-0.6C76.9,41.4,77,41.7,76.9,42z"/>
					<path fill="#20204D" d="M69.1,70.1C69,70.2,69,70.3,69,70.5c0-0.1,0.1-0.2,0.1-0.2C69.1,70.2,69.1,70.1,69.1,70.1z"/>
					<path fill="#20204D" d="M77.7,52.1l0,0.2c0.1,0.1,0.2,0.1,0.4,0.2L77.7,52.1z"/>
					<path fill="#20204D" d="M77.8,59.8c0-0.2-0.8-0.2-1.2-0.3c0.3,0.1,0.5,0.2,0.6,0.4C77.4,59.9,77.6,59.8,77.8,59.8z"/>
					<path fill="#20204D" d="M72.5,71.6l-0.1,0.2C72.4,71.8,72.5,71.7,72.5,71.6z"/>
					<path fill="#20204D" d="M77.9,46.6c0.1,0,0.2,0,0.3-0.1C78.1,46.5,78,46.5,77.9,46.6z"/>
					<path fill="#20204D" d="M54.6,70.5c0,0.1,0,0.1,0,0.2C54.6,70.6,54.6,70.5,54.6,70.5z"/>
					<path fill="#20204D" d="M63.5,74.7l-0.1,0c0,0.2,0,0.3,0,0.5L63.5,74.7z"/>
					<path fill="#20204D" d="M75,6.3C75,6.3,75,6.3,75,6.3C75.3,6.4,75.2,6.3,75,6.3z"/>
					<path fill="#20204D" d="M6.1,6c0.6,0,0.5,0.4,0.4,0.8c-0.1,0.4,0,0.7,0.7,0.6C6.9,7.3,7.3,5.6,6.1,6z"/>
					<path fill="#20204D" d="M69.3,70.1c0.1-0.1,0.1-0.1,0.2-0.2C69.4,70,69.3,70,69.3,70.1z"/>
					<path fill="#20204D" d="M7.3,7.4L7.3,7.4l0.2,0C7.4,7.4,7.3,7.4,7.3,7.4z"/>
					<path fill="#20204D" d="M56.7,1.9c0,0.1,0.1,0.3,0.2,0.4C56.8,2.2,56.8,2.1,56.7,1.9z"/>
					<path fill="#20204D" d="M69.7,4.5l-0.3-0.3C69.6,4.4,69.7,4.5,69.7,4.5z"/>
					<path fill="#20204D" d="M50.3,3.1C50.1,3,50.1,2.9,49.9,3c0,0,0,0.1,0.1,0.1C50,3,50.1,3,50.3,3.1z"/>
					<path fill="#20204D" d="M43.7,3.1c0,0.1,0.1,0.1,0.1,0.2c0.1,0,0.1,0,0.2,0L43.7,3.1z"/>
					<path fill="#20204D" d="M34.5,70.9c0.1,0.2,0.2,0.5,0.3,0.8C34.7,71.1,35.7,70.9,34.5,70.9z"/>
					<path fill="#20204D" d="M69.4,70.5c-0.1-0.2-0.1-0.3-0.1-0.4c0,0-0.1,0.1-0.1,0.1C69.2,70.3,69.3,70.4,69.4,70.5z"/>
					<path fill="#20204D" d="M50,9.7l-1-0.1C49.3,9.7,49.7,9.7,50,9.7z"/>
					<path fill="#20204D" d="M7.9,51.9L8,52.2C8.1,52.1,8,52,7.9,51.9z"/>
					<path fill="#20204D" d="M45.9,9.7c-0.2-0.3-0.4-0.5-0.6-0.6c0,0.1-0.1,0.1-0.1,0.2L45.9,9.7z"/>
					<path fill="#20204D" d="M34.8,71.7L34.8,71.7L34.8,71.7z"/>
					<path fill="#20204D" d="M41.7,69.7c-1,0-0.5,1.1-0.7,1.7c-1.2,0.3-0.6-0.8-1-1.4c-0.7,0.3-1.3,1.3-1.9,1.3c0-0.2-0.1-0.2,0-0.5
						c-0.8,0.9-2.3,0-3.3,1.1c-0.1-0.1-0.1-0.2-0.1-0.3c0.1,0.6,0.2,1.1,0.1,1.5c-0.4,0-0.8,0.7-1,0c0.3,0,0.3-0.3,0.4-0.5L33.9,73
						c-0.4-1,0.6-0.4,0.6-1.1c-0.9,0.3-2,1.2-2.7,0.9c-0.1-1,1.6-0.3,0.7-1.2l1.1,0.4c-0.8-1.6,0.7,0.1-0.1-1.6
						c-1.4-0.3-1.6,0.5-3,0.2c-0.3,0.6,0.1,0.8-0.2,1.4c-2,1-1.6-2.6-3.1-1.2c-0.4,0.7-0.5,2-1.6,1.3l0.4-1.2
						c-1.4-0.1-0.8,1.7-2.2,0.9c0.3-0.5,1.1-0.4,0.9-0.5c-0.9-0.9-0.7,0.7-1.4,0.7l-0.1-1C21.6,71,20,71.8,18.4,72
						c0.1-0.3,0.4-0.6,0-0.9c-0.5,0.1-1,0.2-1.6,0.2c-0.3,0-0.5,0-0.7-0.1c-0.2,0-0.4-0.1-0.6-0.1c-0.8-0.3-1.4-0.8-1.9-1.3
						c-0.3,0.2-0.5,0.4-0.8,0.6c-0.1-0.1,0-0.5,0.2-0.6c-0.3-0.5-0.3,0.5-0.7,0.7c-0.3-0.1-0.1-0.7,0.2-0.8c-0.6,0.1-1.4,0-2.1-0.3
						c-0.7-0.3-1.2-1-1.1-1.7l0.3,0c-0.1-0.4-0.6-0.4-1-0.4c-0.5,0-0.9-0.1-0.7-0.6L8,66.7c-0.3-0.9-0.7-1.8-0.8-2.8
						c-0.1-0.5,0-0.9,0-1.4c0.1-0.5,0.3-1.1,0.6-1.5c-1.3-0.4,0.6-2.4-1.2-2.6c0.9-1.4,1.2-1,1.8-2.9c0.1-0.5-1.1-0.8-1.3-1.4l0.9,0
						l-1-0.9l1.1-0.5L8,52.2c-0.1,0.2-0.4,0.5-0.7,0.5c-0.4-0.9,0.6-2.3,1.1-2.3l-0.8-2.2c0.4,0,0.5,0.4,0.7,0.7
						c-0.9-1.2,1-0.2,0.1-1.3c-0.2,0.1-0.6-0.1-0.7-0.1c0.6-0.5,0.6-1.8,0.3-2.7l0.6,0.2c0.2-1.7-0.3-3.5-0.3-5.4
						c-0.3,0.7-1.4,0.5-1.5,0l1-0.2c-0.6-0.4-0.4,0.6-1.1-0.2c0.1-0.7,1.1-0.5,1.4-0.1l-0.3-0.8c0.3,0,0.4,0.1,0.8,0.2
						c-0.6-0.3,1-1.5-0.1-2l0.3,0c0-1.9-0.3-2.7-0.4-4.2c-0.8,0-0.7-0.6-1.3-1.1c0.3-1.1,0.9-2.4,0.9-3.7c-0.4-0.9-0.7-0.3-1.2-0.7
						c0.8-0.1,0.7-1.4,1.2-0.7C8,24.4,8,23.9,7.4,21.9c-0.3,0.2-0.5,0.5-0.7,0.3c-0.1-0.4,0.3-0.8,0.7-0.8l0.1,0.1
						c-0.6-1.1,0-2.5,0.5-3.7c0.1-0.4,0.3-0.5,0.4-0.7c0.1-0.2,0.2-0.4,0.3-0.6c0.1-0.4,0.1-0.7-0.2-1.1l0.1,0.1
						c-0.2-0.5-0.3-1-0.4-1.6c0.4-0.5,0.4,0.6,1,0.3c-0.3-0.9,0.1-1.4,0.5-1.8c0.4-0.4,0.8-0.7,1-1.4c1.1,0.5,1.6,0.1,2.2-0.5
						c0.6-0.5,1.4-1,2.1-0.4l-0.2-0.5c0.2-0.6,0.4,0.2,0.6,0.3c-0.1-0.4-0.4-0.4-0.3-0.7c1.1-0.5,3.3-0.2,5.3,0.1c2,0.3,4,0.8,6,1.1
						c1.4,0.1,0.8-2.8,2.6-1.5l-0.5,1c2.9-1.2,5.9,0,8.8-1c-0.2,0.2-0.2,0.5-0.5,0.5c0.6,0.7,2.2,0,2.2-0.6c0.4,0.1,0.1,0.5,0.4,0.8
						c0.6,0.4,1.5-0.9,1.8-0.2c0.1,0.1-0.2,0.2-0.3,0.3c0.4-0.3,1.8,0.1,1.5-0.7c1.1,0.4,2-0.4,2.9,0.1c0.6-0.9,1.8,0.4,2-0.9
						c-0.1,1.4,1.9,1.1,2.5,0.5c-0.2,0.4,0.6,0.4,0.3,1c0.8,0,1.5-0.3,1.3-1c1.4,1.6,2.9-1.3,3.7,0.8c2.3-0.7,4.4-1.2,6.5-1.5
						c-0.1,1.4-2.3,0.1-2.2,1.6c1-0.3,1.7-0.7,2.5-1c0.7-0.3,1.6-0.5,2.3-0.3C64.6,8.4,64,8.8,63.8,9c0.2-0.1,0.4-0.1,0.5-0.1
						c0.2,0,0.3,0,0.5,0c0.3,0,0.7,0.1,1,0.2c0.3,0.1,0.6,0.2,0.9,0.3c0.3,0.1,0.6,0.1,1,0.1c-0.1,0.1-0.3,0.2-0.4,0.2
						c0.3,0.1,0.4,0.5,0.7-0.1l-0.3,0c0-0.5,0.5-0.8,1-0.9c0.5-0.2,1.1-0.2,1.3-0.4c-0.7,0.6-0.5,0.9-0.3,1.2
						C70,9.8,70,10.2,69,10.8c0.2,0,0.5-0.1,0.8-0.4c0.1,0.3,0,0.5-0.5,0.7c0.4,0.2,0.7,0.1,1,0.1c0.2,0,0.5,0,0.7,0.3
						c-0.2,0.2-0.4,0.1-0.8,0.3c0.7-0.1,1.5,0,1.7,0.8c-0.2,0.1-0.3,0.2-0.4,0.1c0.2,0.3,0.4,0.4,0.7,0.7c0.2,0.2,0.5,0.4,0.8,0.6
						c0.5,0.4,0.9,1,0.8,1.8c-1.3-0.2-0.3,0.6-1.4,0.8c0.2,0.2,0.2,0.4,0.4,0.7l0.5-0.3c0,0.6,0.8,1.4,0.5,2.1l-0.5-0.6l0.2,1.6
						l0.4-0.9c0.6,0.8,1.4-0.1,1.1,1c-0.1-0.2,0,0.8-0.7,1.3l0,0c0.4,0.4,0.7,0.8,0.5,1.5c-0.4,0.2-1.2-0.1-1.5,0
						c0.9,0.4,0.3,1.9,1.3,2.5C74.2,25,73.6,25,73.5,25l0.8,0.3c-0.2,0.4-0.4,0.4-0.8,0.4c-0.1,1.2,1.4-0.4,0.8,1
						c-0.1-0.1-0.2-0.1-0.3-0.3c-0.3,1.4,0.5,2.7,0.1,3.9c-1.1,0.4-0.3-1.1-1.2-0.7c0.2,1.8,1.4,3.8,1.1,5.6l0.1-0.3
						c1.6,0.2-0.8,1.3,0,2.2c-0.1-0.2-0.9-0.3-0.7-0.2c-0.3,1.2,0.4,2.5,0.9,4.3l-0.4-0.2c-0.4,0.7-0.2,1.9-0.4,2.7
						c0.4,0.2,0.3,0.7,0.9,0.4c-2.3,2.4,1.2,4.5-0.7,6.7c0-0.3-0.4-0.6-0.4-0.4l0.4,1.8c0.7-0.1,0.4-0.2,1-0.6
						c0.4,0.2,0.7,0.7,0.7,1.2c-0.5-0.8-1.1,0-1.5,0.4c0.2-0.1,0.4,0.1,0.7,0c-1.2,0.9,1.4,0.2,0.6,1.4l-0.4-0.1
						c0.2,0.5,0.7,0.9,0.6,1.4c-0.8,0.2-0.4-0.5-1-0.5c0,0.7,1.5,1.4,0.7,2.1c-0.2-0.3-0.2-0.8-0.4-1.1c-0.9,0.7-0.7,0.8-0.9,1.3
						l0-0.1L73.3,59l0.3-0.3c2.1,0.9,0.4,1.9,1.8,3.1c-1.3-1.2-0.8-0.2-1.7-0.3c-0.3,0.3-0.5,0.8-0.8,0.7c0.7,0.7-0.6,0.8,0.4,1.5
						c-0.3,0-0.1,0.5-0.8,0.3c0.1,0.6,0.5,0,0.9,0c0.4,0.6,0,1.1-0.4,1.6c-0.4,0.5-0.9,1-0.6,1.9c-0.1,0.7,0.1,1.2,0.1,1.7
						c0.1,0.5,0.1,1.1-0.2,1.7c-0.3,0-0.4-0.3-0.5-0.5c-0.1-0.2,0-0.5,0-0.5c-0.8,0.2-1.1,0.6-1.3,1.2c-0.1-0.3-0.3-0.4-0.6-0.5
						c-0.3,0.3,0.4,1.1-0.4,1.1c-0.1-0.3-0.2-0.8-0.3-1.2c-0.3,0.5-0.5,1.3-0.9,1.8c-0.4-0.4,0-0.9,0-1.2c-0.2,0.2-0.5,0.5-0.8,0.8
						c-0.3,0.3-0.5,0.6-0.4,1.1l0.5,0.1c-0.2,0.1-0.4-0.6-0.2-0.8c0.3-0.8,0.8-0.1,1,0.2l-0.3,0.4c0.5,0.7,1,0.4,1.3-0.1
						c0.3-0.5,0.5-1.2,0.9-1.4c0.2,0.4,0.3,0.8,0.4,1.2c0.1-0.5,0.1-1,0.1-1.4c0.3,0.1,0.9,0.5,0.7,1c1,0,0.2-0.7,1.1-0.7
						c0.1,0,0.1,0.1,0.1,0.2c0.1-0.3,0.1-0.5,0.2-0.8c0.1,0.3,0.7,0.5,0.3,0.7c0.7-0.2,0.9-0.8,1-1.3c0.1-0.5,0.1-0.8,0.6-0.8l0,0.1
						c0.3-0.9,0.1-1-0.2-1.2c-0.3-0.1-0.6-0.3-0.9-1.1c0.8,0.1,1.6,0.1,2.4,0.1L75.3,67c0.1-0.2,0.3-0.5,0.6-0.3
						c-0.4-0.8-0.4,0-0.8-0.6c0.5-0.3,0.6-0.9,0.7-1.4c0.1-0.5,0.2-0.9,0.9-1c-0.7-0.4-0.6,0.8-1-0.2c0.8-0.1,0.7-0.4,0.6-0.7
						c-0.1-0.4-0.4-0.7-0.1-1.1c0.8,0.2,0.4,1,1.1,0.2c-1.4-0.5,0.3-1.5,0-2.1c-1.1,0-0.5-1.4-0.8-2.5c0.4,0.1,0.6-2,1-3l0.2,0
						c-1.1-0.2-0.9-1.2-1.1-2c0.7,0,0.9,0.2,1.2,0.6l0-0.7c-0.4-0.2-0.5-0.4-0.7-0.8l0.8,0.2c0-0.9-1-1.9-0.4-3.1
						c-0.8-0.1-2.1,1-2.7-0.3c0.4,0,1.1-0.1,1.3,0.2c-0.1-0.1-0.3-0.4-0.2-0.6l0.7,0.5c0.3-0.6-0.6-0.3-0.5-0.7
						c0.6,0,0.4-0.3,0.9-0.3c0.1,0.1-0.2,0.4,0,0.6c0.1-0.5,0.5-1.1,0.9-1.3c-0.3,0-0.8,0-0.9-0.4c0-0.9,0.7-0.3,1-0.9
						c-0.4-0.2,0-0.8-0.9-0.8c0-0.3,0.4-0.3,0.7-0.4c-0.4-0.5-0.1-2.3-1.1-1.7l-0.1,0.1c0,0,0-0.1,0-0.1v0v0
						c-0.9-1.6,0.5-3.3,0.1-4.9l0.3,0c-0.3-0.9-0.2-2.1-0.8-2.8c0-0.3,0.5-0.7,0.9-0.5c-0.2-0.7-0.6-0.8-0.1-1.9
						c0.5,0.7,0.5-0.3,0.4,0.7c0.3-0.9,0.7-1.2-0.1-2.2c0.8,0.3,1-0.7,0.7-1.2l-0.5,0.7c-0.1-0.5,0-0.9,0-1.4l1,0.2
						c1.2-1.9-2.1-3.5,0-4.9c-0.7-0.5-0.5,1-1.3,0.6c0.1-0.9,1.6-1.8,1.6-2.1c0.6-1.2-1.5-1.1-1.1-2.4c-0.4,0.2-1.3,0.3-1.6-0.6
						c0.1-0.9,1.5-1.1,1.8-0.5c0,0.2-0.1,0.3-0.2,0.3c0.1,0.3,0.3,0.7,0.7,0.3L78,19.7c0.4-0.4,0.3-1.7,0.9-1.4
						c-0.3-0.7-0.6-0.3-0.8,0.2c0.3-0.6,0.3-1,0.2-1.6c0-0.6-0.1-1.1-0.1-1.8c-0.2,0.3-0.5,0.5-0.6,0.3c0.1-1.1-0.2-1.2-0.5-1.3
						C77,14,76.6,14,76.4,13.4c0.3-0.9,1.3-0.1,0.4-1.3c0-0.9,0.8-0.6,1.2-0.3c-0.6-0.5-0.8-1.1-0.8-1.7c-0.1-0.6-0.1-1.2-0.3-1.6
						L77.6,9c-0.4-0.3-0.6-0.6-0.8-0.9c-0.1,0.3-0.2,0.5-0.3,0.7c-0.1-0.4-0.4-0.7-0.1-0.9c-0.6-0.1-0.8,1-1.8,0.7
						c-0.1-0.6-1.3-0.9-0.8-1.7c1,1.5,0.5-0.8,1.7,0.2c-0.3-0.1-0.5-0.4-0.7-0.8c0-0.1,0.2-0.1,0.3,0c-0.3-0.9-0.7-0.9-1.1-0.7
						c-0.4,0.1-0.8,0.4-1.5-0.2c0.5-0.3,0.3-1.1-0.1-1.1c0.6,0.4-0.2,0.9-1,0.9c-0.7-0.9-1.2-0.3-1.6-0.6L70.2,5
						c-0.4,0.4-0.9,0.1-1.6,0c0.1-0.4,0.7,0,0.5-0.3c-0.5,0.2-0.9-0.1-1.2-0.5c-0.4-0.4-0.8-0.9-1.5-0.7c-0.5-0.5,0.2-1-0.3-1.3
						c-0.7,0.2-1.1,0-1.4-0.2c-0.2-0.1-0.4-0.2-0.6-0.3c-0.2,0-0.6-0.1-0.8,0.1c0.3,0.7,0.4,0.5-0.4,1.2c0.5-0.2,1.4-0.3,2.2-0.4
						c-0.5,0.3-1,0.6-1.5,1c0.6,0,1.4-0.4,1.8-0.2c-0.7,0.5-0.6,0.3-0.4,1c-0.4-0.6-0.8-0.4-1.3-0.3c-0.4,0.2-0.8,0.4-1.3,0.1l0-1.8
						c-1.3-0.8-2.3,0.9-4.1,0.5L59,3.1c-0.2,0.7-1.1,0.1-1.6,0.4c0.1-0.6-0.3-0.8-0.5-1.2c0,0.4-1.3,0-1.4,1.1l-0.8-0.8
						c-1.4-0.3-1.6,1.7-2.9,1.5c0.4-0.6-0.2-1.1,0.7-1.5c-0.4,0-0.8-0.1-0.9,0.3c-0.3-0.4-1.2,0.8-1.6,0.2C49.7,3.4,49.7,4,49.2,4
						c-0.1-0.1,0-0.3,0-0.3c0,0.3-0.8,0.4-0.3,1.1c-1.4-1.8-3.8,0.1-5-1.5c-1,0.2-2.1,0.4-3,0.4c0.1-0.2,0-0.3,0.2-0.2
						c-1.2-0.6-0.7,1.7-2.1,1.1c-0.7-1,0.7-0.5,0.3-0.9c-0.2-1.9-1.7,0.3-2.6-0.9l0.2-0.1C36.1,2,35,3.4,33.9,3.3c0,0,0.1-0.2,0-0.3
						c-0.8,1-2.3,1.3-3.4,1.6c0.3-0.8,0.5-0.4,0.3-1.2c-0.5,0.1,0.1,1.2-0.9,1.5c-0.3-0.4-1-0.8-1.1-1.6l0.9,0
						c-0.5-1.1-1.2,0-1.7-0.1l0.1-0.5c-1.4,0.2-1.5,1.3-3,1.2l0.2,0.4c-0.8,1.2-0.7-0.7-1.6,0.2l-0.3-1.2c-0.6,0.3-2,1.1-3,1.4
						c0.6-0.9,1.7-1.3,2.5-1.8c-0.6,0-1.9,0.1-2.2,0.7c0.2-0.1,0.5-0.4,0.7-0.2c-0.7,0.9-1.6,1.4-2.7,1.4c0.2-2.3-2.7-0.6-4.1-2.2
						c-0.6,0.3-1.2,0.5-1.8,0.6C12.6,3,12.3,3.1,12,3.1c-0.3,0.1-0.6,0.1-0.9,0.2c-0.6,0.1-1.3,0.3-1.9,0.6C8.5,4.2,7.9,4.5,7.3,5
						C9.2,5.8,6.7,5.5,8,6.9C7.6,7.3,7.4,7.5,7.3,7.4C6.6,7.6,5.9,7.8,5.2,8c-0.7,0,0.1-0.7-0.2-1c-0.6,0.5-0.8,0.5-1,0.5
						c-0.2-0.1-0.5-0.2-1,0.1c0.7,0.2,0.4,1-0.2,1.6C3.1,9,3.6,8.8,4,8.6c-0.2,1.1-0.7,1.3-1.3,1.5c-0.5,0.2-1.2,0.5-1.1,1.7
						c-0.1-0.3-0.2-0.6-0.3-0.9c-0.1,0.6-0.5,1.6-0.6,2.6c-0.1,0.5-0.1,1.1,0.1,1.5C1,15.6,1.2,16,1.6,16.3
						c-0.2,0.2-0.7,0.4-0.8-0.1c-0.2,1.5,0.2,2.4,0.5,3.5c0.3,1.1,0.5,2.1,0.1,2.8l-0.4-0.2c0.1,0.4,0.8,0.7,0.4,1.1
						c-0.2,0-0.4-0.2-0.5,0c0.2,0.2,0.8,1,0.5,1.5l-0.5-0.4c-0.6,2,1.2,3,1.5,4.6c-1.3,0-1.7,1.5-2,2.3l-0.2,0
						c-0.2,2.3,1.1,3.9,1.6,6c-1.4,1.3-0.6,4.4-1.4,6.5c0.2-0.3,1,0.1,1.2,0.4c-0.3,0.5,0.9,1.4-0.3,1.3l0-0.2
						C0.1,46,0.4,47,0.4,47.8L2,47.9c-2.3,2.1,0.8,5.4-1.2,6.6c0.4,0.5,0.4,1.1,0.8,1.6l-0.8,0c-0.2,1.4-0.3,2.1-0.1,3.8L0,59.5
						c-0.1,1,2.4,1.2,2.5,2.1l-1.3,0.3c0,0.2,0,0.4,0,0.6l-0.1,0.8C1,63.9,1,64.5,1,65.1c0,1.1,0.4,2.2,1.3,3
						c-0.2,0-0.5,0.1-0.7-0.2c0.1,0.5,0.4,1.5,0.8,2.3c0.4,0.7,1,1.2,1.6,0.5c-0.5,0.3-0.2,0.8,0.4,1.3c0.6,0.5,1.4,0.8,2,1
						l-0.7,0.5c1.5-0.1,1.6-0.3,2.8,0.2c0.2,0.3-0.2,0.7-0.4,0.3c0.6,1,1.1-0.2,1.8,0.8l-0.7,0.2c0.9,0.6,1,0.3,1.7-0.1
						c0.7,0,1.7,0.9,1.6,1.6c0.3-0.4,0.9-0.8,1.5-0.5c0,0.3-0.2,0.4-0.3,0.5c0.8,0.4,1.5,0.3,2.1,0.1c0.3-0.1,0.6-0.2,0.8-0.2
						c0.2,0,0.5,0,0.7,0.2c0,0.3,0.1,0.4,0.2,0.5c-0.3,0-0.6,0-0.8,0c-0.2,0-0.6,0-0.8-0.1c-0.4,0-0.7-0.1-0.6-0.1
						c-0.1,0.8,1.1,1,0.1,2c1.2-0.5,2.3-1.8,3.3-1.4c0,0.1,0.1,0.1,0.1,0.3l-0.1,0.1c0.2,0.1,0.4,0,0.6-0.1c0.3,0.1,0.5,0.2,0.8,0.2
						c0.1,0.6,1.1,0.3,1.5,0.4c0-0.8,0.6-0.7,0-1.4c0.1,0.1-0.1,0.1-0.4,0.1c-0.1,0-0.2,0-0.2,0.1c0,0,0,0,0-0.1
						c-0.3,0-0.7,0-1.2,0.1c0.4-0.4,0.8-0.8,1.3-0.3c0.2-0.5,0.5-1.1,0.7-1.4c0.6,1.2,1.9,1.8,2,2.5c1.4-0.5,3.4-0.3,4.3-1.9
						c0.4-0.2,0.5,0.5,0.6,0.7c-0.2,0.2-0.5,0.1-0.6,0.4c0.8-0.4,2.4-0.2,2.6-1.3c1,0.5-0.6,1,0.8,0.8L31.2,77
						c2.8,1.8,4.5-2.8,7.6-0.6c-0.2-0.1-0.3-0.2-0.4-0.4c3.5,1,7.2-0.9,10.6,0.6c1,0.3,1.1-0.4,1.7-0.9l0.2,0.9l1-1
						c1.4-0.8,2.5,2.2,4.3,0.8l-0.2-0.6c0.7,0.1,2.1-0.4,2,0.3c0.1-0.1,0.2-0.6,0.5-0.3l0,0.5l1.6-0.8c1.3,0.3-0.2,1.9,1.6,2
						c0.7-0.2,1.9-1.4,1.7-1.7c-0.3,0-0.7-0.3-0.7-0.8l0.6-0.2c0.1-1.4,0.6-2.8-0.9-3.8l-1.1,0.9L61,71.1l0.9,0
						c-0.5-0.6-0.8-0.1-1.2,0.3c-0.1-0.4-0.2-0.6-0.4-0.7l-1,1.3c-0.1-0.5,0.5-1.1-0.2-1.4c-0.5,0.6,0.5,1.2-0.3,1.6
						c-0.5-0.6-0.4-1.2-1-0.6c-0.1-0.4,0-0.6,0.3-0.7c-0.5,0.4-1.4,0.2-1.7,0.9c-0.5-0.8-1.8,0.2-1.7-1.1c-0.2,0.3-0.9,1-1.4,1.1
						c0.9-1.6-1.8-0.1-1.6-1.8c-0.7,1.4-2.4,0.6-3.6,1.4c0.1-0.1,0.2-0.3,0.3-0.3c-0.7-0.1-0.9-0.5-1.3-0.8
						c-0.1,1.2-1.1,1.4-1.7,2.2c-0.8-1.1,0.5-1.4,0.2-2.5c0,1-1.4,1-1.1,1.7c-0.6-0.7-0.5-0.3-0.9-1.3c-0.1,1.5-0.6,0.2-1.1,1.2
						c-0.9-0.7-0.2-1.4-1.2-0.9C40.8,70.2,41.7,69.7,41.7,69.7z M18.4,72.3C18.4,72.2,18.4,72.2,18.4,72.3c0.2,0,0.4-0.1,0.5-0.1
						C18.7,72.2,18.6,72.2,18.4,72.3z M16.4,72.3c0.2,0,0.5,0,0.8,0c0.1,0.3,0,0.6-0.2,0.6C17.2,72.7,16.7,72.5,16.4,72.3z
						 M20.5,78.1c-0.3,0.1-0.4,0-0.5-0.2c0.1,0,0.3,0,0.5-0.1c0,0,0-0.1,0-0.1C20.6,77.8,20.6,78,20.5,78.1z"/>
					<path fill="#20204D" d="M21.1,77c0,0,0.1-0.1,0.1-0.1c-0.1-0.1-0.1-0.1-0.2-0.2c0,0.1-0.1,0.2-0.1,0.3C21,77,21.1,77,21.1,77z"
						/>
					<path fill="#20204D" d="M76.8,42.3L76.8,42.3c0,0,0,0-0.1,0C76.7,42.3,76.7,42.3,76.8,42.3z"/>
					<polygon fill="#20204D" points="8.3,54.1 8.1,54.1 8.3,54.3 					"/>
					<path fill="#20204D" d="M73.9,53.1c-0.1,0-0.2,0.1-0.2,0.1C73.7,53.2,73.8,53.2,73.9,53.1z"/>
					<path fill="#20204D" d="M73.7,57.8l-0.3,0.7C73.5,58.2,73.6,57.9,73.7,57.8z"/>
					<path fill="#20204D" d="M73.3,61.4c0.1,0,0.3,0.1,0.4,0.1l0,0L73.3,61.4z"/>
					<path fill="#20204D" d="M67.4,9.7c0,0-0.1,0-0.1,0C67.1,9.7,67.2,9.7,67.4,9.7z"/>
					<path fill="#20204D" d="M74.2,21.3c-0.2-0.2-0.3-0.4-0.4-0.5C73.8,21,73.8,21.3,74.2,21.3z"/>
					<path fill="#20204D" d="M50.2,9.8C50.2,9.7,50.2,9.7,50.2,9.8l-0.1,0L50.2,9.8z"/>
					<path fill="#20204D" d="M73.8,19.9c-0.2,0.3-0.1,0.6,0,0.8C73.9,20.5,74,20.2,73.8,19.9z"/>
					<path fill="#20204D" d="M66.8,71.2l-0.1,0c0,0.1,0,0.1,0,0.1L66.8,71.2z"/>
					<path fill="#20204D" d="M66.7,71.4l-0.1,0.1C66.7,71.5,66.8,71.5,66.7,71.4z"/>
					<path fill="#20204D" d="M66.4,71.8l0.2-0.3C66.5,71.6,66.4,71.6,66.4,71.8z"/>
					<path fill="#20204D" d="M70.2,69.5l-0.2-0.2C70.1,69.3,70.1,69.4,70.2,69.5z"/>
					<path fill="#20204D" d="M71,68.6c-0.3,0.2-0.9,0.1-1.1,0.5l0.1,0.2C69.9,68.9,71.2,69.2,71,68.6z"/>
					<path fill="#20204D" d="M76.7,65c-0.1,0.4-0.4,0.8-0.6,1.3c0.4-0.1,0.9-0.3,0.8,0.3C78.3,65,76.2,66.7,76.7,65z"/>
					<path fill="#20204D" d="M77.4,61c0.2,0.7,0.5,0,0.7,0C77.8,60.6,77.7,60.5,77.4,61z"/>
					<path fill="#20204D" d="M77.4,33.8l0.8,0.1C78.1,33.4,77.9,33.9,77.4,33.8z"/>
					<polygon fill="#20204D" points="73.5,28.7 73,29.1 73.7,29.4 					"/>
					<polygon fill="#20204D" points="78.9,25.6 79,25.8 78.8,25 					"/>
					<path fill="#20204D" d="M44.9,2.3L45,3.3C45.4,3.1,45.4,2.1,44.9,2.3z"/>
					<path fill="#20204D" d="M25.2,3.3C25,2.8,24.5,2.5,24.1,3C24.6,3.1,25,3.4,25.2,3.3z"/>
					<polygon fill="#20204D" points="0.8,48.9 0.5,48.5 0.7,49.3 					"/>
				</g>
			</g>
		</g>
	</g>
</g>
<rect x="10" y="31" fill="none" width="63" height="24"/>
<text transform="matrix(0.9819 -0.1894 0.1894 0.9819 13.5411 47.9832)"><tspan x="0" y="0" fill="#4D4D4D" stroke="#009245" stroke-width="0.75" stroke-miterlimit="10" font-family="'CooperBlack'" font-size="23px">A</tspan><tspan x="18.9" y="0.4" fill="#4D4D4D" stroke="#009245" stroke-width="0.75" stroke-miterlimit="10" font-family="'CooperBlack'" font-size="23px" rotate="20.9">B</tspan><tspan x="38.1" y="4.2" fill="#4D4D4D" stroke="#009245" stroke-width="0.75" stroke-miterlimit="10" font-family="'CooperBlack'" font-size="23px" rotate="20.2">C</tspan></text>
<text transform="matrix(1 0 0 1 300 -51)" font-family="'CooperBlack'" font-size="12px">Lorem ipsum</text>
<path fill="#CCCCCC" stroke="#000000" stroke-width="4" stroke-miterlimit="10" d="M36,37"/>
</svg>
