<?xml version="1.0" encoding="utf-8"?>
<!-- Generator: Adobe Illustrator 22.1.0, SVG Export Plug-In . SVG Version: 6.00 Build 0)  -->
<svg version="1.1" id="Layer_1" xmlns="http://www.w3.org/2000/svg" xmlns:xlink="http://www.w3.org/1999/xlink" x="0px" y="0px"
	 viewBox="0 0 80 80" enable-background="new 0 0 80 80" xml:space="preserve">
<g>
	<rect x="9.5" y="12.5" fill="#FFFFFF" width="62" height="57"/>
	<g>
		<g>
			<path opacity="0.1091" d="M62.9,59.9c-20.5,0.3-41,0.2-61.4,0.1c1.2,1,2.5,2,3.7,3c2.7-2,5.5-5.4,7.2-8.3
				c2.2-3.9,3.4-8.5,4.3-12.9c1.6-7.7,2-15.6,2.4-23.4c0.3-4.8,0.1-9.7,0.7-14.5c-1.3,1.5-2.5,3-3.8,4.5c2.3,2.8,5.8,5,9,6.4
				c6.7,3.1,14.1,4.5,21.4,5.3c7.9,0.8,15.8,1.2,23.7,1.5c3.7,0.1,7.5,0.1,11.1,0.4c-1.7-1.2-3.3-2.4-5-3.6
				c-2.7,2.5-4.8,6.1-6.3,9.4c-2.4,5.2-3.8,11-4.6,16.6c-1.1,7.6-1.5,15.4-1.9,23c-0.2,3.7-0.1,7.4-0.5,11c-0.1,0.9,1.3-0.9,1.1-0.7
				c0.6-0.8,1.7-2,1.8-3c0.6-6.5,0.4-13.2,0.7-19.7c0.3-6.4,0.7-12.8,1.8-19.2c0.2-2.3,1.1-4.4,2.6-6.2c0.4-2.3,1.6-4.1,3.4-5.2
				c2.1-1.5,4.2-2,6.7-2.5c0.8-0.2-0.9-1.3-1-1.3c-0.8-0.6-1.6-1.1-2.4-1.7c-0.4-0.3-0.9-0.6-1.4-0.7c-1.6-0.2-3.2-0.1-4.8-0.2
				c-4.3-0.1-8.7-0.2-13-0.3C53,17.6,47.6,17.4,42.2,17c-6.1-0.4-11.9-1.5-17.8-3.1c1.1,0.4,2.2,0.8,3.2,1.3
				c-2.7-1.4-4.8-3.3-6.3-5.8c-1-1.8-1.6-3.7-1.8-5.7C19.5,3.4,18,5,17.9,5.2c-0.6,0.7-2,1.9-2.1,2.9c-0.6,5.3-0.3,10.6-0.5,15.9
				c-0.1,4.5-0.3,9.1-0.6,13.6c-0.4,5.9-1.4,11.5-3,17.2c0.4-0.9,0.9-1.8,1.3-2.8c-1.1,1.7-2.4,3.2-3.9,4.6c-2.2,1.9-4.7,3-7.6,3.4
				C0.7,60.1,1.9,61,2,61.1C2.7,61.6,4,63,4.9,63c3.1,0.2,6.2,0,9.2,0.1c7,0,14.1,0.1,21.1,0.1c10.1,0,20.1,0,30.2,0
				c0.7,0-0.3-1.1-0.3-1.1C64.7,61.6,63.5,59.9,62.9,59.9z"/>
			<path opacity="0.1091" d="M61,61.4c-2.9,0.3-5.7,0.9-8.6,0.8C45.2,62,38.1,62.1,31,62.1c-10.3,0-20.7,0-31,0
				c0.2,0.3,0.3,0.6,0.5,1c1.7-0.8,3.4-1.5,5.1-2.4c1.5-0.8,2.9-1.8,4.3-2.8c1.6-1.1,3.1-2.4,4.5-3.7c0.3-0.6,0.3-0.8,0.5-1.8
				c0.9-3.5,1.7-7.1,2.4-10.6c1.5-7,1.7-14.4,2.1-21.5c0.2-4.9,0.2-9.8,0.7-14.7c-0.4,0.1-0.8,0.2-1.2,0.3c0.9,2.7,2,5,3.6,7.4
				c1,1.5,2.1,2.9,3.3,4.3c0.3,0.8,0.8,1.3,1.5,1.7c0.7,0.3,1.5,0.6,2.3,0.8c1.8,0.6,3.6,1.1,5.5,1.5c4,1,7.9,1.7,11.9,2.2
				c7.9,0.9,15.8,1.3,23.8,1.6c3.7,0.1,7.5,0.1,11.2,0.4c-0.7-0.9-1.5-1.9-2.2-2.8c-3.2,1.9-6.1,4-8.9,6.5c-1.1,0.7-2,1.6-2.7,2.6
				c-0.4,1.4-0.7,2.8-1.1,4.1c-1.2,4.6-2.3,9.2-2.9,13.9c-0.8,6.5-1.3,13.1-1.6,19.7c-0.2,4.3-0.1,8.7-0.6,13
				c-0.1,0.7,0.9-0.4,0.9-0.3c0.4-0.5,1.1-1.3,1.2-1.9c0.4-6.8,0.4-13.6,0.8-20.3c0.3-5.2,0.5-10.5,1.4-15.6
				c0.2-1.2,0.4-2.5,0.7-3.7c0.4-3.1,2-5.6,4.8-7.6c1-3.3,3-5.4,5.8-6.3c1.4-0.7,2.9-1.1,4.5-1.2c0.8-0.2-1.4-2.8-2-2.9
				c-6.1-0.2-12.2-0.2-18.2-0.4c-5.5-0.2-10.9-0.5-16.4-0.9c-6-0.5-12-1.5-17.8-3c0.3,0.1,0.7,0.3,1,0.4c-2.1-2.2-4.1-4.4-5.7-7
				c-1.4-2.2-2.2-4.1-2.8-6.6c-0.2-0.7-1.2,0-1.2,0.4c-0.5,7.4-0.5,14.7-1,22.1c-0.4,5.3-0.7,10.6-1.8,15.8
				c-0.3,1.2-0.6,2.4-0.9,3.6c0,2.4-0.8,4.4-2.5,6.1c-0.7,1.7-1.8,2.9-3.3,3.8c-2.7,2.2-5.9,3.8-9.3,4.8c-0.7,0.2-0.1,1,0.4,1
				c10.3,0,20.7,0,31,0c6.6,0,13.2-0.1,19.8,0.1c1.5,0.3,3,0.2,4.4-0.1c1-0.2,2-0.3,3-0.5c0.9-0.1,1.7-0.3,2.6-0.4
				C61.6,62.1,61.5,61.3,61,61.4z"/>
			<path opacity="0.1091" d="M63.5,60.6c-10.3-0.1-20.5-0.1-30.8-0.1c-10.3,0-20.6-0.2-30.9,0c3.8,3.3,7.5,6.5,11.3,9.8
				c-0.6-4.4-1.1-8.8-1.7-13.3c0,3,0.1,6.1,0.1,9.1c0.4-3.9,0.7-7.7,1.1-11.6c-0.5,2.8-0.9,5.6-1.4,8.4c1.4-7.9,3-16,4.1-24
				c0.7-5.5,1.2-11,1.5-16.6c0.3-4.4,0.4-8.8,0.6-13.1c0.1-1.8,0.1-3.6,0.3-5.3c-3,4-6,8-9,12c5.2-0.3,10.5-0.7,15.7-1
				c-2.9-0.2-5.8-0.5-8.7-0.7c6.5,0.8,12.9,1.6,19.4,2.6c2.7,0.4,5.5,0.7,8.3,1c5,0.5,10,0.8,15,1c6.8,0.3,13.7,0.3,20.6,0.7
				c-3.6-2.6-7.3-5.1-10.9-7.7c0.6,3.8,1.1,7.6,1.7,11.4c-0.1-2.6-0.2-5.2-0.3-7.7c-0.5,5.9-1.2,11.8-2,17.7
				c-0.5,2.6-0.9,5.2-1.2,7.9c-0.7,5.5-1.1,11-1.4,16.5c-0.3,4.4-0.4,8.8-0.6,13.1c-0.1,1.8-0.1,3.5-0.3,5.3
				c0.5-0.1,0.8-0.4,1.1-0.8c1.2-1.3,2.3-2.6,3.4-3.9c1.1-1.3,2.2-2.6,3.3-4c0.4-0.3,0.6-0.8,0.7-1.2c0.2-1.7,0.3-3.3,0.3-5
				c0-5.1,0.1-10.2,0.1-15.2c0.1-5.5,0.3-11.1,0.1-16.7c-0.1-2,0.1-4.1-0.1-6.1c0-0.8-0.2-1.5-0.6-2.2c-0.6-1.8-1.1-3.6-1.6-5.4
				c-0.6,3.7-1.1,7.3-1.7,11c0.9-2.5,2.5-4.3,4.8-5.4c1.7-0.7,3.5-1.3,5.3-1.6c-0.2-0.5-0.5-0.8-1-1.1c-1-0.8-2-1.5-3-2.2
				c-1.3-0.9-2.5-1.8-3.8-2.7c-0.9-0.7-1.8-1.2-2.7-1.7c-2.2-0.4-4.5-0.3-6.8-0.3c-5.3-0.1-10.6-0.2-15.9-0.2
				c-5.7-0.1-11.5-0.2-17.2-0.2c-1.3,0-2.6,0-3.9,0c-1.4-0.1-2.9-0.1-4.3,0c-2.5,0.5-5.1,1.4-7.5,2.1c3.9,0.4,7.8,0.8,11.7,1.2
				c-2.6-0.8-4.4-2.5-5.3-4.9c-0.7-1.8-1.2-3.7-1.4-5.7c-0.5,0.2-0.9,0.6-1.2,1.1c-1.2,1.5-2.4,3.1-3.6,4.7
				c-1.2,1.6-2.3,3.2-3.5,4.8c-0.4,0.4-0.6,0.9-0.7,1.4c-0.2,1.7-0.3,3.4-0.3,5.1c0,5.1-0.1,10.1-0.1,15.2c-0.1,5.5-0.2,11-0.2,16.5
				c0,1.9-0.2,4,0,5.9c0.3,2.4,1.4,5.2,2,7.5c0.7-4.2,1.4-8.5,2.1-12.7c-0.9,2.7-2.5,4.5-5,5.6c-1.8,0.7-3.6,1.3-5.5,1.5
				c0.2,0.5,0.5,0.9,1,1.2c1.4,1.3,2.9,2.6,4.4,3.9c1.5,1.3,3,2.6,4.5,3.8c0.4,0.4,0.8,0.7,1.4,0.8c2.9,0.6,6.2,0.2,9.2,0.3
				c7,0.1,14.1,0.2,21.1,0.1c6.5,0,13.1-0.3,19.5,0.1c3.5,0.3,6.9,0.5,10.4,0.7c-0.1-0.5-0.4-1-0.8-1.3c-1.3-1.5-2.5-2.9-3.8-4.3
				c-1.3-1.4-2.6-2.9-4-4.2C64.4,61.1,64,60.8,63.5,60.6z"/>
			<path opacity="0.1091" d="M62.7,61.7c-20.5-0.1-41.1-0.3-61.6-0.1c3,2,5.9,4,8.9,6.1c0.2-0.7,0.2-1.4,0.3-2.1
				c0.6-5.3,1.9-10.6,2.9-15.7c0.6-3.3,1.4-6.5,1.9-9.8c0.5-3.4,0.8-6.7,1-10.1c0.3-4.5,0.6-8.9,0.8-13.4c0.1-3.6,0.1-7.3,0.5-10.8
				c-2,2.5-4,5-5.9,7.5c0.3,0.1,0.6,0.2,0.9,0.2c4,0.6,7.9,1.4,11.8,2.5c2.5,0.7,5,1.3,7.6,1.8c6.2,1.3,12.4,2.1,18.7,2.5
				c6.4,0.5,12.8,0.8,19.1,1c3.2,0.1,6.4,0.1,9.6,0.3c-2.8-2.3-5.7-4.6-8.5-7c-0.2,0.7-0.2,1.4-0.3,2.1C70,21.8,68.4,27,67.2,32.1
				c-1.5,6.4-2.6,12.8-3.1,19.4c-0.5,5.7-0.8,11.4-1,17.1c-0.1,3.2-0.1,6.4-0.4,9.6c0.4-0.1,0.7-0.4,1-0.8c1-1.2,1.9-2.4,2.8-3.6
				c0.9-1.2,1.8-2.4,2.7-3.7c0.3-0.3,0.5-0.7,0.5-1.1c0.7-5.3,0.3-10.8,0.5-16.2c0.1-5.9,0.1-11.8,0.6-17.6c0.2-2.6,0.5-5.2,0.7-7.7
				c-0.2-2.4-0.3-4.8-0.4-7.3c-0.8,3-1.7,5.9-2.5,8.9c1.3-3.4,3.4-5.5,6.4-6.4c1.3-0.6,2.7-1,4.2-1.1c-0.1-0.4-0.3-0.7-0.7-1
				c-0.8-0.7-1.5-1.3-2.3-2c-1-0.8-2-1.6-3-2.4c-0.7-0.6-1.4-1.1-2.2-1.5c-1.4-0.2-2.7-0.2-4.1-0.2c-4.7-0.1-9.5-0.2-14.2-0.3
				c-5.5-0.1-11.1-0.2-16.6-0.4c-3.3-0.1-6.6-0.4-9.8-0.7c-3.1-0.3-6.2,0-9.2,0.1c2.6,0.9,5.3,1.8,7.9,2.6c-3.3-1.2-5.4-3.3-6.3-6.2
				c-0.6-1.3-1-2.6-1.2-4c-0.4,0.1-0.7,0.3-0.9,0.6c-0.6,0.7-1.2,1.4-1.7,2.1c-0.7,0.9-1.4,1.8-2.1,2.7c-0.5,0.6-0.9,1.3-1.3,2
				c-0.6,4.9-0.3,9.7-0.5,14.6c-0.2,6.5-0.2,13.1-0.7,19.5c-0.2,2.6-0.5,5.2-0.8,7.8c0.2,2.4,0.3,4.8,0.4,7.3
				c0.6-2.6,1.2-5.1,1.8-7.7c-1.1,2-1.9,3.7-3.9,5c-2.1,1.3-4.2,1.8-6.6,2.2c0.1,0.4,0.4,0.7,0.8,0.9c0.8,0.6,1.6,1.2,2.4,1.8
				c1,0.7,2.1,1.4,3.1,2.1c0.7,0.5,1.5,1,2.2,1.3c2.6,0.5,5.3,0.2,7.9,0.2c6.9,0.1,13.7,0.1,20.6,0.1c7.2,0,14.5-0.4,21.7,0.1
				c3.5,0.2,7,0.4,10.5,0.6c-0.1-0.4-0.3-0.7-0.6-0.9c-1-1-2-1.9-3-2.8c-1-0.9-2-1.8-3.1-2.7C63.4,61.9,63.1,61.7,62.7,61.7z"/>
			<path opacity="0.1091" d="M62.5,58.4c-20.5,0.4-41,0.2-61.4,0.1c1,1,2.1,2,3.1,3c1.6-1.1,3.1-2.3,4.5-3.8c1.2-1.2,3.2-3.1,4-4.6
				c2.1-3.9,3.3-8.5,4.2-12.8c1.6-7.7,2-15.6,2.4-23.4c0.3-4.8,0.1-9.7,0.7-14.5c-1.1,1.5-2.2,2.9-3.4,4.4
				c6.7,8.2,17.8,11,27.8,12.2c8.1,1,16.2,1.4,24.3,1.8c4.3,0.2,8.7,0.1,13,0.5c-1.1-0.8-2.2-1.6-3.3-2.4c-1.8,1.4-3.4,2.8-5.1,4.3
				c-1.5,1.4-3.6,3.4-4.6,5.2c-0.5,1.4-1,2.8-1.4,4.1c-0.4,1.2-0.7,2.4-1.1,3.6c-0.9,3.2-1.3,6.5-1.8,9.8c-0.8,6.5-1.3,13-1.6,19.5
				c-0.2,4.3-0.1,8.6-0.6,12.9c-0.1,0.6,0.9-0.1,0.9-0.2c0.4-0.3,1.2-1.1,1.3-1.6c0.3-6.1,0.3-12.1,0.6-18.2
				c0.2-5.2,0.6-10.4,1.2-15.5c0.3-2.5,0.7-5,1.1-7.4c1.7-7.6,6.5-12.2,14.3-14c0.7-0.2-0.5-1-0.5-1c-0.6-0.5-1.7-1.4-2.5-1.5
				c-7.4-0.3-14.8-0.3-22.2-0.6C51,18,45.6,17.7,40.2,17.1c-6.3-0.8-13.8-2.3-17.7-7.7C21,7.3,20.5,5.1,20,2.5
				c-0.2-0.8-1.2,0.8-1.2,0.8c-0.7,0.8-2.1,2.3-2.2,3.4c-0.7,5.8-0.4,11.8-0.6,17.6c-0.2,5.2-0.4,10.5-1,15.6
				c-0.5,4.4-1.4,8.5-2.8,12.7c0.3-0.7,0.6-1.4,1-2.1c-1.2,1.7-2.6,3.2-4.2,4.6c-2.3,1.9-4.9,3-7.8,3.4c-0.7,0.1,0.3,1,0.4,1.1
				C2,60.1,3.2,61.6,4,61.6c10.2,0.1,20.5,0.1,30.7,0.1c10,0,20,0.1,30-0.1C65.4,61.5,63.3,58.4,62.5,58.4z"/>
			<path opacity="0.1091" d="M62.9,59.4c-10.3-0.1-20.5-0.1-30.8-0.1c-10.3,0-20.6-0.2-30.9,0c3.5,3.2,6.9,6.3,10.4,9.5
				c-0.6-3.8-0.7-7.5-0.4-11.4c0,2.2-0.1,4.4-0.1,6.6c0.4-3.6,0.9-7.3,1.3-10.9c-0.4,2.5-0.9,5.1-1.3,7.6c1.5-7.6,3.3-15.3,4.3-23
				c0.8-5.5,1.1-11,1.5-16.5c0.3-4.4,0.4-8.7,0.6-13.1c0.1-1.8,0.1-3.6,0.3-5.3C15.1,6.5,12.6,10.3,10,14c0.5-0.1,0.9-0.1,1.4-0.1
				c4.1,0.1,8.3,0.2,12.4,0.3c-2.6-0.2-5.2-0.3-7.9-0.5c5.1,0.4,10.2,1,15.3,1.7c2.6,0.5,5.2,0.9,7.9,1.3c5.6,0.7,11.2,1.1,16.8,1.3
				c4.8,0.2,9.6,0.4,14.5,0.6c2.7,0.1,5.4,0.1,8,0.2c-2.9-1.9-5.7-3.9-8.6-5.8c-0.1,0.6,0,1.2-0.1,1.8c-0.3,4.9-1.4,9.6-2.2,14.4
				c-1,6.6-2.1,13.1-2.6,19.8c-0.5,5.6-0.8,11.2-1,16.8c-0.1,3.2-0.1,6.4-0.4,9.6c0.4-0.1,0.7-0.3,1-0.6c1-1,2-2,2.9-3
				c0.8-0.9,3.2-2.8,3.4-4.2c0.2-1.7,0.3-3.3,0.3-5c0-5.1,0.1-10.1,0.2-15.2c0.1-5.4,0.3-10.8,0.4-16.3c0-2,0.4-4.1,0.2-6.1
				c-0.2-2.4-1.1-5.1-1.6-7.4c-0.6,2.8-1.2,5.6-1.8,8.4c1.1-2,2-3.6,3.9-4.9c1.9-1.3,4-1.8,6.2-2.4c-0.1-0.4-0.4-0.7-0.8-0.9
				c-0.8-0.6-1.6-1.1-2.5-1.7c-1-0.7-2.1-1.4-3.1-2c-0.7-0.5-1.5-0.9-2.3-1.2c-1-0.1-2-0.2-3-0.2c-5.7-0.1-11.4-0.2-17.2-0.3
				c-5.7-0.1-11.3-0.2-17-0.4c-2.8-0.1-5.6-0.2-8.4-0.3c-1.3-0.2-2.7-0.1-4,0.3c-1.8,0.4-3.6,0.8-5.5,1.1c3.1,0.2,6.3,0.4,9.4,0.6
				c-2.7-0.9-4.5-2.6-5.5-5.1c-0.8-1.9-1.2-3.9-1.4-6c-0.5,0.2-0.8,0.5-1.1,1c-1.1,1.5-2.1,2.9-3.1,4.4c-1,1.5-2,3-3,4.5
				C10.2,13.1,10,13.5,10,14c-0.2,1.7-0.3,3.4-0.3,5.1c0,5.1-0.1,10.1-0.2,15.2c-0.1,5.3-0.2,10.6-0.4,15.9c-0.1,2-0.4,4.1-0.3,6.1
				c0.2,2.3,0.9,5,1.2,7.3c0.7-3.8,1.4-7.6,2.1-11.5c-0.9,2.8-2.6,4.7-5.1,5.8c-1.8,0.8-3.8,1.3-5.7,1.5c0.2,0.5,0.4,0.9,0.9,1.2
				c1.3,1.3,2.7,2.6,4.1,3.8c1.4,1.3,2.8,2.5,4.2,3.7c0.4,0.4,0.8,0.7,1.3,0.8c2.9,0.6,6.2,0.2,9.2,0.3c7,0.1,14.1,0.2,21.1,0.1
				c6.5,0,13.1-0.3,19.6,0.1c3.5,0.2,6.9,0.4,10.4,0.6c-0.1-0.5-0.3-0.9-0.7-1.3c-1.1-1.4-2.3-2.8-3.5-4.2c-1.2-1.4-2.4-2.7-3.6-4.1
				C63.8,59.8,63.4,59.5,62.9,59.4z"/>
			<path opacity="0.1091" d="M63.2,62.9c-20.4,0-40.8-0.1-61.1-0.1c2.5,1.6,5,3.1,7.5,4.7c0.4-0.8,0.5-1.9,0.6-2.7
				c0.8-4,1.9-7.9,2.9-11.8c1.5-5.9,2.4-11.8,3-17.9c0.5-5.2,0.8-10.4,1-15.7c0.2-4.1,0.1-8.4,0.5-12.6c-2,2.1-3.9,4.2-5.9,6.3
				c0.4,0.3,0.8,0.4,1.3,0.4c2.6,0.4,5.2,1,7.7,1.7c-1.5-0.4-3-0.8-4.5-1.3c4.7,1.7,9.3,3.5,14.1,4.6c2.5,0.6,5.1,1.1,7.7,1.6
				c5.6,1,11.4,1.4,17.1,1.8c5.5,0.4,11,0.6,16.5,0.8c2.7,0.1,5.4,0.1,8.1,0.3c-3.1-2.8-6.1-5.5-9.2-8.3c-0.2,0.5-0.2,1-0.2,1.5
				c-0.2,4.5-0.8,9-1.8,13.4c0.5-2.2,1-4.4,1.5-6.6c-1.7,7.2-3.7,14.5-4.8,21.9c-0.8,5.3-1.1,10.7-1.5,16.1
				c-0.4,6.1-0.5,12.3-0.9,18.4c0-0.1,0-0.2,0-0.4c0,0.1,0,0.2,0,0.4c-0.2,1.4,2.4-2.6,2.1-2.2c1.1-1.6,2.1-3.2,3.2-4.8
				c0.6-0.8,1.1-1.7,1.5-2.6c0.3-2.3,0.4-4.4,0.4-6.7c0-6.6,0.2-13.1,0.4-19.7c0,0.1,0,0.2,0,0.4c0.2-4.1,0.3-8.1,0.8-12.1
				c0.1-1.3,0.3-2.5,0.4-3.8c-0.2-2.4-0.3-4.8-0.4-7.2c-0.8,3.3-1.5,6.6-2.3,10c1-2.8,2.7-4.8,5.2-6c1.8-0.8,3.7-1.4,5.7-1.6
				c-0.1-0.4-0.4-0.8-0.8-1.1c-1.2-1.1-2.4-2.3-3.6-3.3c-1.2-1.1-2.4-2.2-3.7-3.2c-0.3-0.4-0.7-0.6-1.2-0.6
				c-1.6-0.3-3.2-0.2-4.8-0.2c-5-0.1-10-0.2-15-0.3C45.1,14.1,39.6,14,34,13.8c-3.2-0.1-6.5-0.7-9.7-0.7c-2.3,0-4.7,0.1-7,0.1
				c2.7,1.2,5.5,2.4,8.2,3.7c-3.3-1.3-5.5-3.4-6.5-6.3c-0.6-1.2-1-2.5-1.3-3.9c0-0.2-2.3,2-2.5,2.3c-0.7,0.8-1.4,1.5-2,2.3
				c-0.5,0.5-0.9,1.1-1.3,1.7c-0.6,5.4-0.4,10.9-0.5,16.4c-0.1,5.2-0.3,10.4-0.6,15.6c-0.1,2.6-0.4,5.2-0.7,7.9
				c-0.3,3-0.1,6.1-0.1,9.1c0.6-1.9,1.2-3.9,1.8-5.8c-0.9,2.2-2.5,4-4.6,5.2c-1.7,0.8-3.4,1.4-5.3,1.6c0.1,0.3,0.3,0.6,0.7,0.7
				c0.7,0.5,1.4,0.9,2.1,1.4c0.9,0.6,1.8,1.1,2.7,1.6c0.6,0.4,1.3,0.7,2,1c3,0.4,6.2,0.1,9.2,0.2c7,0.1,14.1,0.1,21.1,0.1
				c6.5,0,13.1-0.3,19.6,0.1c3.5,0.2,7,0.3,10.4,0.4c0.3,0,0.3,0,0.2-0.3c-0.1-0.8-1.7-1.6-2.3-2.1c-1-0.8-1.9-1.6-2.9-2.3
				C64.2,63.4,63.7,62.9,63.2,62.9z"/>
			<path opacity="0.1091" d="M61.8,57.7c-20.6-0.4-41.2-0.2-61.7-0.2C2.1,59.2,4,61,6,62.7c2.2-1.9,3.4-4.8,4.6-7.4
				c2.2-5,3.7-10.7,4.8-16c1.6-7.7,2-15.7,2.4-23.5C18,10.9,17.9,6,18.4,1.2C17.2,3.1,16,5,14.8,7c2.8,2.5,6.2,4.3,9.7,5.8
				c2.8,1.2,5.9,2.4,8.9,3.2c3.9,1,8.1,1.5,12.1,2c8,0.9,16,1.3,24,1.6c3.7,0.1,7.5,0.1,11.2,0.4c-0.9-0.6-1.7-1.2-2.6-1.8
				c-1.7,1.3-3.5,2.5-5.1,3.9c-1.6,1.4-3.7,3.1-5,4.9c-1.2,1.6-1.6,4-2.2,6c-1.1,3.7-1.7,7.5-2.2,11.3c-0.9,7-1.3,14-1.6,21
				c-0.2,3.6-0.1,7.4-0.5,11c-0.1,0.7,1-0.4,1-0.3c0.5-0.5,1.6-1.4,1.7-2.1c0.5-5.9,0.3-11.8,0.6-17.7c0.2-5.2,0.4-10.5,1-15.7
				c0.3-2.4,0.6-4.7,1-7c0.5-2.1,1.1-4.1,1.8-6.2c-0.2,0.4-0.4,0.8-0.5,1.2c1.9-2.1,3.8-4,6.1-5.7c2.1-1.5,4-2.1,6.5-2.7
				c0.7-0.2-1.9-1.9-2.4-1.9c-9.4-0.4-18.8-0.5-28.3-1c-2.8-0.2-5.6-0.4-8.3-0.7c-2-0.2-4-0.4-5.9-0.7c-2-0.5-3.9-1-5.9-1.4
				c-1-0.4-2-0.8-3-1.3c-1.7-1.1-3.4-2.3-5-3.4c-2.2-2.2-2.8-5.3-3.3-8.2c-0.2-0.9-1.4,1.3-1.3,1.2c-0.6,0.9-1.1,1.9-1.7,2.8
				c-0.3,0.5-0.6,1-0.7,1.6c-0.6,5.3-0.4,10.7-0.6,16.1c-0.2,4.6-0.4,9.1-0.7,13.7c-0.3,4.9-1.2,9.6-2.2,14.4
				c0.5-1.4,1.1-2.8,1.6-4.2c-4.1,8.4-5.8,9.7-12.8,10.9c-0.1,0,1.8,2.1,2,2.3c0.7,0.6,1.4,1.2,2.1,1.8c0.5,0.5,1,0.8,1.5,1.1
				c2.6,0.4,5.3,0.1,7.9,0.2c6.9,0,13.7,0.1,20.6,0.1c7.3,0,14.6-0.2,21.8,0c3.6,0.1,7.2,0.4,10.8,0.7c0.1-0.3,0-0.6-0.3-0.8
				c-0.6-0.8-1.2-1.6-1.9-2.4C64.1,59.9,62.8,57.7,61.8,57.7z"/>
			<path opacity="0.1091" d="M64,62.2c-10.3-0.1-20.5-0.1-30.8-0.1c-10.3,0-20.6-0.2-30.9,0c3.6,2.7,7.2,5.5,10.7,8.2
				c-0.5-3.9-1-7.9-1.5-11.8c0,2.7,0,5.4,0.1,8.1c0.9-8.7,2.4-17.3,3.6-26c0.6-4.8,1-9.7,1.3-14.6c0.3-4.6,0.5-9.2,0.7-13.7
				c0.1-2.2,0.1-4.5,0.3-6.7c-3,3.5-6,7-8.9,10.5c4.2-0.4,8.4-0.9,12.6-1.3c-2.9-0.1-5.7-0.1-8.6-0.2c9.1,1.1,18.1,2.9,27.2,4.1
				c5.7,0.7,11.4,1.2,17.1,1.5c7.5,0.4,15.1,0.4,22.6,0.9c-3.9-3.1-7.7-6.2-11.6-9.3c0.6,4.3,1.3,8.5,1.9,12.8
				c-0.1-2.9-0.2-5.8-0.3-8.8c-0.3,3.7-0.5,7.5-0.8,11.2c0.4-2.7,0.7-5.4,1.1-8.2c-1.2,7.9-2.7,15.8-3.7,23.7
				c-0.6,4.8-1,9.7-1.3,14.6c-0.3,4.6-0.5,9.2-0.7,13.7c-0.1,2.2-0.1,4.5-0.3,6.7c0.5-0.2,0.9-0.5,1.1-1c1.2-1.5,2.3-3,3.4-4.5
				c1.1-1.5,2.2-3,3.3-4.6c0.4-0.4,0.6-0.9,0.7-1.4c0.2-1.7,0.3-3.4,0.3-5.1c0-5.1,0.1-10.2,0.1-15.2c0.1-5.5,0.2-11,0.2-16.6
				c0-1.9,0.2-4.1-0.1-6c-0.3-2.4-1.5-5.2-2.1-7.5c-0.6,4.1-1.2,8.2-1.8,12.3c0.9-2.7,2.5-4.5,4.9-5.5c1.8-0.7,3.6-1.3,5.5-1.5
				c-0.2-0.5-0.5-0.9-1-1.2c-1.5-1.3-3-2.5-4.5-3.7c-1.5-1.2-3.1-2.4-4.6-3.6c-0.4-0.4-0.9-0.6-1.4-0.7c-1.6-0.3-3.3-0.2-5-0.2
				c-5.1,0-10.1-0.2-15.2-0.2c-5.7-0.1-11.3-0.1-17-0.2c-2.8,0-5.7,0-8.5,0c-1.4-0.2-2.8,0-4.1,0.6c-1.8,0.5-3.6,1-5.4,1.5
				c4.1,0.9,8.3,1.8,12.4,2.7c-3.3-1.3-5.4-3.4-6.3-6.3c-0.5-1.3-0.9-2.6-1.2-4c-0.5,0.2-0.9,0.5-1.2,0.9c-1.2,1.3-2.4,2.7-3.6,4.1
				c-1.2,1.4-2.3,2.8-3.5,4.2c-0.4,0.4-0.6,0.8-0.7,1.3c-0.7,6-0.3,12.2-0.4,18.3C8.1,39.7,8,45.2,8,50.7c0.1,2.8,0.1,5.6,0.2,8.3
				c0.8,2.5,1.5,4.9,2.2,7.4c0.7-3.8,1.4-7.6,2.1-11.5c-0.9,2.6-2.5,4.4-4.8,5.4c-1.7,0.7-3.4,1.3-5.2,1.6c0.2,0.5,0.5,0.8,0.9,1.1
				c1,0.8,2,1.6,3,2.3c1.2,1,2.5,1.9,3.7,2.9c0.8,0.7,1.7,1.3,2.7,1.8c3.1,0.6,6.4,0.3,9.6,0.3c7,0.1,14.1,0.2,21.1,0.1
				c6.5,0,13.1-0.3,19.6,0.2c3.5,0.3,7,0.5,10.5,0.7c-0.1-0.5-0.4-0.9-0.8-1.2c-1.2-1.3-2.4-2.5-3.7-3.7c-1.2-1.2-2.5-2.4-3.8-3.6
				C64.9,62.5,64.5,62.3,64,62.2z"/>
			<path opacity="0.1091" d="M62,59.4c-20.5,0.1-41-0.2-61.6,0c2.6,2.1,5.2,4.2,7.9,6.3c0.5-0.8,0.7-1.7,1-2.6c0.3-1,0.5-2,0.7-3
				c1-3.6,1.9-7.2,2.9-10.7c1.7-6.6,2.9-13.1,3.5-19.8c0.5-5.5,0.8-11.1,1-16.7c0.1-3.2,0.1-6.4,0.4-9.6c-1.6,2.4-3.3,4.8-4.9,7.2
				c1,0.7,2.4,1.1,3.6,1.5c3.9,1.2,7.9,2.3,11.8,3.4c7.3,2,14.7,3.1,22.2,3.6c6.3,0.5,12.7,0.7,19,1c3.2,0.1,6.4,0.1,9.5,0.3
				c-1.8-1.3-3.7-2.6-5.5-4c-0.8,0.9-1.3,2.1-1.8,3.3c-1.1,2.6-2.2,5.3-3.3,8c-2.1,5.3-3.4,11-4.1,16.7c-0.8,7-1.3,14.1-1.6,21.1
				c-0.1,3.7-0.1,7.4-0.5,11.1c-0.1,1,1.8-1.2,1.6-1c0.8-0.9,1.6-1.8,2.4-2.7c0.4-0.5,0.8-1,1.1-1.5c0.6-5.3,0.3-10.7,0.5-16
				c0.2-5.2,0.3-10.5,0.7-15.7c0.3-5.3,1.3-10.5,2.4-15.7c-0.7,1.3-1.3,2.7-2,4c1.1-2.5,2.7-4.5,5-5.8c1.7-0.9,3.5-1.5,5.3-1.8
				c0-0.3-0.2-0.5-0.4-0.7c-0.5-0.4-1-0.8-1.6-1.2c-1-0.7-2.3-2-3.5-2.2C72.1,16,70.5,16,68.9,16c-5-0.1-10-0.2-15-0.4
				c-5.5-0.2-11.1-0.4-16.6-0.8c-5.5-0.4-11-1.5-16.4-2.6c1.4,0.4,2.9,0.9,4.3,1.3c-2.5-0.9-4.4-2.5-5.8-4.9
				c-0.9-1.8-1.4-3.8-1.6-5.8C17.4,3,17.1,3.2,17,3.5c-0.5,0.7-1,1.3-1.4,2c-0.6,0.9-1.1,1.7-1.7,2.6c-0.4,0.6-0.8,1.2-1,1.9
				c-0.7,5.9-0.4,12-0.6,18c-0.2,5.3-0.2,10.7-0.8,16c-0.4,2.5-0.7,5-1.2,7.5c-0.2,2.1-0.4,4.3-0.7,6.4c0.6-2.1,1.3-4.2,1.9-6.3
				c-1.1,2.1-2.1,4-4.1,5.3c-2.2,1.4-4.4,1.8-6.9,2.2c0.1,0.4,0.3,0.7,0.6,0.9c0.7,0.6,1.4,1.2,2.2,1.8c0.9,0.7,1.8,1.5,2.7,2.2
				c0.6,0.5,1.3,1,2,1.4c2.6,0.5,5.3,0.2,7.9,0.2c6.9,0.1,13.7,0.1,20.6,0.1c7.2,0,14.5-0.3,21.8,0c3.5,0.2,7,0.3,10.4,0.5
				c0-0.4-0.2-0.7-0.5-0.9c-0.8-1-1.7-1.9-2.6-2.9c-0.9-0.9-1.8-1.9-2.7-2.7C62.7,59.6,62.4,59.4,62,59.4z"/>
			<path opacity="0.1091" d="M62.1,56.9c-20.4,0.1-40.8,0.1-61.3,0C2.4,58.5,4,60,5.5,61.5c2.8-2.1,5.1-6,6.4-9.2
				c2-5.1,3.5-10.2,4.6-15.6c1.4-7.6,1.8-15.5,2.2-23.3c0.2-4.2,0.1-8.6,0.6-12.8c-1.2,1.9-2.5,3.9-3.7,5.8
				c3.9,3.6,8.7,5.7,13.5,7.7c1.5,0.6,3,1.3,4.6,1.7c3.4,0.9,7.2,1.3,10.7,1.7c7.4,0.9,14.8,1.4,22.2,1.7c4.9,0.2,9.9,0.2,14.8,0.5
				c-0.6-0.5-1.2-1.1-1.8-1.6c-2,1.4-4,2.6-6,4c-1.5,1.1-2.9,2.2-4.3,3.5c-0.8,0.3-1.3,0.8-1.6,1.5c-0.4,1.3-0.8,2.6-1.2,3.8
				c-0.5,1.8-1,3.7-1.4,5.6c-0.7,3.2-1.2,6.4-1.6,9.7c-0.7,6.4-1.2,12.8-1.4,19.2C62,69.2,62,73,61.7,76.7c-0.1,0.7,2-0.6,2-1.1
				c0.4-8.1,0.5-16.2,1-24.3c0.4-5.7,0.7-11.7,2.1-17.2c1.3-2.8,2.7-5.6,4-8.5c0.9-0.7,1.8-1.5,2.7-2.2c1.2-1,2.6-1.8,4-2.4
				c1.2-0.7,2.6-1.1,4-1.3c0.8-0.2-1.5-1.7-1.9-1.7c-8.1-0.3-16.2-0.4-24.3-0.8c-6.1-0.3-12.4-0.6-18.4-1.7c-3.1-1-6.2-2.1-9.4-3.1
				c-1.7-1.1-3.4-2.3-5.1-3.4c-2.3-2.2-2.8-5.4-3.3-8.4c-0.2-0.9-1.4,1.3-1.3,1.2c-0.6,0.9-1.2,1.9-1.7,2.8c-0.3,0.5-0.6,1-0.7,1.6
				c-0.6,5.3-0.4,10.6-0.6,15.9c-0.2,4.5-0.4,9.1-0.7,13.6c-0.4,5.6-1.4,11-2.9,16.3c0.4-1,0.7-2,1.1-3c-1.4,2.1-2.7,4-4.7,5.4
				c-2.2,1.5-4.4,2-7,2.4c-0.2,0,1.5,1.9,1.6,2C2.8,59.5,3.4,60,4,60.6c0.4,0.4,0.8,0.7,1.3,1c1.7,0.2,3.4,0.1,5.2,0.1
				c7.8,0,15.5,0.1,23.3,0.1c10.7,0,21.5,0,32.2,0.3c0.3,0-1.7-2.9-1.6-2.8C64,58.7,62.9,56.9,62.1,56.9z"/>
			<path opacity="0.1091" d="M63.3,62.7c-20.5-0.2-41.1-0.4-61.7-0.2c3.3,2.2,6.5,4.3,9.8,6.5c-0.1-0.6-0.1-1.2-0.1-1.8
				c0-6,1.2-12.4,2.2-18.5c0.8-5.4,1.7-10.8,2.1-16.2c0.5-5.6,0.8-11.2,1-16.8c0.1-3.2,0.1-6.4,0.4-9.6c-2.4,2.8-4.7,5.6-7.1,8.3
				c3.8-0.3,6.9,0.3,11.2,0.6c-2.3-0.3-4.7-0.5-7-0.8c7.7,1.7,15.3,3.5,23.1,4.7c5.7,0.9,11.4,1.4,17.2,1.7c5.5,0.4,11,0.6,16.6,0.8
				c2.7,0.1,5.4,0.1,8.1,0.3c-3.3-3-6.6-5.9-9.8-8.9c0.6,3.6,0.7,7.3,0.3,11c0.1-2.1,0.2-4.3,0.3-6.4c-1.3,8.8-3.3,17.4-4.6,26.2
				c-0.7,4.8-1.1,9.7-1.4,14.6c-0.3,4.6-0.5,9.2-0.7,13.7c-0.1,2.2-0.1,4.5-0.3,6.7c0.5-0.2,0.8-0.5,1.1-1c1.1-1.4,2.3-2.9,3.3-4.4
				c1.1-1.5,2.2-2.9,3.2-4.4c0.4-0.4,0.6-0.8,0.6-1.3c0.2-1.7,0.3-3.3,0.3-5.1c0-5.1,0.1-10.1,0.2-15.2c0.1-5.4,0.2-10.8,0.4-16.1
				c0.1-1.9,0.4-4,0.2-5.9c-0.2-2.4-0.9-5-1.3-7.3c-0.8,3.8-1.6,7.5-2.4,11.3c0.9-2.7,2.6-4.7,5.1-5.8c1.8-0.8,3.6-1.3,5.5-1.6
				c-0.1-0.5-0.4-0.9-0.8-1.2c-1.3-1.2-2.5-2.4-3.8-3.6c-1.3-1.2-2.6-2.3-3.9-3.5c-0.3-0.4-0.7-0.6-1.2-0.7
				c-1.6-0.3-3.3-0.2-4.9-0.2c-5-0.1-10.1-0.2-15.1-0.3c-5.6-0.1-11.2-0.2-16.9-0.3c-2.8-0.1-5.6-0.1-8.3-0.2
				c-3.2-0.1-6.2,0.8-9.3,1.4c3.3,1,6.6,1.9,10,2.9c-2.6-1-4.5-2.6-5.8-5C17.9,9.7,17.4,8,17,6.2c-0.4,0.1-0.7,0.3-1,0.7
				c-1,1.1-1.9,2.1-2.9,3.2c-0.8,1-3.1,3-3.3,4.4c-0.2,1.7-0.3,3.3-0.3,5c0,5.1-0.1,10.1-0.2,15.2C9.3,40.1,9.1,45.5,9,50.9
				c0,2-0.4,4.3-0.1,6.3c0.3,2.3,1.2,5,1.8,7.3c0.5-3,0.9-6,1.4-9c-1,2.6-2.6,4.4-5,5.5c-1.7,0.8-3.5,1.3-5.4,1.6
				c0.2,0.4,0.4,0.7,0.9,0.9c0.9,0.6,1.8,1.3,2.7,1.9c1.1,0.8,2.3,1.5,3.4,2.3c0.8,0.6,1.6,1,2.5,1.4c2.6,0.4,5.4,0.2,8,0.2
				c6.9,0.1,13.7,0.1,20.6,0.1c7.2,0,14.5-0.4,21.7,0.1c3.5,0.2,7.1,0.4,10.6,0.6c-0.1-0.4-0.3-0.7-0.7-1c-1.1-1-2.2-2-3.4-3
				c-1.1-1-2.3-1.9-3.5-2.9C64.1,62.9,63.7,62.7,63.3,62.7z"/>
		</g>
	</g>
</g>
<rect x="12" y="31" fill="none" width="59" height="24"/>
<text transform="matrix(1 0 0 1 12 47.0195)" fill="#CCCC00" font-family="'CooperBlack'" font-size="24px">ABC</text>
<text transform="matrix(1 0 0 1 300 -51)" font-family="'CooperBlack'" font-size="12px">Lorem ipsum</text>
<path fill="#CCCCCC" stroke="#000000" stroke-width="4" stroke-miterlimit="10" d="M36,37"/>
</svg>
